%
M48
M72
T01C0.0120
T02C0.0354
T03C0.1102
%
T01
X2274Y3021
X2274Y4301
X2210Y5014
X2409Y5678
X2690Y5174
X3650Y3894
X3650Y3334
X4194Y5261
X2409Y6908
X2409Y8138
X2409Y9368
X2409Y10599
X2409Y11829
X2409Y13059
X2409Y14290
X2409Y15520
X2409Y16750
X3914Y13781
X5514Y13301
X6274Y13261
X6434Y13581
X7034Y13301
X7274Y13141
X7114Y11861
X5794Y10381
X5954Y9541
X7074Y7421
X6994Y6941
X7634Y4701
X7330Y4134
X8034Y4701
X8530Y2374
X10274Y5021
X10929Y5678
X10994Y4701
X10929Y6908
X10929Y8138
X10929Y9368
X10929Y10599
X10849Y11829
X10929Y13059
X10929Y14290
X10929Y15520
X10929Y16750
X10674Y17901
X10074Y17901
X9625Y17366
X9625Y16135
X9625Y14905
X9625Y13675
X9625Y12444
X9625Y11214
X9625Y9984
X9625Y8753
X9625Y7523
X9625Y6293
X8754Y7101
X6674Y2541
X6354Y1981
X6610Y1014
X3954Y8381
X4034Y9821
X5554Y11861
T02
X5828Y2481
X7560Y2481
T03
X6694Y19041
M30
