G75*
G70*
%OFA0B0*%
%FSLAX24Y24*%
%IPPOS*%
%LPD*%
%AMOC8*
5,1,8,0,0,1.08239X$1,22.5*
%
%ADD10C,0.0010*%
%ADD11C,0.0000*%
%ADD12C,0.0080*%
%ADD13C,0.0050*%
D10*
X001794Y001371D02*
X001794Y018596D01*
X001794Y001371D02*
X002251Y001141D01*
X002720Y000934D01*
X003198Y000750D01*
X003685Y000590D01*
X004179Y000453D01*
X004679Y000341D01*
X005183Y000254D01*
X005692Y000191D01*
X006203Y000154D01*
X006715Y000141D01*
X007227Y000154D01*
X007738Y000191D01*
X008247Y000254D01*
X008751Y000341D01*
X009251Y000453D01*
X009745Y000590D01*
X010232Y000750D01*
X010710Y000934D01*
X011179Y001141D01*
X011636Y001371D01*
X011637Y001371D02*
X011637Y018596D01*
X011636Y018596D02*
X011179Y018826D01*
X010710Y019033D01*
X010232Y019217D01*
X009745Y019377D01*
X009251Y019514D01*
X008751Y019626D01*
X008247Y019713D01*
X007738Y019776D01*
X007227Y019813D01*
X006715Y019826D01*
X006203Y019813D01*
X005692Y019776D01*
X005183Y019713D01*
X004679Y019626D01*
X004179Y019514D01*
X003685Y019377D01*
X003198Y019217D01*
X002720Y019033D01*
X002251Y018826D01*
X001794Y018596D01*
D11*
X006143Y019041D02*
X006145Y019088D01*
X006151Y019134D01*
X006161Y019180D01*
X006174Y019225D01*
X006192Y019268D01*
X006213Y019310D01*
X006237Y019350D01*
X006265Y019387D01*
X006296Y019422D01*
X006330Y019455D01*
X006366Y019484D01*
X006405Y019510D01*
X006446Y019533D01*
X006489Y019552D01*
X006533Y019568D01*
X006578Y019580D01*
X006624Y019588D01*
X006671Y019592D01*
X006717Y019592D01*
X006764Y019588D01*
X006810Y019580D01*
X006855Y019568D01*
X006899Y019552D01*
X006942Y019533D01*
X006983Y019510D01*
X007022Y019484D01*
X007058Y019455D01*
X007092Y019422D01*
X007123Y019387D01*
X007151Y019350D01*
X007175Y019310D01*
X007196Y019268D01*
X007214Y019225D01*
X007227Y019180D01*
X007237Y019134D01*
X007243Y019088D01*
X007245Y019041D01*
X007243Y018994D01*
X007237Y018948D01*
X007227Y018902D01*
X007214Y018857D01*
X007196Y018814D01*
X007175Y018772D01*
X007151Y018732D01*
X007123Y018695D01*
X007092Y018660D01*
X007058Y018627D01*
X007022Y018598D01*
X006983Y018572D01*
X006942Y018549D01*
X006899Y018530D01*
X006855Y018514D01*
X006810Y018502D01*
X006764Y018494D01*
X006717Y018490D01*
X006671Y018490D01*
X006624Y018494D01*
X006578Y018502D01*
X006533Y018514D01*
X006489Y018530D01*
X006446Y018549D01*
X006405Y018572D01*
X006366Y018598D01*
X006330Y018627D01*
X006296Y018660D01*
X006265Y018695D01*
X006237Y018732D01*
X006213Y018772D01*
X006192Y018814D01*
X006174Y018857D01*
X006161Y018902D01*
X006151Y018948D01*
X006145Y018994D01*
X006143Y019041D01*
X005651Y002481D02*
X005653Y002507D01*
X005659Y002533D01*
X005669Y002558D01*
X005682Y002581D01*
X005698Y002601D01*
X005718Y002619D01*
X005740Y002634D01*
X005763Y002646D01*
X005789Y002654D01*
X005815Y002658D01*
X005841Y002658D01*
X005867Y002654D01*
X005893Y002646D01*
X005917Y002634D01*
X005938Y002619D01*
X005958Y002601D01*
X005974Y002581D01*
X005987Y002558D01*
X005997Y002533D01*
X006003Y002507D01*
X006005Y002481D01*
X006003Y002455D01*
X005997Y002429D01*
X005987Y002404D01*
X005974Y002381D01*
X005958Y002361D01*
X005938Y002343D01*
X005916Y002328D01*
X005893Y002316D01*
X005867Y002308D01*
X005841Y002304D01*
X005815Y002304D01*
X005789Y002308D01*
X005763Y002316D01*
X005739Y002328D01*
X005718Y002343D01*
X005698Y002361D01*
X005682Y002381D01*
X005669Y002404D01*
X005659Y002429D01*
X005653Y002455D01*
X005651Y002481D01*
X007383Y002481D02*
X007385Y002507D01*
X007391Y002533D01*
X007401Y002558D01*
X007414Y002581D01*
X007430Y002601D01*
X007450Y002619D01*
X007472Y002634D01*
X007495Y002646D01*
X007521Y002654D01*
X007547Y002658D01*
X007573Y002658D01*
X007599Y002654D01*
X007625Y002646D01*
X007649Y002634D01*
X007670Y002619D01*
X007690Y002601D01*
X007706Y002581D01*
X007719Y002558D01*
X007729Y002533D01*
X007735Y002507D01*
X007737Y002481D01*
X007735Y002455D01*
X007729Y002429D01*
X007719Y002404D01*
X007706Y002381D01*
X007690Y002361D01*
X007670Y002343D01*
X007648Y002328D01*
X007625Y002316D01*
X007599Y002308D01*
X007573Y002304D01*
X007547Y002304D01*
X007521Y002308D01*
X007495Y002316D01*
X007471Y002328D01*
X007450Y002343D01*
X007430Y002361D01*
X007414Y002381D01*
X007401Y002404D01*
X007391Y002429D01*
X007385Y002455D01*
X007383Y002481D01*
D12*
X001794Y001371D02*
X001794Y018596D01*
X002563Y018966D01*
X003360Y019273D01*
X004179Y019514D01*
X005015Y019687D01*
X005862Y019791D01*
X006715Y019826D01*
X007568Y019791D01*
X008416Y019687D01*
X009252Y019514D01*
X010071Y019273D01*
X010867Y018966D01*
X011637Y018596D01*
X011637Y001371D01*
X010867Y001001D01*
X010071Y000694D01*
X009252Y000453D01*
X008416Y000280D01*
X007568Y000176D01*
X006715Y000141D01*
X005862Y000176D01*
X005015Y000280D01*
X004179Y000453D01*
X003360Y000694D01*
X002563Y001001D01*
X001794Y001371D01*
X001794Y001398D02*
X011637Y001398D01*
X011637Y001476D02*
X001794Y001476D01*
X001794Y001555D02*
X011637Y001555D01*
X011637Y001633D02*
X001794Y001633D01*
X001794Y001712D02*
X011637Y001712D01*
X011637Y001791D02*
X001794Y001791D01*
X001794Y001869D02*
X011637Y001869D01*
X011637Y001948D02*
X001794Y001948D01*
X001794Y002026D02*
X011637Y002026D01*
X011637Y002105D02*
X001794Y002105D01*
X001794Y002183D02*
X011637Y002183D01*
X011637Y002262D02*
X001794Y002262D01*
X001794Y002340D02*
X011637Y002340D01*
X011637Y002419D02*
X001794Y002419D01*
X001794Y002497D02*
X011637Y002497D01*
X011637Y002576D02*
X001794Y002576D01*
X001794Y002654D02*
X011637Y002654D01*
X011637Y002733D02*
X001794Y002733D01*
X001794Y002812D02*
X011637Y002812D01*
X011637Y002890D02*
X001794Y002890D01*
X001794Y002969D02*
X011637Y002969D01*
X011637Y003047D02*
X001794Y003047D01*
X001794Y003126D02*
X011637Y003126D01*
X011637Y003204D02*
X001794Y003204D01*
X001794Y003283D02*
X011637Y003283D01*
X011637Y003361D02*
X001794Y003361D01*
X001794Y003440D02*
X011637Y003440D01*
X011637Y003518D02*
X001794Y003518D01*
X001794Y003597D02*
X011637Y003597D01*
X011637Y003676D02*
X001794Y003676D01*
X001794Y003754D02*
X011637Y003754D01*
X011637Y003833D02*
X001794Y003833D01*
X001794Y003911D02*
X011637Y003911D01*
X011637Y003990D02*
X001794Y003990D01*
X001794Y004068D02*
X011637Y004068D01*
X011637Y004147D02*
X001794Y004147D01*
X001794Y004225D02*
X011637Y004225D01*
X011637Y004304D02*
X001794Y004304D01*
X001794Y004382D02*
X011637Y004382D01*
X011637Y004461D02*
X001794Y004461D01*
X001794Y004540D02*
X011637Y004540D01*
X011637Y004618D02*
X001794Y004618D01*
X001794Y004697D02*
X011637Y004697D01*
X011637Y004775D02*
X001794Y004775D01*
X001794Y004854D02*
X011637Y004854D01*
X011637Y004932D02*
X001794Y004932D01*
X001794Y005011D02*
X011637Y005011D01*
X011637Y005089D02*
X001794Y005089D01*
X001794Y005168D02*
X011637Y005168D01*
X011637Y005246D02*
X001794Y005246D01*
X001794Y005325D02*
X011637Y005325D01*
X011637Y005404D02*
X001794Y005404D01*
X001794Y005482D02*
X011637Y005482D01*
X011637Y005561D02*
X001794Y005561D01*
X001794Y005639D02*
X011637Y005639D01*
X011637Y005718D02*
X001794Y005718D01*
X001794Y005796D02*
X011637Y005796D01*
X011637Y005875D02*
X001794Y005875D01*
X001794Y005953D02*
X011637Y005953D01*
X011637Y006032D02*
X001794Y006032D01*
X001794Y006110D02*
X011637Y006110D01*
X011637Y006189D02*
X001794Y006189D01*
X001794Y006267D02*
X011637Y006267D01*
X011637Y006346D02*
X001794Y006346D01*
X001794Y006425D02*
X011637Y006425D01*
X011637Y006503D02*
X001794Y006503D01*
X001794Y006582D02*
X011637Y006582D01*
X011637Y006660D02*
X001794Y006660D01*
X001794Y006739D02*
X011637Y006739D01*
X011637Y006817D02*
X001794Y006817D01*
X001794Y006896D02*
X011637Y006896D01*
X011637Y006974D02*
X001794Y006974D01*
X001794Y007053D02*
X011637Y007053D01*
X011637Y007131D02*
X001794Y007131D01*
X001794Y007210D02*
X011637Y007210D01*
X011637Y007289D02*
X001794Y007289D01*
X001794Y007367D02*
X011637Y007367D01*
X011637Y007446D02*
X001794Y007446D01*
X001794Y007524D02*
X011637Y007524D01*
X011637Y007603D02*
X001794Y007603D01*
X001794Y007681D02*
X011637Y007681D01*
X011637Y007760D02*
X001794Y007760D01*
X001794Y007838D02*
X011637Y007838D01*
X011637Y007917D02*
X001794Y007917D01*
X001794Y007995D02*
X011637Y007995D01*
X011637Y008074D02*
X001794Y008074D01*
X001794Y008153D02*
X011637Y008153D01*
X011637Y008231D02*
X001794Y008231D01*
X001794Y008310D02*
X011637Y008310D01*
X011637Y008388D02*
X001794Y008388D01*
X001794Y008467D02*
X011637Y008467D01*
X011637Y008545D02*
X001794Y008545D01*
X001794Y008624D02*
X011637Y008624D01*
X011637Y008702D02*
X001794Y008702D01*
X001794Y008781D02*
X011637Y008781D01*
X011637Y008859D02*
X001794Y008859D01*
X001794Y008938D02*
X011637Y008938D01*
X011637Y009016D02*
X001794Y009016D01*
X001794Y009095D02*
X011637Y009095D01*
X011637Y009174D02*
X001794Y009174D01*
X001794Y009252D02*
X011637Y009252D01*
X011637Y009331D02*
X001794Y009331D01*
X001794Y009409D02*
X011637Y009409D01*
X011637Y009488D02*
X001794Y009488D01*
X001794Y009566D02*
X011637Y009566D01*
X011637Y009645D02*
X001794Y009645D01*
X001794Y009723D02*
X011637Y009723D01*
X011637Y009802D02*
X001794Y009802D01*
X001794Y009880D02*
X011637Y009880D01*
X011637Y009959D02*
X001794Y009959D01*
X001794Y010038D02*
X011637Y010038D01*
X011637Y010116D02*
X001794Y010116D01*
X001794Y010195D02*
X011637Y010195D01*
X011637Y010273D02*
X001794Y010273D01*
X001794Y010352D02*
X011637Y010352D01*
X011637Y010430D02*
X001794Y010430D01*
X001794Y010509D02*
X011637Y010509D01*
X011637Y010587D02*
X001794Y010587D01*
X001794Y010666D02*
X011637Y010666D01*
X011637Y010744D02*
X001794Y010744D01*
X001794Y010823D02*
X011637Y010823D01*
X011637Y010902D02*
X001794Y010902D01*
X001794Y010980D02*
X011637Y010980D01*
X011637Y011059D02*
X001794Y011059D01*
X001794Y011137D02*
X011637Y011137D01*
X011637Y011216D02*
X001794Y011216D01*
X001794Y011294D02*
X011637Y011294D01*
X011637Y011373D02*
X001794Y011373D01*
X001794Y011451D02*
X011637Y011451D01*
X011637Y011530D02*
X001794Y011530D01*
X001794Y011608D02*
X011637Y011608D01*
X011637Y011687D02*
X001794Y011687D01*
X001794Y011766D02*
X011637Y011766D01*
X011637Y011844D02*
X001794Y011844D01*
X001794Y011923D02*
X011637Y011923D01*
X011637Y012001D02*
X001794Y012001D01*
X001794Y012080D02*
X011637Y012080D01*
X011637Y012158D02*
X001794Y012158D01*
X001794Y012237D02*
X011637Y012237D01*
X011637Y012315D02*
X001794Y012315D01*
X001794Y012394D02*
X011637Y012394D01*
X011637Y012472D02*
X001794Y012472D01*
X001794Y012551D02*
X011637Y012551D01*
X011637Y012629D02*
X001794Y012629D01*
X001794Y012708D02*
X011637Y012708D01*
X011637Y012787D02*
X001794Y012787D01*
X001794Y012865D02*
X011637Y012865D01*
X011637Y012944D02*
X001794Y012944D01*
X001794Y013022D02*
X011637Y013022D01*
X011637Y013101D02*
X001794Y013101D01*
X001794Y013179D02*
X011637Y013179D01*
X011637Y013258D02*
X001794Y013258D01*
X001794Y013336D02*
X011637Y013336D01*
X011637Y013415D02*
X001794Y013415D01*
X001794Y013493D02*
X011637Y013493D01*
X011637Y013572D02*
X001794Y013572D01*
X001794Y013651D02*
X011637Y013651D01*
X011637Y013729D02*
X001794Y013729D01*
X001794Y013808D02*
X011637Y013808D01*
X011637Y013886D02*
X001794Y013886D01*
X001794Y013965D02*
X011637Y013965D01*
X011637Y014043D02*
X001794Y014043D01*
X001794Y014122D02*
X011637Y014122D01*
X011637Y014200D02*
X001794Y014200D01*
X001794Y014279D02*
X011637Y014279D01*
X011637Y014357D02*
X001794Y014357D01*
X001794Y014436D02*
X011637Y014436D01*
X011637Y014515D02*
X001794Y014515D01*
X001794Y014593D02*
X011637Y014593D01*
X011637Y014672D02*
X001794Y014672D01*
X001794Y014750D02*
X011637Y014750D01*
X011637Y014829D02*
X001794Y014829D01*
X001794Y014907D02*
X011637Y014907D01*
X011637Y014986D02*
X001794Y014986D01*
X001794Y015064D02*
X011637Y015064D01*
X011637Y015143D02*
X001794Y015143D01*
X001794Y015221D02*
X011637Y015221D01*
X011637Y015300D02*
X001794Y015300D01*
X001794Y015379D02*
X011637Y015379D01*
X011637Y015457D02*
X001794Y015457D01*
X001794Y015536D02*
X011637Y015536D01*
X011637Y015614D02*
X001794Y015614D01*
X001794Y015693D02*
X011637Y015693D01*
X011637Y015771D02*
X001794Y015771D01*
X001794Y015850D02*
X011637Y015850D01*
X011637Y015928D02*
X001794Y015928D01*
X001794Y016007D02*
X011637Y016007D01*
X011637Y016085D02*
X001794Y016085D01*
X001794Y016164D02*
X011637Y016164D01*
X011637Y016242D02*
X001794Y016242D01*
X001794Y016321D02*
X011637Y016321D01*
X011637Y016400D02*
X001794Y016400D01*
X001794Y016478D02*
X011637Y016478D01*
X011637Y016557D02*
X001794Y016557D01*
X001794Y016635D02*
X011637Y016635D01*
X011637Y016714D02*
X001794Y016714D01*
X001794Y016792D02*
X011637Y016792D01*
X011637Y016871D02*
X001794Y016871D01*
X001794Y016949D02*
X011637Y016949D01*
X011637Y017028D02*
X001794Y017028D01*
X001794Y017106D02*
X011637Y017106D01*
X011637Y017185D02*
X001794Y017185D01*
X001794Y017264D02*
X011637Y017264D01*
X011637Y017342D02*
X001794Y017342D01*
X001794Y017421D02*
X011637Y017421D01*
X011637Y017499D02*
X001794Y017499D01*
X001794Y017578D02*
X011637Y017578D01*
X011637Y017656D02*
X001794Y017656D01*
X001794Y017735D02*
X011637Y017735D01*
X011637Y017813D02*
X001794Y017813D01*
X001794Y017892D02*
X011637Y017892D01*
X011637Y017970D02*
X001794Y017970D01*
X001794Y018049D02*
X011637Y018049D01*
X011637Y018128D02*
X001794Y018128D01*
X001794Y018206D02*
X011637Y018206D01*
X011637Y018285D02*
X001794Y018285D01*
X001794Y018363D02*
X011637Y018363D01*
X011637Y018442D02*
X001794Y018442D01*
X001794Y018520D02*
X011637Y018520D01*
X011630Y018599D02*
X001800Y018599D01*
X001963Y018677D02*
X011467Y018677D01*
X011304Y018756D02*
X002126Y018756D01*
X002289Y018834D02*
X011141Y018834D01*
X010979Y018913D02*
X002452Y018913D01*
X002628Y018991D02*
X010803Y018991D01*
X010598Y019070D02*
X002832Y019070D01*
X003036Y019149D02*
X010394Y019149D01*
X010190Y019227D02*
X003240Y019227D01*
X003470Y019306D02*
X009960Y019306D01*
X009693Y019384D02*
X003738Y019384D01*
X004005Y019463D02*
X009426Y019463D01*
X009119Y019541D02*
X004311Y019541D01*
X004691Y019620D02*
X008740Y019620D01*
X008323Y019698D02*
X005108Y019698D01*
X005746Y019777D02*
X007685Y019777D01*
X011528Y001319D02*
X001902Y001319D01*
X002065Y001241D02*
X011365Y001241D01*
X011202Y001162D02*
X002228Y001162D01*
X002391Y001084D02*
X011039Y001084D01*
X010876Y001005D02*
X002554Y001005D01*
X002756Y000927D02*
X010675Y000927D01*
X010471Y000848D02*
X002960Y000848D01*
X003164Y000769D02*
X010267Y000769D01*
X010060Y000691D02*
X003371Y000691D01*
X003638Y000612D02*
X009793Y000612D01*
X009526Y000534D02*
X003905Y000534D01*
X004172Y000455D02*
X009258Y000455D01*
X008882Y000377D02*
X004549Y000377D01*
X004928Y000298D02*
X008502Y000298D01*
X007923Y000220D02*
X005507Y000220D01*
D13*
X005564Y006135D02*
X005564Y006293D01*
X005406Y006450D01*
X005406Y006135D01*
X005564Y006293D01*
X005564Y006450D01*
X005564Y007366D02*
X005564Y007523D01*
X005406Y007680D01*
X005406Y007366D01*
X005564Y007523D01*
X005564Y007680D01*
X005564Y008596D02*
X005564Y008753D01*
X005406Y008911D01*
X005406Y008596D01*
X005564Y008753D01*
X005564Y008911D01*
X005564Y009826D02*
X005564Y009984D01*
X005406Y010141D01*
X005406Y009826D01*
X005564Y009984D01*
X005564Y010141D01*
X005564Y011056D02*
X005564Y011214D01*
X005406Y011371D01*
X005406Y011056D01*
X005564Y011214D01*
X005564Y011371D01*
X005564Y012287D02*
X005564Y012444D01*
X005406Y012602D01*
X005406Y012287D01*
X005564Y012444D01*
X005564Y012602D01*
X005564Y013517D02*
X005564Y013675D01*
X005406Y013832D01*
X005406Y013517D01*
X005564Y013675D01*
X005564Y013832D01*
X005564Y014747D02*
X005564Y014905D01*
X005406Y015062D01*
X005406Y014747D01*
X005564Y014905D01*
X005564Y015062D01*
X005564Y015978D02*
X005564Y016135D01*
X005406Y016293D01*
X005406Y015978D01*
X005564Y016135D01*
X005564Y016293D01*
X005564Y017208D02*
X005564Y017366D01*
X005406Y017523D01*
X005406Y017208D01*
X005564Y017366D01*
X005564Y017523D01*
X007867Y017523D02*
X007867Y017208D01*
X008024Y017366D01*
X007867Y017523D01*
X008024Y017523D02*
X008024Y017366D01*
X008024Y017208D01*
X008024Y016293D02*
X008024Y016135D01*
X007867Y016293D01*
X007867Y015978D01*
X008024Y016135D01*
X008024Y015978D01*
X008024Y015062D02*
X008024Y014905D01*
X007867Y015062D01*
X007867Y014747D01*
X008024Y014905D01*
X008024Y014747D01*
X008024Y013832D02*
X008024Y013675D01*
X007867Y013832D01*
X007867Y013517D01*
X008024Y013675D01*
X008024Y013517D01*
X008024Y012602D02*
X008024Y012444D01*
X007867Y012602D01*
X007867Y012287D01*
X008024Y012444D01*
X008024Y012287D01*
X008024Y011371D02*
X008024Y011214D01*
X007867Y011371D01*
X007867Y011056D01*
X008024Y011214D01*
X008024Y011056D01*
X008024Y010141D02*
X008024Y009984D01*
X007867Y010141D01*
X007867Y009826D01*
X008024Y009984D01*
X008024Y009826D01*
X008024Y008911D02*
X008024Y008753D01*
X007867Y008911D01*
X007867Y008596D01*
X008024Y008753D01*
X008024Y008596D01*
X008024Y007680D02*
X008024Y007523D01*
X007867Y007680D01*
X007867Y007366D01*
X008024Y007523D01*
X008024Y007366D01*
X008024Y006450D02*
X008024Y006293D01*
X007867Y006450D01*
X007867Y006135D01*
X008024Y006293D01*
X008024Y006135D01*
X010327Y006135D02*
X010327Y006450D01*
X010485Y006293D01*
X010327Y006135D01*
X010485Y006135D02*
X010485Y006293D01*
X010485Y006450D01*
X010485Y007366D02*
X010485Y007523D01*
X010327Y007680D01*
X010327Y007366D01*
X010485Y007523D01*
X010485Y007680D01*
X010485Y008596D02*
X010485Y008753D01*
X010327Y008911D01*
X010327Y008596D01*
X010485Y008753D01*
X010485Y008911D01*
X010485Y009826D02*
X010485Y009984D01*
X010327Y010141D01*
X010327Y009826D01*
X010485Y009984D01*
X010485Y010141D01*
X010485Y011056D02*
X010485Y011214D01*
X010327Y011371D01*
X010327Y011056D01*
X010485Y011214D01*
X010485Y011371D01*
X010485Y012287D02*
X010485Y012444D01*
X010327Y012602D01*
X010327Y012287D01*
X010485Y012444D01*
X010485Y012602D01*
X010485Y013517D02*
X010485Y013675D01*
X010327Y013832D01*
X010327Y013517D01*
X010485Y013675D01*
X010485Y013832D01*
X010485Y014747D02*
X010485Y014905D01*
X010327Y015062D01*
X010327Y014747D01*
X010485Y014905D01*
X010485Y015062D01*
X010485Y015978D02*
X010485Y016135D01*
X010327Y016293D01*
X010327Y015978D01*
X010485Y016135D01*
X010485Y016293D01*
X010485Y017208D02*
X010485Y017366D01*
X010327Y017523D01*
X010327Y017208D01*
X010485Y017366D01*
X010485Y017523D01*
X003103Y017523D02*
X003103Y017366D01*
X002946Y017523D01*
X002946Y017208D01*
X003103Y017366D01*
X003103Y017208D01*
X003103Y016293D02*
X003103Y016135D01*
X002946Y016293D01*
X002946Y015978D01*
X003103Y016135D01*
X003103Y015978D01*
X003103Y015062D02*
X003103Y014905D01*
X002946Y015062D01*
X002946Y014747D01*
X003103Y014905D01*
X003103Y014747D01*
X003103Y013832D02*
X003103Y013675D01*
X002946Y013832D01*
X002946Y013517D01*
X003103Y013675D01*
X003103Y013517D01*
X003103Y012602D02*
X003103Y012444D01*
X002946Y012602D01*
X002946Y012287D01*
X003103Y012444D01*
X003103Y012287D01*
X003103Y011371D02*
X003103Y011214D01*
X002946Y011371D01*
X002946Y011056D01*
X003103Y011214D01*
X003103Y011056D01*
X003103Y010141D02*
X003103Y009984D01*
X002946Y010141D01*
X002946Y009826D01*
X003103Y009984D01*
X003103Y009826D01*
X003103Y008911D02*
X003103Y008753D01*
X002946Y008911D01*
X002946Y008596D01*
X003103Y008753D01*
X003103Y008596D01*
X003103Y007680D02*
X003103Y007523D01*
X002946Y007680D01*
X002946Y007366D01*
X003103Y007523D01*
X003103Y007366D01*
X003103Y006450D02*
X003103Y006293D01*
X002946Y006450D01*
X002946Y006135D01*
X003103Y006293D01*
X003103Y006135D01*
M02*
