G75*
G70*
%OFA0B0*%
%FSLAX24Y24*%
%IPPOS*%
%LPD*%
%AMOC8*
5,1,8,0,0,1.08239X$1,22.5*
%
%ADD10C,0.0010*%
%ADD11C,0.0000*%
%ADD12C,0.1142*%
%ADD13R,0.0473X0.0591*%
%ADD14R,0.0820X0.0260*%
%ADD15R,0.0316X0.0276*%
%ADD16R,0.0237X0.1024*%
%ADD17R,0.0827X0.1024*%
%ADD18C,0.0394*%
%ADD19R,0.0631X0.0552*%
%ADD20R,0.0552X0.0631*%
%ADD21R,0.0800X0.2140*%
%ADD22R,0.0591X0.0473*%
%ADD23R,0.0434X0.0591*%
%ADD24R,0.0512X0.0512*%
D10*
X001794Y001371D02*
X001794Y018596D01*
X001794Y001371D02*
X002251Y001141D01*
X002720Y000934D01*
X003198Y000750D01*
X003685Y000590D01*
X004179Y000453D01*
X004679Y000341D01*
X005183Y000254D01*
X005692Y000191D01*
X006203Y000154D01*
X006715Y000141D01*
X007227Y000154D01*
X007738Y000191D01*
X008247Y000254D01*
X008751Y000341D01*
X009251Y000453D01*
X009745Y000590D01*
X010232Y000750D01*
X010710Y000934D01*
X011179Y001141D01*
X011636Y001371D01*
X011637Y001371D02*
X011637Y018596D01*
X011636Y018596D02*
X011179Y018826D01*
X010710Y019033D01*
X010232Y019217D01*
X009745Y019377D01*
X009251Y019514D01*
X008751Y019626D01*
X008247Y019713D01*
X007738Y019776D01*
X007227Y019813D01*
X006715Y019826D01*
X006203Y019813D01*
X005692Y019776D01*
X005183Y019713D01*
X004679Y019626D01*
X004179Y019514D01*
X003685Y019377D01*
X003198Y019217D01*
X002720Y019033D01*
X002251Y018826D01*
X001794Y018596D01*
D11*
X006143Y019041D02*
X006145Y019088D01*
X006151Y019134D01*
X006161Y019180D01*
X006174Y019225D01*
X006192Y019268D01*
X006213Y019310D01*
X006237Y019350D01*
X006265Y019387D01*
X006296Y019422D01*
X006330Y019455D01*
X006366Y019484D01*
X006405Y019510D01*
X006446Y019533D01*
X006489Y019552D01*
X006533Y019568D01*
X006578Y019580D01*
X006624Y019588D01*
X006671Y019592D01*
X006717Y019592D01*
X006764Y019588D01*
X006810Y019580D01*
X006855Y019568D01*
X006899Y019552D01*
X006942Y019533D01*
X006983Y019510D01*
X007022Y019484D01*
X007058Y019455D01*
X007092Y019422D01*
X007123Y019387D01*
X007151Y019350D01*
X007175Y019310D01*
X007196Y019268D01*
X007214Y019225D01*
X007227Y019180D01*
X007237Y019134D01*
X007243Y019088D01*
X007245Y019041D01*
X007243Y018994D01*
X007237Y018948D01*
X007227Y018902D01*
X007214Y018857D01*
X007196Y018814D01*
X007175Y018772D01*
X007151Y018732D01*
X007123Y018695D01*
X007092Y018660D01*
X007058Y018627D01*
X007022Y018598D01*
X006983Y018572D01*
X006942Y018549D01*
X006899Y018530D01*
X006855Y018514D01*
X006810Y018502D01*
X006764Y018494D01*
X006717Y018490D01*
X006671Y018490D01*
X006624Y018494D01*
X006578Y018502D01*
X006533Y018514D01*
X006489Y018530D01*
X006446Y018549D01*
X006405Y018572D01*
X006366Y018598D01*
X006330Y018627D01*
X006296Y018660D01*
X006265Y018695D01*
X006237Y018732D01*
X006213Y018772D01*
X006192Y018814D01*
X006174Y018857D01*
X006161Y018902D01*
X006151Y018948D01*
X006145Y018994D01*
X006143Y019041D01*
X005651Y002481D02*
X005653Y002507D01*
X005659Y002533D01*
X005669Y002558D01*
X005682Y002581D01*
X005698Y002601D01*
X005718Y002619D01*
X005740Y002634D01*
X005763Y002646D01*
X005789Y002654D01*
X005815Y002658D01*
X005841Y002658D01*
X005867Y002654D01*
X005893Y002646D01*
X005917Y002634D01*
X005938Y002619D01*
X005958Y002601D01*
X005974Y002581D01*
X005987Y002558D01*
X005997Y002533D01*
X006003Y002507D01*
X006005Y002481D01*
X006003Y002455D01*
X005997Y002429D01*
X005987Y002404D01*
X005974Y002381D01*
X005958Y002361D01*
X005938Y002343D01*
X005916Y002328D01*
X005893Y002316D01*
X005867Y002308D01*
X005841Y002304D01*
X005815Y002304D01*
X005789Y002308D01*
X005763Y002316D01*
X005739Y002328D01*
X005718Y002343D01*
X005698Y002361D01*
X005682Y002381D01*
X005669Y002404D01*
X005659Y002429D01*
X005653Y002455D01*
X005651Y002481D01*
X007383Y002481D02*
X007385Y002507D01*
X007391Y002533D01*
X007401Y002558D01*
X007414Y002581D01*
X007430Y002601D01*
X007450Y002619D01*
X007472Y002634D01*
X007495Y002646D01*
X007521Y002654D01*
X007547Y002658D01*
X007573Y002658D01*
X007599Y002654D01*
X007625Y002646D01*
X007649Y002634D01*
X007670Y002619D01*
X007690Y002601D01*
X007706Y002581D01*
X007719Y002558D01*
X007729Y002533D01*
X007735Y002507D01*
X007737Y002481D01*
X007735Y002455D01*
X007729Y002429D01*
X007719Y002404D01*
X007706Y002381D01*
X007690Y002361D01*
X007670Y002343D01*
X007648Y002328D01*
X007625Y002316D01*
X007599Y002308D01*
X007573Y002304D01*
X007547Y002304D01*
X007521Y002308D01*
X007495Y002316D01*
X007471Y002328D01*
X007450Y002343D01*
X007430Y002361D01*
X007414Y002381D01*
X007401Y002404D01*
X007391Y002429D01*
X007385Y002455D01*
X007383Y002481D01*
D12*
X006694Y019041D03*
D13*
X010013Y017366D03*
X010800Y017366D03*
X010800Y016135D03*
X010800Y014905D03*
X010800Y013675D03*
X010800Y012444D03*
X010800Y011214D03*
X010013Y011214D03*
X010013Y012444D03*
X010013Y013675D03*
X010013Y014905D03*
X010013Y016135D03*
X010013Y009984D03*
X010800Y009984D03*
X010800Y008753D03*
X010800Y007523D03*
X010800Y006293D03*
X010013Y006293D03*
X010013Y007523D03*
X010013Y008753D03*
D14*
X007894Y010891D03*
X007894Y011391D03*
X007894Y011891D03*
X007894Y012391D03*
X007894Y012891D03*
X007894Y013391D03*
X007894Y013891D03*
X007894Y014391D03*
X007894Y014891D03*
X007894Y015391D03*
X007894Y015891D03*
X007894Y016391D03*
X007894Y016891D03*
X007894Y017391D03*
X004334Y017391D03*
X004334Y016891D03*
X004334Y016391D03*
X004334Y015891D03*
X004334Y015391D03*
X004334Y014891D03*
X004334Y014391D03*
X004334Y013891D03*
X004334Y013391D03*
X004334Y012891D03*
X004334Y012391D03*
X004334Y011891D03*
X004334Y011391D03*
X004334Y010891D03*
D15*
X004785Y010073D03*
X004785Y009325D03*
X004772Y008134D03*
X005560Y008508D03*
X005560Y007760D03*
X006494Y007284D03*
X006494Y006536D03*
X007282Y006910D03*
X008725Y005027D03*
X008725Y004279D03*
X009513Y004653D03*
X005572Y009699D03*
D16*
X006064Y003465D03*
X006379Y003465D03*
X006694Y003465D03*
X007009Y003465D03*
X007324Y003465D03*
D17*
X008466Y003465D03*
X008466Y001300D03*
X004922Y001300D03*
X004922Y003465D03*
D18*
X005828Y002481D03*
X007560Y002481D03*
D19*
X003874Y002195D03*
X003874Y001447D03*
X008594Y009207D03*
X008594Y009955D03*
X003314Y012007D03*
X003314Y012755D03*
X003314Y013767D03*
X003314Y014515D03*
X003314Y015607D03*
X003314Y016355D03*
D20*
X006140Y009021D03*
X006888Y009021D03*
X003829Y004533D03*
X003081Y004533D03*
D21*
X003434Y006401D03*
X003434Y010201D03*
D22*
X004994Y007015D03*
X004994Y006227D03*
X003234Y017187D03*
X003234Y017975D03*
D23*
X003128Y003534D03*
X002754Y002668D03*
X002380Y003534D03*
D24*
X004981Y005421D03*
X005807Y005421D03*
M02*
