G75*
G70*
%OFA0B0*%
%FSLAX24Y24*%
%IPPOS*%
%LPD*%
%AMOC8*
5,1,8,0,0,1.08239X$1,22.5*
%
%ADD10C,0.0010*%
%ADD11C,0.0000*%
%ADD12R,0.0433X0.0551*%
%ADD13R,0.0780X0.0220*%
%ADD14R,0.0276X0.0236*%
%ADD15R,0.0197X0.0984*%
%ADD16R,0.0787X0.0984*%
%ADD17R,0.0591X0.0512*%
%ADD18R,0.0512X0.0591*%
%ADD19R,0.0760X0.2100*%
%ADD20R,0.0551X0.0433*%
%ADD21R,0.0394X0.0551*%
%ADD22R,0.0472X0.0472*%
%ADD23C,0.0080*%
%ADD24C,0.0240*%
%ADD25C,0.0100*%
D10*
X001794Y001371D02*
X001794Y018596D01*
X001794Y001371D02*
X002251Y001141D01*
X002720Y000934D01*
X003198Y000750D01*
X003685Y000590D01*
X004179Y000453D01*
X004679Y000341D01*
X005183Y000254D01*
X005692Y000191D01*
X006203Y000154D01*
X006715Y000141D01*
X007227Y000154D01*
X007738Y000191D01*
X008247Y000254D01*
X008751Y000341D01*
X009251Y000453D01*
X009745Y000590D01*
X010232Y000750D01*
X010710Y000934D01*
X011179Y001141D01*
X011636Y001371D01*
X011637Y001371D02*
X011637Y018596D01*
X011636Y018596D02*
X011179Y018826D01*
X010710Y019033D01*
X010232Y019217D01*
X009745Y019377D01*
X009251Y019514D01*
X008751Y019626D01*
X008247Y019713D01*
X007738Y019776D01*
X007227Y019813D01*
X006715Y019826D01*
X006203Y019813D01*
X005692Y019776D01*
X005183Y019713D01*
X004679Y019626D01*
X004179Y019514D01*
X003685Y019377D01*
X003198Y019217D01*
X002720Y019033D01*
X002251Y018826D01*
X001794Y018596D01*
D11*
X006143Y019041D02*
X006145Y019088D01*
X006151Y019134D01*
X006161Y019180D01*
X006174Y019225D01*
X006192Y019268D01*
X006213Y019310D01*
X006237Y019350D01*
X006265Y019387D01*
X006296Y019422D01*
X006330Y019455D01*
X006366Y019484D01*
X006405Y019510D01*
X006446Y019533D01*
X006489Y019552D01*
X006533Y019568D01*
X006578Y019580D01*
X006624Y019588D01*
X006671Y019592D01*
X006717Y019592D01*
X006764Y019588D01*
X006810Y019580D01*
X006855Y019568D01*
X006899Y019552D01*
X006942Y019533D01*
X006983Y019510D01*
X007022Y019484D01*
X007058Y019455D01*
X007092Y019422D01*
X007123Y019387D01*
X007151Y019350D01*
X007175Y019310D01*
X007196Y019268D01*
X007214Y019225D01*
X007227Y019180D01*
X007237Y019134D01*
X007243Y019088D01*
X007245Y019041D01*
X007243Y018994D01*
X007237Y018948D01*
X007227Y018902D01*
X007214Y018857D01*
X007196Y018814D01*
X007175Y018772D01*
X007151Y018732D01*
X007123Y018695D01*
X007092Y018660D01*
X007058Y018627D01*
X007022Y018598D01*
X006983Y018572D01*
X006942Y018549D01*
X006899Y018530D01*
X006855Y018514D01*
X006810Y018502D01*
X006764Y018494D01*
X006717Y018490D01*
X006671Y018490D01*
X006624Y018494D01*
X006578Y018502D01*
X006533Y018514D01*
X006489Y018530D01*
X006446Y018549D01*
X006405Y018572D01*
X006366Y018598D01*
X006330Y018627D01*
X006296Y018660D01*
X006265Y018695D01*
X006237Y018732D01*
X006213Y018772D01*
X006192Y018814D01*
X006174Y018857D01*
X006161Y018902D01*
X006151Y018948D01*
X006145Y018994D01*
X006143Y019041D01*
X005651Y002481D02*
X005653Y002507D01*
X005659Y002533D01*
X005669Y002558D01*
X005682Y002581D01*
X005698Y002601D01*
X005718Y002619D01*
X005740Y002634D01*
X005763Y002646D01*
X005789Y002654D01*
X005815Y002658D01*
X005841Y002658D01*
X005867Y002654D01*
X005893Y002646D01*
X005917Y002634D01*
X005938Y002619D01*
X005958Y002601D01*
X005974Y002581D01*
X005987Y002558D01*
X005997Y002533D01*
X006003Y002507D01*
X006005Y002481D01*
X006003Y002455D01*
X005997Y002429D01*
X005987Y002404D01*
X005974Y002381D01*
X005958Y002361D01*
X005938Y002343D01*
X005916Y002328D01*
X005893Y002316D01*
X005867Y002308D01*
X005841Y002304D01*
X005815Y002304D01*
X005789Y002308D01*
X005763Y002316D01*
X005739Y002328D01*
X005718Y002343D01*
X005698Y002361D01*
X005682Y002381D01*
X005669Y002404D01*
X005659Y002429D01*
X005653Y002455D01*
X005651Y002481D01*
X007383Y002481D02*
X007385Y002507D01*
X007391Y002533D01*
X007401Y002558D01*
X007414Y002581D01*
X007430Y002601D01*
X007450Y002619D01*
X007472Y002634D01*
X007495Y002646D01*
X007521Y002654D01*
X007547Y002658D01*
X007573Y002658D01*
X007599Y002654D01*
X007625Y002646D01*
X007649Y002634D01*
X007670Y002619D01*
X007690Y002601D01*
X007706Y002581D01*
X007719Y002558D01*
X007729Y002533D01*
X007735Y002507D01*
X007737Y002481D01*
X007735Y002455D01*
X007729Y002429D01*
X007719Y002404D01*
X007706Y002381D01*
X007690Y002361D01*
X007670Y002343D01*
X007648Y002328D01*
X007625Y002316D01*
X007599Y002308D01*
X007573Y002304D01*
X007547Y002304D01*
X007521Y002308D01*
X007495Y002316D01*
X007471Y002328D01*
X007450Y002343D01*
X007430Y002361D01*
X007414Y002381D01*
X007401Y002404D01*
X007391Y002429D01*
X007385Y002455D01*
X007383Y002481D01*
D12*
X010013Y006293D03*
X010800Y006293D03*
X010800Y007523D03*
X010800Y008753D03*
X010800Y009984D03*
X010013Y009984D03*
X010013Y008753D03*
X010013Y007523D03*
X010013Y011214D03*
X010800Y011214D03*
X010800Y012444D03*
X010800Y013675D03*
X010800Y014905D03*
X010800Y016135D03*
X010800Y017366D03*
X010013Y017366D03*
X010013Y016135D03*
X010013Y014905D03*
X010013Y013675D03*
X010013Y012444D03*
D13*
X007894Y012391D03*
X007894Y012891D03*
X007894Y013391D03*
X007894Y013891D03*
X007894Y014391D03*
X007894Y014891D03*
X007894Y015391D03*
X007894Y015891D03*
X007894Y016391D03*
X007894Y016891D03*
X007894Y017391D03*
X007894Y011891D03*
X007894Y011391D03*
X007894Y010891D03*
X004334Y010891D03*
X004334Y011391D03*
X004334Y011891D03*
X004334Y012391D03*
X004334Y012891D03*
X004334Y013391D03*
X004334Y013891D03*
X004334Y014391D03*
X004334Y014891D03*
X004334Y015391D03*
X004334Y015891D03*
X004334Y016391D03*
X004334Y016891D03*
X004334Y017391D03*
D14*
X004785Y010073D03*
X004785Y009325D03*
X004772Y008134D03*
X005560Y008508D03*
X005560Y007760D03*
X006494Y007284D03*
X006494Y006536D03*
X007282Y006910D03*
X008725Y005027D03*
X008725Y004279D03*
X009513Y004653D03*
X005572Y009699D03*
D15*
X006064Y003465D03*
X006379Y003465D03*
X006694Y003465D03*
X007009Y003465D03*
X007324Y003465D03*
D16*
X008466Y003465D03*
X008466Y001300D03*
X004922Y001300D03*
X004922Y003465D03*
D17*
X003874Y002195D03*
X003874Y001447D03*
X008594Y009207D03*
X008594Y009955D03*
X003314Y012007D03*
X003314Y012755D03*
X003314Y013767D03*
X003314Y014515D03*
X003314Y015607D03*
X003314Y016355D03*
D18*
X006140Y009021D03*
X006888Y009021D03*
X003829Y004533D03*
X003081Y004533D03*
D19*
X003434Y006401D03*
X003434Y010201D03*
D20*
X004994Y007015D03*
X004994Y006227D03*
X003234Y017187D03*
X003234Y017975D03*
D21*
X003128Y003534D03*
X002754Y002668D03*
X002380Y003534D03*
D22*
X004981Y005421D03*
X005807Y005421D03*
D23*
X005767Y005404D02*
X005337Y005404D01*
X005337Y005482D02*
X005431Y005482D01*
X005431Y005461D02*
X005767Y005461D01*
X005767Y005381D01*
X005431Y005381D01*
X005431Y005166D01*
X005441Y005131D01*
X005459Y005099D01*
X005485Y005073D01*
X005517Y005054D01*
X005553Y005045D01*
X005767Y005045D01*
X005767Y005381D01*
X005847Y005381D01*
X005847Y005045D01*
X006062Y005045D01*
X006098Y005054D01*
X006130Y005073D01*
X006156Y005099D01*
X006174Y005131D01*
X006184Y005166D01*
X006184Y005381D01*
X005848Y005381D01*
X005848Y005461D01*
X006184Y005461D01*
X006184Y005676D01*
X006174Y005711D01*
X006156Y005743D01*
X006130Y005769D01*
X006098Y005788D01*
X006062Y005797D01*
X005847Y005797D01*
X005847Y005461D01*
X005767Y005461D01*
X005767Y005797D01*
X005553Y005797D01*
X005517Y005788D01*
X005485Y005769D01*
X005459Y005743D01*
X005441Y005711D01*
X005431Y005676D01*
X005431Y005461D01*
X005431Y005561D02*
X005337Y005561D01*
X005337Y005639D02*
X005431Y005639D01*
X005444Y005718D02*
X005326Y005718D01*
X005337Y005707D02*
X005267Y005777D01*
X005154Y005777D01*
X005154Y005891D01*
X005319Y005891D01*
X005390Y005961D01*
X005390Y006494D01*
X005319Y006564D01*
X004669Y006564D01*
X004598Y006494D01*
X004598Y005961D01*
X004669Y005891D01*
X004834Y005891D01*
X004834Y005777D01*
X004695Y005777D01*
X004624Y005707D01*
X004624Y005135D01*
X004695Y005065D01*
X005267Y005065D01*
X005337Y005135D01*
X005337Y005707D01*
X005382Y005953D02*
X007554Y005953D01*
X007554Y005875D02*
X005154Y005875D01*
X005154Y005796D02*
X005549Y005796D01*
X005767Y005796D02*
X005847Y005796D01*
X005847Y005718D02*
X005767Y005718D01*
X005767Y005639D02*
X005847Y005639D01*
X005847Y005561D02*
X005767Y005561D01*
X005767Y005482D02*
X005847Y005482D01*
X005848Y005404D02*
X007554Y005404D01*
X007554Y005482D02*
X006184Y005482D01*
X006184Y005561D02*
X007554Y005561D01*
X007554Y005639D02*
X006184Y005639D01*
X006170Y005718D02*
X007554Y005718D01*
X007554Y005796D02*
X006066Y005796D01*
X006302Y006287D02*
X006338Y006277D01*
X006475Y006277D01*
X006475Y006516D01*
X006513Y006516D01*
X006513Y006277D01*
X006650Y006277D01*
X006686Y006287D01*
X006718Y006305D01*
X006744Y006331D01*
X006762Y006363D01*
X006772Y006399D01*
X006772Y006516D01*
X006514Y006516D01*
X006514Y006555D01*
X006772Y006555D01*
X006772Y006672D01*
X006762Y006708D01*
X006744Y006740D01*
X006718Y006766D01*
X006686Y006784D01*
X006650Y006794D01*
X006513Y006794D01*
X006513Y006555D01*
X006475Y006555D01*
X006475Y006794D01*
X006338Y006794D01*
X006302Y006784D01*
X006270Y006766D01*
X006244Y006740D01*
X006226Y006708D01*
X006216Y006672D01*
X006216Y006555D01*
X006475Y006555D01*
X006475Y006516D01*
X006216Y006516D01*
X006216Y006399D01*
X006226Y006363D01*
X006244Y006331D01*
X006270Y006305D01*
X006302Y006287D01*
X006236Y006346D02*
X005390Y006346D01*
X005390Y006267D02*
X007554Y006267D01*
X007554Y006189D02*
X005390Y006189D01*
X005390Y006110D02*
X007554Y006110D01*
X007554Y006032D02*
X005390Y006032D01*
X005390Y006425D02*
X006216Y006425D01*
X006216Y006503D02*
X005380Y006503D01*
X005319Y006678D02*
X005390Y006749D01*
X005390Y007281D01*
X005319Y007351D01*
X004669Y007351D01*
X004598Y007281D01*
X004598Y007175D01*
X004124Y007175D01*
X004124Y007421D01*
X005315Y007421D01*
X005447Y007421D01*
X005548Y007522D01*
X005747Y007522D01*
X005818Y007592D01*
X005818Y007928D01*
X005747Y007998D01*
X005372Y007998D01*
X005302Y007928D01*
X005302Y007741D01*
X004220Y007741D01*
X003940Y008021D01*
X003808Y008021D01*
X003460Y008021D01*
X003434Y008047D01*
X003434Y008555D01*
X003460Y008581D01*
X003815Y008581D01*
X003751Y008517D01*
X003714Y008429D01*
X003714Y008333D01*
X003751Y008245D01*
X003818Y008178D01*
X003906Y008141D01*
X004002Y008141D01*
X004029Y008152D01*
X004340Y007995D01*
X004371Y007964D01*
X004400Y007964D01*
X004427Y007950D01*
X004468Y007964D01*
X004517Y007964D01*
X004585Y007896D01*
X004960Y007896D01*
X005030Y007966D01*
X005030Y008302D01*
X004960Y008372D01*
X004585Y008372D01*
X004517Y008304D01*
X004482Y008304D01*
X004183Y008456D01*
X004157Y008517D01*
X004090Y008585D01*
X004043Y008604D01*
X004049Y008610D01*
X004472Y008821D01*
X004500Y008821D01*
X004529Y008850D01*
X004565Y008868D01*
X004574Y008895D01*
X004594Y008915D01*
X004594Y008955D01*
X004607Y008993D01*
X004594Y009019D01*
X004594Y009076D01*
X004628Y009066D01*
X004765Y009066D01*
X004765Y009305D01*
X004804Y009305D01*
X004804Y009066D01*
X004941Y009066D01*
X004976Y009076D01*
X005008Y009094D01*
X005034Y009120D01*
X005053Y009152D01*
X005062Y009188D01*
X005062Y009305D01*
X004804Y009305D01*
X004804Y009344D01*
X004765Y009344D01*
X004765Y009583D01*
X004628Y009583D01*
X004594Y009573D01*
X004594Y009838D01*
X004597Y009834D01*
X004972Y009834D01*
X005042Y009905D01*
X005042Y010240D01*
X004981Y010302D01*
X005140Y010461D01*
X005234Y010555D01*
X005234Y011675D01*
X005234Y011807D01*
X005074Y011967D01*
X005026Y012016D01*
X005314Y011827D01*
X005314Y011813D01*
X005351Y011725D01*
X005418Y011658D01*
X005506Y011621D01*
X005602Y011621D01*
X005690Y011658D01*
X005757Y011725D01*
X005794Y011813D01*
X005794Y011909D01*
X005757Y011997D01*
X005690Y012065D01*
X005602Y012101D01*
X005506Y012101D01*
X005490Y012094D01*
X004845Y012516D01*
X004844Y012517D01*
X004844Y012551D01*
X006634Y012551D01*
X006634Y012629D02*
X004029Y012629D01*
X004020Y012621D02*
X004060Y012661D01*
X004774Y012661D01*
X004844Y012731D01*
X004844Y013051D01*
X004774Y013121D01*
X003894Y013121D01*
X003824Y013051D01*
X003824Y012877D01*
X003749Y012803D01*
X003749Y013029D01*
X003740Y013065D01*
X003721Y013097D01*
X003695Y013123D01*
X003663Y013141D01*
X003628Y013151D01*
X003354Y013151D01*
X003354Y012795D01*
X003274Y012795D01*
X003274Y013151D01*
X003000Y013151D01*
X002994Y013149D01*
X002994Y013355D01*
X003030Y013391D01*
X003438Y013391D01*
X003598Y013231D01*
X003685Y013231D01*
X003749Y013231D01*
X003749Y013231D01*
X003750Y013231D01*
X003824Y013231D01*
X003894Y013161D01*
X004774Y013161D01*
X004844Y013231D01*
X004844Y013551D01*
X004774Y013621D01*
X003894Y013621D01*
X003824Y013551D01*
X003751Y013551D01*
X003729Y013573D01*
X003729Y014073D01*
X003670Y014132D01*
X003695Y014147D01*
X003721Y014173D01*
X003740Y014205D01*
X003749Y014241D01*
X003749Y014475D01*
X003354Y014475D01*
X003354Y014555D01*
X003749Y014555D01*
X003749Y014731D01*
X003824Y014731D01*
X003894Y014661D01*
X004774Y014661D01*
X004844Y014731D01*
X004844Y015051D01*
X004774Y015121D01*
X003914Y015121D01*
X003914Y015161D01*
X004774Y015161D01*
X004844Y015231D01*
X004844Y015551D01*
X004774Y015621D01*
X003914Y015621D01*
X003914Y015661D01*
X004774Y015661D01*
X004844Y015731D01*
X004844Y015981D01*
X005328Y015981D01*
X007154Y014155D01*
X007154Y013567D01*
X007154Y013435D01*
X007234Y013355D01*
X007328Y013261D01*
X007384Y013261D01*
X007384Y013231D01*
X007454Y013161D01*
X008334Y013161D01*
X008344Y013171D01*
X008344Y013128D01*
X008338Y013132D01*
X008302Y013141D01*
X007909Y013141D01*
X007909Y012906D01*
X007879Y012906D01*
X007879Y012876D01*
X007909Y012876D01*
X007909Y012641D01*
X008302Y012641D01*
X008338Y012651D01*
X008344Y012654D01*
X008344Y012611D01*
X008334Y012621D01*
X007454Y012621D01*
X007384Y012551D01*
X006954Y012551D01*
X006954Y012629D02*
X008344Y012629D01*
X008684Y012629D02*
X008714Y012629D01*
X008714Y012551D02*
X008684Y012551D01*
X008684Y012472D02*
X008714Y012472D01*
X008714Y012394D02*
X008684Y012394D01*
X008684Y012315D02*
X008714Y012315D01*
X008714Y012237D02*
X008684Y012237D01*
X008684Y012158D02*
X008714Y012158D01*
X008714Y012080D02*
X008684Y012080D01*
X008684Y012001D02*
X008714Y012001D01*
X008714Y011923D02*
X008684Y011923D01*
X008684Y011844D02*
X008714Y011844D01*
X008714Y011835D02*
X008808Y011741D01*
X008874Y011675D01*
X008874Y010675D01*
X008968Y010581D01*
X009034Y010515D01*
X009034Y009755D01*
X009009Y009780D01*
X009009Y010261D01*
X008939Y010331D01*
X008684Y010331D01*
X008684Y012825D01*
X008714Y012795D01*
X008714Y011835D01*
X008684Y011766D02*
X008783Y011766D01*
X008862Y011687D02*
X008684Y011687D01*
X008684Y011608D02*
X008874Y011608D01*
X008874Y011530D02*
X008684Y011530D01*
X008684Y011451D02*
X008874Y011451D01*
X008874Y011373D02*
X008684Y011373D01*
X008684Y011294D02*
X008874Y011294D01*
X008874Y011216D02*
X008684Y011216D01*
X008684Y011137D02*
X008874Y011137D01*
X008874Y011059D02*
X008684Y011059D01*
X008684Y010980D02*
X008874Y010980D01*
X008874Y010902D02*
X008684Y010902D01*
X008684Y010823D02*
X008874Y010823D01*
X008874Y010744D02*
X008684Y010744D01*
X008684Y010666D02*
X008883Y010666D01*
X008961Y010587D02*
X008684Y010587D01*
X008684Y010509D02*
X009034Y010509D01*
X009034Y010430D02*
X008684Y010430D01*
X008684Y010352D02*
X009034Y010352D01*
X009034Y010273D02*
X008997Y010273D01*
X009009Y010195D02*
X009034Y010195D01*
X009034Y010116D02*
X009009Y010116D01*
X009009Y010038D02*
X009034Y010038D01*
X009034Y009959D02*
X009009Y009959D01*
X009009Y009880D02*
X009034Y009880D01*
X009034Y009802D02*
X009009Y009802D01*
X009194Y009821D02*
X009194Y010581D01*
X009034Y010741D01*
X009034Y011741D01*
X008874Y011901D01*
X008874Y012861D01*
X008714Y013021D01*
X008714Y013741D01*
X008564Y013891D01*
X007894Y013891D01*
X007864Y013421D02*
X007894Y013391D01*
X007864Y013421D02*
X007394Y013421D01*
X007314Y013501D01*
X007314Y014221D01*
X005394Y016141D01*
X003794Y016141D01*
X003754Y016181D01*
X003754Y016661D01*
X003234Y017181D01*
X003234Y017187D01*
X003338Y016851D02*
X003458Y016731D01*
X002969Y016731D01*
X002899Y016661D01*
X002899Y016049D01*
X002958Y015990D01*
X002933Y015975D01*
X002907Y015949D01*
X002888Y015917D01*
X002879Y015881D01*
X002879Y015647D01*
X003274Y015647D01*
X003274Y015567D01*
X003354Y015567D01*
X003354Y015211D01*
X003594Y015211D01*
X003594Y014911D01*
X003354Y014911D01*
X003354Y014555D01*
X003274Y014555D01*
X003274Y014475D01*
X002879Y014475D01*
X002879Y014241D01*
X002888Y014205D01*
X002907Y014173D01*
X002933Y014147D01*
X002958Y014132D01*
X002899Y014073D01*
X002899Y013712D01*
X002768Y013581D01*
X002674Y013487D01*
X002674Y007807D01*
X002674Y007675D01*
X002934Y007415D01*
X002934Y005301D01*
X003004Y005231D01*
X003864Y005231D01*
X003924Y005291D01*
X003954Y005261D01*
X003954Y005213D01*
X003991Y005125D01*
X004058Y005058D01*
X004146Y005021D01*
X004242Y005021D01*
X004330Y005058D01*
X004397Y005125D01*
X004434Y005213D01*
X004434Y005309D01*
X004397Y005397D01*
X004330Y005465D01*
X004242Y005501D01*
X004194Y005501D01*
X004124Y005571D01*
X004124Y006855D01*
X004598Y006855D01*
X004598Y006749D01*
X004669Y006678D01*
X005319Y006678D01*
X005380Y006739D02*
X006244Y006739D01*
X006216Y006660D02*
X004124Y006660D01*
X004124Y006582D02*
X006216Y006582D01*
X006475Y006582D02*
X006513Y006582D01*
X006513Y006660D02*
X006475Y006660D01*
X006475Y006739D02*
X006513Y006739D01*
X006513Y006503D02*
X006475Y006503D01*
X006475Y006425D02*
X006513Y006425D01*
X006513Y006346D02*
X006475Y006346D01*
X006752Y006346D02*
X007554Y006346D01*
X007554Y006425D02*
X006772Y006425D01*
X006772Y006503D02*
X007554Y006503D01*
X007554Y006582D02*
X006772Y006582D01*
X006772Y006660D02*
X007554Y006660D01*
X007554Y006739D02*
X007536Y006739D01*
X007539Y006742D02*
X007469Y006671D01*
X007094Y006671D01*
X007058Y006708D01*
X007042Y006701D01*
X006946Y006701D01*
X006858Y006738D01*
X006791Y006805D01*
X006754Y006893D01*
X006754Y006989D01*
X006791Y007077D01*
X006858Y007145D01*
X006946Y007181D01*
X007042Y007181D01*
X007122Y007148D01*
X007469Y007148D01*
X007539Y007077D01*
X007539Y006742D01*
X007539Y006817D02*
X007554Y006817D01*
X007554Y006896D02*
X007539Y006896D01*
X007539Y006974D02*
X007554Y006974D01*
X007554Y007053D02*
X007539Y007053D01*
X007554Y007131D02*
X007485Y007131D01*
X007554Y007210D02*
X007191Y007210D01*
X007210Y007218D02*
X007253Y007261D01*
X007554Y007261D01*
X007554Y004928D01*
X007498Y004905D01*
X007431Y004837D01*
X007394Y004749D01*
X007394Y004653D01*
X007431Y004565D01*
X007498Y004498D01*
X007586Y004461D01*
X007682Y004461D01*
X007770Y004498D01*
X007834Y004562D01*
X007898Y004498D01*
X007986Y004461D01*
X008082Y004461D01*
X008170Y004498D01*
X008237Y004565D01*
X008274Y004653D01*
X008274Y004749D01*
X008237Y004837D01*
X008170Y004905D01*
X008113Y004928D01*
X008034Y005007D01*
X008034Y010661D01*
X008334Y010661D01*
X008344Y010671D01*
X008344Y010331D01*
X008249Y010331D01*
X008179Y010261D01*
X008179Y009649D01*
X008238Y009590D01*
X008213Y009575D01*
X008187Y009549D01*
X008168Y009517D01*
X008159Y009481D01*
X008159Y009247D01*
X008554Y009247D01*
X008554Y009167D01*
X008634Y009167D01*
X008634Y008811D01*
X008904Y008811D01*
X008904Y007290D01*
X008890Y007305D01*
X008802Y007341D01*
X008706Y007341D01*
X008618Y007305D01*
X008551Y007237D01*
X008514Y007149D01*
X008514Y007053D01*
X008034Y007053D01*
X008034Y007131D02*
X008514Y007131D01*
X008514Y007053D02*
X008551Y006965D01*
X008594Y006922D01*
X008594Y005265D01*
X008538Y005265D01*
X008467Y005194D01*
X008467Y004859D01*
X008538Y004789D01*
X008913Y004789D01*
X008983Y004859D01*
X008983Y005194D01*
X008914Y005263D01*
X008914Y006141D01*
X010034Y005021D01*
X010034Y004973D01*
X010071Y004885D01*
X010138Y004818D01*
X010150Y004813D01*
X009770Y004813D01*
X009770Y004820D01*
X009700Y004891D01*
X009325Y004891D01*
X009255Y004820D01*
X009255Y004485D01*
X009325Y004414D01*
X009700Y004414D01*
X009770Y004485D01*
X009770Y004493D01*
X010870Y004493D01*
X010946Y004461D01*
X011042Y004461D01*
X011130Y004498D01*
X011197Y004565D01*
X011234Y004653D01*
X011234Y004749D01*
X011197Y004837D01*
X011130Y004905D01*
X011042Y004941D01*
X010946Y004941D01*
X010858Y004905D01*
X010791Y004837D01*
X010780Y004813D01*
X010398Y004813D01*
X010410Y004818D01*
X010477Y004885D01*
X010514Y004973D01*
X010514Y005069D01*
X010477Y005157D01*
X010410Y005225D01*
X010322Y005261D01*
X010274Y005261D01*
X009244Y006291D01*
X009244Y008345D01*
X009288Y008301D01*
X009648Y007941D01*
X009780Y007941D01*
X010128Y007941D01*
X010150Y007919D01*
X009746Y007919D01*
X009676Y007848D01*
X009676Y007762D01*
X009673Y007763D01*
X009577Y007763D01*
X009489Y007726D01*
X009422Y007659D01*
X009385Y007571D01*
X009385Y007475D01*
X009422Y007387D01*
X009489Y007320D01*
X009577Y007283D01*
X009673Y007283D01*
X009676Y007284D01*
X009676Y007198D01*
X009746Y007127D01*
X010234Y007127D01*
X010234Y006955D01*
X010328Y006861D01*
X010517Y006672D01*
X010463Y006618D01*
X010463Y005967D01*
X010534Y005897D01*
X010832Y005897D01*
X010793Y005881D01*
X010726Y005813D01*
X010689Y005725D01*
X010689Y005630D01*
X010726Y005542D01*
X010793Y005474D01*
X010881Y005438D01*
X010977Y005438D01*
X011065Y005474D01*
X011109Y005518D01*
X011254Y005518D01*
X011347Y005611D01*
X011347Y005744D01*
X011347Y006842D01*
X011347Y006974D01*
X011347Y008072D01*
X011347Y008204D01*
X011347Y009302D01*
X011347Y009435D01*
X011347Y010532D01*
X011347Y010665D01*
X011347Y011763D01*
X011347Y011895D01*
X011347Y012993D01*
X011347Y013126D01*
X011347Y014223D01*
X011347Y014356D01*
X011347Y015454D01*
X011347Y015586D01*
X011347Y016817D01*
X011254Y016910D01*
X011121Y016910D01*
X011109Y016910D01*
X011065Y016954D01*
X011026Y016970D01*
X011066Y016970D01*
X011136Y017040D01*
X011136Y017691D01*
X011066Y017761D01*
X010873Y017761D01*
X010877Y017765D01*
X010914Y017853D01*
X010914Y017949D01*
X010877Y018037D01*
X010810Y018105D01*
X010722Y018141D01*
X010626Y018141D01*
X010538Y018105D01*
X010537Y018104D01*
X010460Y018181D01*
X010340Y018301D01*
X010208Y018301D01*
X009808Y018301D01*
X009714Y018207D01*
X009648Y018141D01*
X006288Y018141D01*
X006194Y018047D01*
X005248Y017101D01*
X004794Y017101D01*
X004774Y017121D01*
X003894Y017121D01*
X003824Y017051D01*
X003824Y016817D01*
X003820Y016821D01*
X003630Y017012D01*
X003630Y017454D01*
X003559Y017524D01*
X002909Y017524D01*
X002838Y017454D01*
X002838Y016921D01*
X002909Y016851D01*
X003338Y016851D01*
X003397Y016792D02*
X002649Y016792D01*
X002649Y016798D02*
X002613Y016886D01*
X002545Y016954D01*
X002457Y016990D01*
X002361Y016990D01*
X002273Y016954D01*
X002230Y016910D01*
X002229Y016910D01*
X002097Y016910D01*
X002003Y016817D01*
X002003Y015586D01*
X002003Y015454D01*
X002003Y014356D01*
X002003Y014223D01*
X002003Y013126D01*
X002003Y012993D01*
X002003Y011895D01*
X002003Y011763D01*
X002003Y010665D01*
X002003Y010532D01*
X002003Y009435D01*
X002003Y009302D01*
X002003Y008204D01*
X002003Y008072D01*
X002003Y006842D01*
X002003Y005611D01*
X002003Y005498D01*
X002003Y005365D01*
X002097Y005271D01*
X002352Y005271D01*
X002446Y005365D01*
X002446Y005438D01*
X002457Y005438D01*
X002545Y005474D01*
X002613Y005542D01*
X002649Y005630D01*
X002649Y005725D01*
X002613Y005813D01*
X002545Y005881D01*
X002457Y005917D01*
X002361Y005917D01*
X002323Y005902D01*
X002323Y006684D01*
X002361Y006668D01*
X002457Y006668D01*
X002545Y006704D01*
X002613Y006772D01*
X002649Y006860D01*
X002649Y006956D01*
X002613Y007044D01*
X002545Y007111D01*
X002457Y007148D01*
X002361Y007148D01*
X002323Y007132D01*
X002323Y007914D01*
X002361Y007898D01*
X002457Y007898D01*
X002545Y007935D01*
X002613Y008002D01*
X002649Y008090D01*
X002649Y008186D01*
X002613Y008274D01*
X002545Y008342D01*
X002457Y008378D01*
X002361Y008378D01*
X002323Y008362D01*
X002323Y009144D01*
X002361Y009128D01*
X002457Y009128D01*
X002545Y009165D01*
X002613Y009232D01*
X002649Y009321D01*
X002649Y009416D01*
X002613Y009504D01*
X002545Y009572D01*
X002457Y009608D01*
X002361Y009608D01*
X002323Y009593D01*
X002323Y010375D01*
X002361Y010359D01*
X002457Y010359D01*
X002545Y010395D01*
X002613Y010463D01*
X002649Y010551D01*
X002649Y010646D01*
X002613Y010735D01*
X002545Y010802D01*
X002457Y010839D01*
X002361Y010839D01*
X002323Y010823D01*
X002323Y010823D01*
X002323Y011605D01*
X002361Y011589D01*
X002457Y011589D01*
X002545Y011626D01*
X002613Y011693D01*
X002649Y011781D01*
X002649Y011877D01*
X002613Y011965D01*
X002545Y012033D01*
X002457Y012069D01*
X002361Y012069D01*
X002323Y012053D01*
X002323Y012835D01*
X002361Y012819D01*
X002457Y012819D01*
X002545Y012856D01*
X002613Y012923D01*
X002649Y013012D01*
X002649Y013107D01*
X002613Y013195D01*
X002545Y013263D01*
X002457Y013299D01*
X002361Y013299D01*
X002323Y013283D01*
X002323Y014066D01*
X002361Y014050D01*
X002457Y014050D01*
X002545Y014086D01*
X002613Y014154D01*
X002649Y014242D01*
X002649Y014337D01*
X002613Y014426D01*
X002545Y014493D01*
X002457Y014530D01*
X002361Y014530D01*
X002323Y014514D01*
X002323Y015296D01*
X002361Y015280D01*
X002457Y015280D01*
X002545Y015317D01*
X002613Y015384D01*
X002649Y015472D01*
X002649Y015568D01*
X002613Y015656D01*
X002545Y015723D01*
X002457Y015760D01*
X002361Y015760D01*
X002323Y015744D01*
X002323Y016526D01*
X002361Y016510D01*
X002457Y016510D01*
X002545Y016547D01*
X002613Y016614D01*
X002649Y016703D01*
X002649Y016798D01*
X002619Y016871D02*
X002889Y016871D01*
X002838Y016949D02*
X002550Y016949D01*
X002409Y016750D02*
X002163Y016750D01*
X002163Y015520D01*
X002409Y015520D01*
X002505Y015300D02*
X002887Y015300D01*
X002888Y015297D02*
X002907Y015265D01*
X002933Y015239D01*
X002965Y015221D01*
X003000Y015211D01*
X003274Y015211D01*
X003274Y015567D01*
X002879Y015567D01*
X002879Y015333D01*
X002888Y015297D01*
X002879Y015379D02*
X002607Y015379D01*
X002643Y015457D02*
X002879Y015457D01*
X002879Y015536D02*
X002649Y015536D01*
X002630Y015614D02*
X003274Y015614D01*
X003274Y015536D02*
X003354Y015536D01*
X003354Y015457D02*
X003274Y015457D01*
X003274Y015379D02*
X003354Y015379D01*
X003354Y015300D02*
X003274Y015300D01*
X003274Y015221D02*
X003354Y015221D01*
X003594Y015143D02*
X002323Y015143D01*
X002323Y015221D02*
X002963Y015221D01*
X003000Y014911D02*
X002965Y014901D01*
X002933Y014883D01*
X002907Y014857D01*
X002888Y014825D01*
X002879Y014789D01*
X002879Y014555D01*
X003274Y014555D01*
X003274Y014911D01*
X003000Y014911D01*
X002986Y014907D02*
X002323Y014907D01*
X002323Y014829D02*
X002890Y014829D01*
X002879Y014750D02*
X002323Y014750D01*
X002323Y014672D02*
X002879Y014672D01*
X002879Y014593D02*
X002323Y014593D01*
X002323Y014515D02*
X002325Y014515D01*
X002409Y014290D02*
X002163Y014290D01*
X002163Y015520D01*
X002003Y015536D02*
X001939Y015536D01*
X001939Y015614D02*
X002003Y015614D01*
X002003Y015693D02*
X001939Y015693D01*
X001939Y015771D02*
X002003Y015771D01*
X002003Y015850D02*
X001939Y015850D01*
X001939Y015928D02*
X002003Y015928D01*
X002003Y016007D02*
X001939Y016007D01*
X001939Y016085D02*
X002003Y016085D01*
X002003Y016164D02*
X001939Y016164D01*
X001939Y016242D02*
X002003Y016242D01*
X002003Y016321D02*
X001939Y016321D01*
X001939Y016400D02*
X002003Y016400D01*
X002003Y016478D02*
X001939Y016478D01*
X001939Y016557D02*
X002003Y016557D01*
X002003Y016635D02*
X001939Y016635D01*
X001939Y016714D02*
X002003Y016714D01*
X002003Y016792D02*
X001939Y016792D01*
X001939Y016871D02*
X002057Y016871D01*
X001939Y016949D02*
X002269Y016949D01*
X002323Y016478D02*
X002899Y016478D01*
X002899Y016400D02*
X002323Y016400D01*
X002323Y016321D02*
X002899Y016321D01*
X002899Y016242D02*
X002323Y016242D01*
X002323Y016164D02*
X002899Y016164D01*
X002899Y016085D02*
X002323Y016085D01*
X002323Y016007D02*
X002941Y016007D01*
X002895Y015928D02*
X002323Y015928D01*
X002323Y015850D02*
X002879Y015850D01*
X002879Y015771D02*
X002323Y015771D01*
X002576Y015693D02*
X002879Y015693D01*
X003314Y016355D02*
X003754Y015941D01*
X003754Y014941D01*
X003804Y014891D01*
X004334Y014891D01*
X004334Y014391D02*
X006584Y014391D01*
X006794Y014181D01*
X006794Y010821D01*
X007394Y010221D01*
X007394Y007981D01*
X007154Y007741D01*
X006952Y007741D01*
X006494Y007284D01*
X006506Y007522D02*
X006307Y007522D01*
X006236Y007451D01*
X006236Y007116D01*
X006307Y007045D01*
X006682Y007045D01*
X006752Y007116D01*
X006752Y007315D01*
X006834Y007397D01*
X006834Y007373D01*
X006871Y007285D01*
X006938Y007218D01*
X007026Y007181D01*
X007122Y007181D01*
X007210Y007218D01*
X007074Y007421D02*
X007554Y007421D01*
X007554Y010301D01*
X006994Y010861D01*
X006994Y011741D01*
X007114Y011861D01*
X007279Y011687D02*
X007428Y011687D01*
X007454Y011661D02*
X008334Y011661D01*
X008344Y011671D01*
X008344Y011611D01*
X008334Y011621D01*
X007454Y011621D01*
X007384Y011551D01*
X007384Y011429D01*
X007262Y011341D01*
X007248Y011341D01*
X007210Y011303D01*
X007166Y011272D01*
X007164Y011258D01*
X007154Y011247D01*
X007154Y011194D01*
X007154Y011193D01*
X007154Y011621D01*
X007162Y011621D01*
X007250Y011658D01*
X007317Y011725D01*
X007354Y011813D01*
X007354Y011909D01*
X007317Y011997D01*
X007250Y012065D01*
X007162Y012101D01*
X007066Y012101D01*
X006978Y012065D01*
X006954Y012040D01*
X006954Y014115D01*
X006954Y014247D01*
X006650Y014551D01*
X006518Y014551D01*
X004844Y014551D01*
X004774Y014621D01*
X003894Y014621D01*
X003824Y014551D01*
X003824Y014231D01*
X003894Y014161D01*
X004774Y014161D01*
X004844Y014231D01*
X006518Y014231D01*
X006634Y014115D01*
X006634Y010755D01*
X006728Y010661D01*
X007234Y010155D01*
X007234Y009424D01*
X007230Y009428D01*
X007198Y009447D01*
X007162Y009456D01*
X006928Y009456D01*
X006928Y009061D01*
X006848Y009061D01*
X006848Y009456D01*
X006614Y009456D01*
X006578Y009447D01*
X006546Y009428D01*
X006520Y009402D01*
X006505Y009377D01*
X006446Y009436D01*
X006247Y009436D01*
X006194Y009501D01*
X006194Y009589D01*
X006157Y009677D01*
X006090Y009745D01*
X006002Y009781D01*
X005906Y009781D01*
X005830Y009749D01*
X005830Y009866D01*
X005759Y009937D01*
X005732Y009937D01*
X005732Y010093D01*
X005780Y010141D01*
X005842Y010141D01*
X005930Y010178D01*
X005997Y010245D01*
X006034Y010333D01*
X006034Y010429D01*
X005997Y010517D01*
X005930Y010585D01*
X005842Y010621D01*
X005746Y010621D01*
X005658Y010585D01*
X005591Y010517D01*
X005554Y010429D01*
X005554Y010367D01*
X005412Y010225D01*
X005412Y010093D01*
X005412Y009937D01*
X005384Y009937D01*
X005314Y009866D01*
X005314Y009531D01*
X005384Y009460D01*
X005728Y009460D01*
X005751Y009405D01*
X005777Y009379D01*
X005764Y009366D01*
X005764Y008749D01*
X005752Y008756D01*
X005716Y008766D01*
X005579Y008766D01*
X005579Y008527D01*
X005838Y008527D01*
X005838Y008606D01*
X006446Y008606D01*
X006505Y008666D01*
X006520Y008640D01*
X006546Y008614D01*
X006578Y008595D01*
X006614Y008586D01*
X006848Y008586D01*
X006848Y008981D01*
X006928Y008981D01*
X006928Y008586D01*
X007162Y008586D01*
X007198Y008595D01*
X007230Y008614D01*
X007234Y008618D01*
X007234Y008047D01*
X007088Y007901D01*
X007018Y007901D01*
X006885Y007901D01*
X006506Y007522D01*
X006509Y007524D02*
X005750Y007524D01*
X005818Y007603D02*
X006587Y007603D01*
X006666Y007681D02*
X005818Y007681D01*
X005818Y007760D02*
X006744Y007760D01*
X006823Y007838D02*
X005818Y007838D01*
X005818Y007917D02*
X007104Y007917D01*
X007182Y007995D02*
X005750Y007995D01*
X005716Y008250D02*
X005579Y008250D01*
X005579Y008489D01*
X005579Y008527D01*
X005541Y008527D01*
X005541Y008766D01*
X005404Y008766D01*
X005368Y008756D01*
X005336Y008738D01*
X005310Y008712D01*
X005292Y008680D01*
X005282Y008644D01*
X005282Y008527D01*
X005540Y008527D01*
X005540Y008489D01*
X005282Y008489D01*
X005282Y008371D01*
X005292Y008336D01*
X005310Y008304D01*
X005336Y008278D01*
X005368Y008259D01*
X005404Y008250D01*
X005541Y008250D01*
X005541Y008489D01*
X005579Y008489D01*
X005838Y008489D01*
X005838Y008371D01*
X005828Y008336D01*
X005810Y008304D01*
X005784Y008278D01*
X005752Y008259D01*
X005716Y008250D01*
X005813Y008310D02*
X007234Y008310D01*
X007234Y008388D02*
X005838Y008388D01*
X005838Y008467D02*
X007234Y008467D01*
X007234Y008545D02*
X005838Y008545D01*
X005764Y008781D02*
X004391Y008781D01*
X004548Y008859D02*
X005764Y008859D01*
X005764Y008938D02*
X004594Y008938D01*
X004595Y009016D02*
X005764Y009016D01*
X005764Y009095D02*
X005009Y009095D01*
X005059Y009174D02*
X005764Y009174D01*
X005764Y009252D02*
X005062Y009252D01*
X005062Y009344D02*
X005062Y009461D01*
X005053Y009497D01*
X005034Y009529D01*
X005008Y009555D01*
X004976Y009573D01*
X004941Y009583D01*
X004804Y009583D01*
X004804Y009344D01*
X005062Y009344D01*
X005062Y009409D02*
X005749Y009409D01*
X005764Y009331D02*
X004804Y009331D01*
X004804Y009409D02*
X004765Y009409D01*
X004765Y009488D02*
X004804Y009488D01*
X004804Y009566D02*
X004765Y009566D01*
X004765Y009252D02*
X004804Y009252D01*
X004804Y009174D02*
X004765Y009174D01*
X004765Y009095D02*
X004804Y009095D01*
X005055Y009488D02*
X005357Y009488D01*
X005314Y009566D02*
X004988Y009566D01*
X005018Y009880D02*
X005328Y009880D01*
X005314Y009802D02*
X004594Y009802D01*
X004594Y009723D02*
X005314Y009723D01*
X005314Y009645D02*
X004594Y009645D01*
X004785Y010073D02*
X004785Y010332D01*
X005074Y010621D01*
X005074Y011741D01*
X004914Y011901D01*
X004344Y011901D01*
X004334Y011891D01*
X004334Y011391D02*
X004384Y011341D01*
X004834Y011341D01*
X004914Y011261D01*
X004914Y010701D01*
X004834Y010621D01*
X004594Y010621D01*
X004434Y010461D01*
X004434Y008981D01*
X003954Y008741D01*
X003394Y008741D01*
X003274Y008621D01*
X003274Y007981D01*
X003394Y007861D01*
X003874Y007861D01*
X004154Y007581D01*
X005381Y007581D01*
X005560Y007760D01*
X005472Y007446D02*
X006236Y007446D01*
X006236Y007367D02*
X004124Y007367D01*
X004124Y007289D02*
X004606Y007289D01*
X004598Y007210D02*
X004124Y007210D01*
X003954Y007021D02*
X003960Y007015D01*
X004994Y007015D01*
X005390Y007053D02*
X006299Y007053D01*
X006236Y007131D02*
X005390Y007131D01*
X005390Y007210D02*
X006236Y007210D01*
X006236Y007289D02*
X005382Y007289D01*
X005390Y006974D02*
X006754Y006974D01*
X006754Y006896D02*
X005390Y006896D01*
X005390Y006817D02*
X006786Y006817D01*
X006745Y006739D02*
X006857Y006739D01*
X006994Y006941D02*
X007186Y006910D01*
X007282Y006910D01*
X006956Y007210D02*
X006752Y007210D01*
X006752Y007289D02*
X006869Y007289D01*
X006837Y007367D02*
X006804Y007367D01*
X006845Y007131D02*
X006752Y007131D01*
X006781Y007053D02*
X006689Y007053D01*
X007253Y007581D02*
X007237Y007598D01*
X007314Y007675D01*
X007394Y007755D01*
X007394Y007581D01*
X007253Y007581D01*
X007242Y007603D02*
X007394Y007603D01*
X007394Y007681D02*
X007320Y007681D01*
X007234Y008074D02*
X005030Y008074D01*
X005030Y008153D02*
X007234Y008153D01*
X007234Y008231D02*
X005030Y008231D01*
X005022Y008310D02*
X005307Y008310D01*
X005282Y008388D02*
X004316Y008388D01*
X004178Y008467D02*
X005282Y008467D01*
X005282Y008545D02*
X004129Y008545D01*
X004077Y008624D02*
X005282Y008624D01*
X005304Y008702D02*
X004234Y008702D01*
X004124Y009005D02*
X004124Y009091D01*
X004124Y009599D01*
X004170Y009618D01*
X004237Y009685D01*
X004274Y009773D01*
X004274Y009869D01*
X004237Y009957D01*
X004170Y010025D01*
X004124Y010044D01*
X004124Y010471D01*
X004314Y010661D01*
X004408Y010661D01*
X004368Y010621D01*
X004368Y010621D01*
X004274Y010527D01*
X004274Y009080D01*
X004124Y009005D01*
X004124Y009016D02*
X004147Y009016D01*
X004124Y009095D02*
X004274Y009095D01*
X004274Y009174D02*
X004124Y009174D01*
X004124Y009252D02*
X004274Y009252D01*
X004274Y009331D02*
X004124Y009331D01*
X004124Y009409D02*
X004274Y009409D01*
X004274Y009488D02*
X004124Y009488D01*
X004124Y009566D02*
X004274Y009566D01*
X004274Y009645D02*
X004197Y009645D01*
X004253Y009723D02*
X004274Y009723D01*
X004274Y009802D02*
X004274Y009802D01*
X004269Y009880D02*
X004274Y009880D01*
X004274Y009959D02*
X004235Y009959D01*
X004274Y010038D02*
X004138Y010038D01*
X004124Y010116D02*
X004274Y010116D01*
X004274Y010195D02*
X004124Y010195D01*
X004124Y010273D02*
X004274Y010273D01*
X004274Y010352D02*
X004124Y010352D01*
X004124Y010430D02*
X004274Y010430D01*
X004274Y010509D02*
X004162Y010509D01*
X004241Y010587D02*
X004334Y010587D01*
X004334Y010891D02*
X004304Y010891D01*
X004660Y010461D02*
X004594Y010395D01*
X004594Y010308D01*
X004597Y010311D01*
X004625Y010311D01*
X004625Y010398D01*
X004688Y010461D01*
X004660Y010461D01*
X004657Y010430D02*
X004629Y010430D01*
X004625Y010352D02*
X004594Y010352D01*
X005010Y010273D02*
X005460Y010273D01*
X005412Y010195D02*
X005042Y010195D01*
X005042Y010116D02*
X005412Y010116D01*
X005412Y010038D02*
X005042Y010038D01*
X005042Y009959D02*
X005412Y009959D01*
X005572Y010159D02*
X005572Y009699D01*
X005732Y009959D02*
X007234Y009959D01*
X007234Y009880D02*
X005816Y009880D01*
X005830Y009802D02*
X007234Y009802D01*
X007234Y009723D02*
X006111Y009723D01*
X006171Y009645D02*
X007234Y009645D01*
X007234Y009566D02*
X006194Y009566D01*
X006205Y009488D02*
X007234Y009488D01*
X006928Y009409D02*
X006848Y009409D01*
X006848Y009331D02*
X006928Y009331D01*
X006928Y009252D02*
X006848Y009252D01*
X006848Y009174D02*
X006928Y009174D01*
X006928Y009095D02*
X006848Y009095D01*
X006848Y008938D02*
X006928Y008938D01*
X006928Y008859D02*
X006848Y008859D01*
X006848Y008781D02*
X006928Y008781D01*
X006928Y008702D02*
X006848Y008702D01*
X006848Y008624D02*
X006928Y008624D01*
X006536Y008624D02*
X006464Y008624D01*
X006140Y009021D02*
X006140Y009315D01*
X005954Y009541D01*
X005732Y010038D02*
X007234Y010038D01*
X007234Y010116D02*
X005755Y010116D01*
X005572Y010159D02*
X005794Y010381D01*
X005947Y010195D02*
X007194Y010195D01*
X007116Y010273D02*
X006009Y010273D01*
X006034Y010352D02*
X007037Y010352D01*
X006959Y010430D02*
X006033Y010430D01*
X006001Y010509D02*
X006880Y010509D01*
X006801Y010587D02*
X005923Y010587D01*
X005665Y010587D02*
X005234Y010587D01*
X005234Y010666D02*
X006723Y010666D01*
X006728Y010661D02*
X006728Y010661D01*
X006644Y010744D02*
X005234Y010744D01*
X005234Y010823D02*
X006634Y010823D01*
X006634Y010902D02*
X005234Y010902D01*
X005234Y010980D02*
X006634Y010980D01*
X006634Y011059D02*
X005234Y011059D01*
X005234Y011137D02*
X006634Y011137D01*
X006634Y011216D02*
X005234Y011216D01*
X005234Y011294D02*
X006634Y011294D01*
X006634Y011373D02*
X005234Y011373D01*
X005234Y011451D02*
X006634Y011451D01*
X006634Y011530D02*
X005234Y011530D01*
X005234Y011608D02*
X006634Y011608D01*
X006634Y011687D02*
X005719Y011687D01*
X005774Y011766D02*
X006634Y011766D01*
X006634Y011844D02*
X005794Y011844D01*
X005788Y011923D02*
X006634Y011923D01*
X006634Y012001D02*
X005753Y012001D01*
X005653Y012080D02*
X006634Y012080D01*
X006634Y012158D02*
X005392Y012158D01*
X005272Y012237D02*
X006634Y012237D01*
X006634Y012315D02*
X005152Y012315D01*
X005032Y012394D02*
X006634Y012394D01*
X006634Y012472D02*
X004912Y012472D01*
X004844Y012551D02*
X004774Y012621D01*
X004020Y012621D01*
X003794Y012621D02*
X004034Y012861D01*
X004304Y012861D01*
X004334Y012891D01*
X004334Y012391D02*
X004744Y012391D01*
X005554Y011861D01*
X005334Y011766D02*
X005234Y011766D01*
X005234Y011687D02*
X005389Y011687D01*
X005288Y011844D02*
X005197Y011844D01*
X005168Y011923D02*
X005119Y011923D01*
X005048Y012001D02*
X005040Y012001D01*
X004956Y012061D02*
X004834Y012061D01*
X004774Y012121D01*
X003894Y012121D01*
X003824Y012051D01*
X003824Y011731D01*
X003894Y011661D01*
X004774Y011661D01*
X004844Y011731D01*
X004844Y011741D01*
X004848Y011741D01*
X004914Y011675D01*
X004914Y011487D01*
X004900Y011501D01*
X004844Y011501D01*
X004844Y011551D01*
X004774Y011621D01*
X003894Y011621D01*
X003824Y011551D01*
X003824Y011371D01*
X003594Y011371D01*
X003594Y011631D01*
X003659Y011631D01*
X003729Y011701D01*
X003729Y012090D01*
X003847Y012208D01*
X003894Y012161D01*
X004774Y012161D01*
X004785Y012173D01*
X004956Y012061D01*
X004928Y012080D02*
X004815Y012080D01*
X004808Y012158D02*
X003797Y012158D01*
X003853Y012080D02*
X003729Y012080D01*
X003729Y012001D02*
X003824Y012001D01*
X003824Y011923D02*
X003729Y011923D01*
X003729Y011844D02*
X003824Y011844D01*
X003824Y011766D02*
X003729Y011766D01*
X003715Y011687D02*
X003868Y011687D01*
X003882Y011608D02*
X003594Y011608D01*
X003594Y011530D02*
X003824Y011530D01*
X003824Y011451D02*
X003594Y011451D01*
X003594Y011373D02*
X003824Y011373D01*
X003934Y011161D02*
X004754Y011161D01*
X004754Y011121D01*
X003934Y011121D01*
X003934Y011161D01*
X003934Y011137D02*
X004754Y011137D01*
X004844Y011530D02*
X004914Y011530D01*
X004914Y011608D02*
X004786Y011608D01*
X004800Y011687D02*
X004902Y011687D01*
X004821Y012708D02*
X006634Y012708D01*
X006634Y012787D02*
X004844Y012787D01*
X004844Y012865D02*
X006634Y012865D01*
X006634Y012944D02*
X004844Y012944D01*
X004844Y013022D02*
X006634Y013022D01*
X006634Y013101D02*
X004794Y013101D01*
X004792Y013179D02*
X006634Y013179D01*
X006634Y013258D02*
X004844Y013258D01*
X004844Y013336D02*
X006634Y013336D01*
X006634Y013415D02*
X004844Y013415D01*
X004844Y013493D02*
X006634Y013493D01*
X006634Y013572D02*
X004823Y013572D01*
X004778Y013651D02*
X004810Y013669D01*
X004836Y013695D01*
X004854Y013727D01*
X004864Y013763D01*
X004864Y013876D01*
X004349Y013876D01*
X004349Y013641D01*
X004742Y013641D01*
X004778Y013651D01*
X006634Y013651D01*
X006634Y013729D02*
X004855Y013729D01*
X004864Y013808D02*
X006634Y013808D01*
X006634Y013886D02*
X004349Y013886D01*
X004349Y013876D02*
X004349Y013906D01*
X004864Y013906D01*
X004864Y014020D01*
X004854Y014055D01*
X004836Y014087D01*
X004810Y014113D01*
X004778Y014132D01*
X004742Y014141D01*
X004349Y014141D01*
X004349Y013906D01*
X004319Y013906D01*
X004319Y013876D01*
X004349Y013876D01*
X004319Y013876D02*
X004319Y013641D01*
X003926Y013641D01*
X003890Y013651D01*
X003858Y013669D01*
X003832Y013695D01*
X003814Y013727D01*
X003804Y013763D01*
X003804Y013876D01*
X004319Y013876D01*
X004319Y013886D02*
X003729Y013886D01*
X003804Y013906D02*
X003804Y014020D01*
X003814Y014055D01*
X003832Y014087D01*
X003858Y014113D01*
X003890Y014132D01*
X003926Y014141D01*
X004319Y014141D01*
X004319Y013906D01*
X003804Y013906D01*
X003804Y013965D02*
X003729Y013965D01*
X003729Y014043D02*
X003810Y014043D01*
X003873Y014122D02*
X003680Y014122D01*
X003737Y014200D02*
X003855Y014200D01*
X003824Y014279D02*
X003749Y014279D01*
X003749Y014357D02*
X003824Y014357D01*
X003824Y014436D02*
X003749Y014436D01*
X003824Y014515D02*
X003354Y014515D01*
X003354Y014593D02*
X003274Y014593D01*
X003274Y014515D02*
X002494Y014515D01*
X002602Y014436D02*
X002879Y014436D01*
X002879Y014357D02*
X002641Y014357D01*
X002649Y014279D02*
X002879Y014279D01*
X002891Y014200D02*
X002632Y014200D01*
X002581Y014122D02*
X002948Y014122D01*
X002899Y014043D02*
X002323Y014043D01*
X002323Y013965D02*
X002899Y013965D01*
X002899Y013886D02*
X002323Y013886D01*
X002323Y013808D02*
X002899Y013808D01*
X002899Y013729D02*
X002323Y013729D01*
X002323Y013651D02*
X002837Y013651D01*
X002759Y013572D02*
X002323Y013572D01*
X002323Y013493D02*
X002680Y013493D01*
X002674Y013415D02*
X002323Y013415D01*
X002323Y013336D02*
X002674Y013336D01*
X002674Y013258D02*
X002550Y013258D01*
X002619Y013179D02*
X002674Y013179D01*
X002674Y013101D02*
X002649Y013101D01*
X002649Y013022D02*
X002674Y013022D01*
X002674Y012944D02*
X002621Y012944D01*
X002674Y012865D02*
X002554Y012865D01*
X002674Y012787D02*
X002323Y012787D01*
X002323Y012708D02*
X002674Y012708D01*
X002674Y012629D02*
X002323Y012629D01*
X002323Y012551D02*
X002674Y012551D01*
X002674Y012472D02*
X002323Y012472D01*
X002323Y012394D02*
X002674Y012394D01*
X002674Y012315D02*
X002323Y012315D01*
X002323Y012237D02*
X002674Y012237D01*
X002674Y012158D02*
X002323Y012158D01*
X002323Y012080D02*
X002674Y012080D01*
X002674Y012001D02*
X002576Y012001D01*
X002630Y011923D02*
X002674Y011923D01*
X002674Y011844D02*
X002649Y011844D01*
X002643Y011766D02*
X002674Y011766D01*
X002674Y011687D02*
X002606Y011687D01*
X002674Y011608D02*
X002504Y011608D01*
X002674Y011530D02*
X002323Y011530D01*
X002323Y011451D02*
X002674Y011451D01*
X002674Y011373D02*
X002323Y011373D01*
X002323Y011294D02*
X002674Y011294D01*
X002674Y011216D02*
X002323Y011216D01*
X002323Y011137D02*
X002674Y011137D01*
X002674Y011059D02*
X002323Y011059D01*
X002323Y010980D02*
X002674Y010980D01*
X002674Y010902D02*
X002323Y010902D01*
X002409Y010599D02*
X002163Y010599D01*
X002163Y011829D01*
X002409Y011829D01*
X002163Y011829D02*
X002163Y013059D01*
X002409Y013059D01*
X002163Y013059D02*
X002163Y014290D01*
X002003Y014279D02*
X001939Y014279D01*
X001939Y014357D02*
X002003Y014357D01*
X002003Y014436D02*
X001939Y014436D01*
X001939Y014515D02*
X002003Y014515D01*
X002003Y014593D02*
X001939Y014593D01*
X001939Y014672D02*
X002003Y014672D01*
X002003Y014750D02*
X001939Y014750D01*
X001939Y014829D02*
X002003Y014829D01*
X002003Y014907D02*
X001939Y014907D01*
X001939Y014986D02*
X002003Y014986D01*
X002003Y015064D02*
X001939Y015064D01*
X001939Y015143D02*
X002003Y015143D01*
X002003Y015221D02*
X001939Y015221D01*
X001939Y015300D02*
X002003Y015300D01*
X002003Y015379D02*
X001939Y015379D01*
X001939Y015457D02*
X002003Y015457D01*
X002323Y015064D02*
X003594Y015064D01*
X003594Y014986D02*
X002323Y014986D01*
X002003Y014200D02*
X001939Y014200D01*
X001939Y014122D02*
X002003Y014122D01*
X002003Y014043D02*
X001939Y014043D01*
X001939Y013965D02*
X002003Y013965D01*
X002003Y013886D02*
X001939Y013886D01*
X001939Y013808D02*
X002003Y013808D01*
X002003Y013729D02*
X001939Y013729D01*
X001939Y013651D02*
X002003Y013651D01*
X002003Y013572D02*
X001939Y013572D01*
X001939Y013493D02*
X002003Y013493D01*
X002003Y013415D02*
X001939Y013415D01*
X001939Y013336D02*
X002003Y013336D01*
X002003Y013258D02*
X001939Y013258D01*
X001939Y013179D02*
X002003Y013179D01*
X002003Y013101D02*
X001939Y013101D01*
X001939Y013022D02*
X002003Y013022D01*
X002003Y012944D02*
X001939Y012944D01*
X001939Y012865D02*
X002003Y012865D01*
X002003Y012787D02*
X001939Y012787D01*
X001939Y012708D02*
X002003Y012708D01*
X002003Y012629D02*
X001939Y012629D01*
X001939Y012551D02*
X002003Y012551D01*
X002003Y012472D02*
X001939Y012472D01*
X001939Y012394D02*
X002003Y012394D01*
X002003Y012315D02*
X001939Y012315D01*
X001939Y012237D02*
X002003Y012237D01*
X002003Y012158D02*
X001939Y012158D01*
X001939Y012080D02*
X002003Y012080D01*
X002003Y012001D02*
X001939Y012001D01*
X001939Y011923D02*
X002003Y011923D01*
X002003Y011844D02*
X001939Y011844D01*
X001939Y011766D02*
X002003Y011766D01*
X002003Y011687D02*
X001939Y011687D01*
X001939Y011608D02*
X002003Y011608D01*
X002003Y011530D02*
X001939Y011530D01*
X001939Y011451D02*
X002003Y011451D01*
X002003Y011373D02*
X001939Y011373D01*
X001939Y011294D02*
X002003Y011294D01*
X002003Y011216D02*
X001939Y011216D01*
X001939Y011137D02*
X002003Y011137D01*
X002003Y011059D02*
X001939Y011059D01*
X001939Y010980D02*
X002003Y010980D01*
X002003Y010902D02*
X001939Y010902D01*
X001939Y010823D02*
X002003Y010823D01*
X002003Y010744D02*
X001939Y010744D01*
X001939Y010666D02*
X002003Y010666D01*
X002003Y010587D02*
X001939Y010587D01*
X001939Y010509D02*
X002003Y010509D01*
X002003Y010430D02*
X001939Y010430D01*
X001939Y010352D02*
X002003Y010352D01*
X002003Y010273D02*
X001939Y010273D01*
X001939Y010195D02*
X002003Y010195D01*
X002003Y010116D02*
X001939Y010116D01*
X001939Y010038D02*
X002003Y010038D01*
X002003Y009959D02*
X001939Y009959D01*
X001939Y009880D02*
X002003Y009880D01*
X002003Y009802D02*
X001939Y009802D01*
X001939Y009723D02*
X002003Y009723D01*
X002003Y009645D02*
X001939Y009645D01*
X001939Y009566D02*
X002003Y009566D01*
X002003Y009488D02*
X001939Y009488D01*
X001939Y009409D02*
X002003Y009409D01*
X002003Y009331D02*
X001939Y009331D01*
X001939Y009252D02*
X002003Y009252D01*
X002003Y009174D02*
X001939Y009174D01*
X001939Y009095D02*
X002003Y009095D01*
X002003Y009016D02*
X001939Y009016D01*
X001939Y008938D02*
X002003Y008938D01*
X002003Y008859D02*
X001939Y008859D01*
X001939Y008781D02*
X002003Y008781D01*
X002003Y008702D02*
X001939Y008702D01*
X001939Y008624D02*
X002003Y008624D01*
X002003Y008545D02*
X001939Y008545D01*
X001939Y008467D02*
X002003Y008467D01*
X002003Y008388D02*
X001939Y008388D01*
X001939Y008310D02*
X002003Y008310D01*
X002003Y008231D02*
X001939Y008231D01*
X001939Y008153D02*
X002003Y008153D01*
X002003Y008074D02*
X001939Y008074D01*
X001939Y007995D02*
X002003Y007995D01*
X002003Y007917D02*
X001939Y007917D01*
X001939Y007838D02*
X002003Y007838D01*
X002003Y007760D02*
X001939Y007760D01*
X001939Y007681D02*
X002003Y007681D01*
X002003Y007603D02*
X001939Y007603D01*
X001939Y007524D02*
X002003Y007524D01*
X002003Y007446D02*
X001939Y007446D01*
X001939Y007367D02*
X002003Y007367D01*
X002003Y007289D02*
X001939Y007289D01*
X001939Y007210D02*
X002003Y007210D01*
X002003Y007131D02*
X001939Y007131D01*
X001939Y007053D02*
X002003Y007053D01*
X002003Y006974D02*
X001939Y006974D01*
X001939Y006896D02*
X002003Y006896D01*
X002003Y006817D02*
X001939Y006817D01*
X001939Y006739D02*
X002003Y006739D01*
X002003Y006660D02*
X001939Y006660D01*
X001939Y006582D02*
X002003Y006582D01*
X002003Y006503D02*
X001939Y006503D01*
X001939Y006425D02*
X002003Y006425D01*
X002003Y006346D02*
X001939Y006346D01*
X001939Y006267D02*
X002003Y006267D01*
X002003Y006189D02*
X001939Y006189D01*
X001939Y006110D02*
X002003Y006110D01*
X002003Y006032D02*
X001939Y006032D01*
X001939Y005953D02*
X002003Y005953D01*
X002003Y005875D02*
X001939Y005875D01*
X001939Y005796D02*
X002003Y005796D01*
X002003Y005718D02*
X001939Y005718D01*
X001939Y005639D02*
X002003Y005639D01*
X002003Y005561D02*
X001939Y005561D01*
X001939Y005482D02*
X002003Y005482D01*
X002003Y005404D02*
X001939Y005404D01*
X001939Y005325D02*
X002043Y005325D01*
X001939Y005246D02*
X002989Y005246D01*
X002934Y005325D02*
X002406Y005325D01*
X002446Y005404D02*
X002934Y005404D01*
X002934Y005482D02*
X002553Y005482D01*
X002620Y005561D02*
X002934Y005561D01*
X002934Y005639D02*
X002649Y005639D01*
X002649Y005718D02*
X002934Y005718D01*
X002934Y005796D02*
X002620Y005796D01*
X002551Y005875D02*
X002934Y005875D01*
X002934Y005953D02*
X002323Y005953D01*
X002323Y006032D02*
X002934Y006032D01*
X002934Y006110D02*
X002323Y006110D01*
X002323Y006189D02*
X002934Y006189D01*
X002934Y006267D02*
X002323Y006267D01*
X002323Y006346D02*
X002934Y006346D01*
X002934Y006425D02*
X002323Y006425D01*
X002323Y006503D02*
X002934Y006503D01*
X002934Y006582D02*
X002323Y006582D01*
X002323Y006660D02*
X002934Y006660D01*
X002934Y006739D02*
X002579Y006739D01*
X002631Y006817D02*
X002934Y006817D01*
X002934Y006896D02*
X002649Y006896D01*
X002641Y006974D02*
X002934Y006974D01*
X002934Y007053D02*
X002603Y007053D01*
X002496Y007131D02*
X002934Y007131D01*
X002934Y007210D02*
X002323Y007210D01*
X002323Y007289D02*
X002934Y007289D01*
X002934Y007367D02*
X002323Y007367D01*
X002323Y007446D02*
X002903Y007446D01*
X002825Y007524D02*
X002323Y007524D01*
X002323Y007603D02*
X002746Y007603D01*
X002674Y007681D02*
X002323Y007681D01*
X002323Y007760D02*
X002674Y007760D01*
X002674Y007838D02*
X002323Y007838D01*
X002409Y008138D02*
X002163Y008138D01*
X002163Y009368D01*
X002409Y009368D01*
X002554Y009174D02*
X002674Y009174D01*
X002674Y009252D02*
X002621Y009252D01*
X002649Y009331D02*
X002674Y009331D01*
X002674Y009409D02*
X002649Y009409D01*
X002674Y009488D02*
X002620Y009488D01*
X002674Y009566D02*
X002551Y009566D01*
X002674Y009645D02*
X002323Y009645D01*
X002323Y009723D02*
X002674Y009723D01*
X002674Y009802D02*
X002323Y009802D01*
X002323Y009880D02*
X002674Y009880D01*
X002674Y009959D02*
X002323Y009959D01*
X002323Y010038D02*
X002674Y010038D01*
X002674Y010116D02*
X002323Y010116D01*
X002323Y010195D02*
X002674Y010195D01*
X002674Y010273D02*
X002323Y010273D01*
X002323Y010352D02*
X002674Y010352D01*
X002674Y010430D02*
X002580Y010430D01*
X002632Y010509D02*
X002674Y010509D01*
X002674Y010587D02*
X002649Y010587D01*
X002641Y010666D02*
X002674Y010666D01*
X002674Y010744D02*
X002603Y010744D01*
X002674Y010823D02*
X002495Y010823D01*
X002163Y010599D02*
X002163Y009368D01*
X002323Y009095D02*
X002674Y009095D01*
X002674Y009016D02*
X002323Y009016D01*
X002323Y008938D02*
X002674Y008938D01*
X002674Y008859D02*
X002323Y008859D01*
X002323Y008781D02*
X002674Y008781D01*
X002674Y008702D02*
X002323Y008702D01*
X002323Y008624D02*
X002674Y008624D01*
X002674Y008545D02*
X002323Y008545D01*
X002323Y008467D02*
X002674Y008467D01*
X002674Y008388D02*
X002323Y008388D01*
X002163Y008138D02*
X002163Y006908D01*
X002409Y006908D01*
X002163Y006908D02*
X002163Y005678D01*
X002409Y005678D01*
X002286Y005431D02*
X002163Y005431D01*
X002163Y005678D01*
X001939Y005168D02*
X003973Y005168D01*
X003954Y005246D02*
X003879Y005246D01*
X004026Y005089D02*
X001939Y005089D01*
X001939Y005011D02*
X007554Y005011D01*
X007554Y005089D02*
X006146Y005089D01*
X006184Y005168D02*
X007554Y005168D01*
X007554Y005246D02*
X006184Y005246D01*
X006184Y005325D02*
X007554Y005325D01*
X007554Y004932D02*
X004178Y004932D01*
X004171Y004940D02*
X004139Y004958D01*
X004103Y004968D01*
X003869Y004968D01*
X003869Y004573D01*
X004225Y004573D01*
X004225Y004846D01*
X004215Y004882D01*
X004197Y004914D01*
X004171Y004940D01*
X004223Y004854D02*
X007447Y004854D01*
X007405Y004775D02*
X004225Y004775D01*
X004225Y004697D02*
X007394Y004697D01*
X007409Y004618D02*
X004225Y004618D01*
X004225Y004493D02*
X003869Y004493D01*
X003869Y004573D01*
X003789Y004573D01*
X003789Y004968D01*
X003554Y004968D01*
X003519Y004958D01*
X003487Y004940D01*
X003461Y004914D01*
X003446Y004888D01*
X003386Y004948D01*
X002775Y004948D01*
X002705Y004878D01*
X002705Y004461D01*
X002688Y004461D01*
X002453Y004461D01*
X002410Y004505D01*
X002322Y004541D01*
X002226Y004541D01*
X002138Y004505D01*
X002071Y004437D01*
X002034Y004349D01*
X002034Y004253D01*
X002071Y004165D01*
X002138Y004098D01*
X002226Y004061D01*
X002288Y004061D01*
X002220Y003993D01*
X002220Y003930D01*
X002133Y003930D01*
X002063Y003859D01*
X002063Y003209D01*
X002093Y003179D01*
X002071Y003157D01*
X002034Y003069D01*
X002034Y002973D01*
X002071Y002885D01*
X002138Y002818D01*
X002226Y002781D01*
X002322Y002781D01*
X002410Y002818D01*
X002437Y002845D01*
X002437Y002343D01*
X002507Y002272D01*
X003001Y002272D01*
X003071Y002343D01*
X003071Y002498D01*
X003331Y002498D01*
X003459Y002370D01*
X003459Y001889D01*
X003518Y001830D01*
X003493Y001815D01*
X003467Y001789D01*
X003448Y001757D01*
X003439Y001721D01*
X003439Y001487D01*
X003834Y001487D01*
X003834Y001407D01*
X003914Y001407D01*
X003914Y001051D01*
X004188Y001051D01*
X004223Y001061D01*
X004255Y001079D01*
X004281Y001105D01*
X004300Y001137D01*
X004309Y001173D01*
X004309Y001407D01*
X003914Y001407D01*
X003914Y001487D01*
X004309Y001487D01*
X004309Y001721D01*
X004300Y001757D01*
X004281Y001789D01*
X004255Y001815D01*
X004230Y001830D01*
X004289Y001889D01*
X004289Y002211D01*
X005304Y002211D01*
X005404Y002311D01*
X005511Y002418D01*
X005559Y002301D01*
X005648Y002212D01*
X005765Y002164D01*
X005891Y002164D01*
X006008Y002212D01*
X006097Y002301D01*
X006145Y002418D01*
X006145Y002544D01*
X006097Y002661D01*
X006008Y002750D01*
X005891Y002798D01*
X005946Y002853D01*
X006194Y002853D01*
X006194Y002161D01*
X006151Y002117D01*
X006114Y002029D01*
X006114Y001933D01*
X006151Y001845D01*
X006218Y001778D01*
X006306Y001741D01*
X006402Y001741D01*
X006490Y001778D01*
X006557Y001845D01*
X006594Y001933D01*
X006594Y002029D01*
X006557Y002117D01*
X006514Y002161D01*
X006514Y002362D01*
X006538Y002338D01*
X006626Y002301D01*
X006722Y002301D01*
X006810Y002338D01*
X006877Y002405D01*
X006914Y002493D01*
X006914Y002589D01*
X006877Y002677D01*
X006834Y002721D01*
X006834Y002853D01*
X006842Y002853D01*
X006851Y002863D01*
X006861Y002853D01*
X007153Y002853D01*
X007171Y002843D01*
X007207Y002833D01*
X007315Y002833D01*
X007315Y003456D01*
X007333Y003456D01*
X007333Y002833D01*
X007441Y002833D01*
X007476Y002843D01*
X007508Y002861D01*
X007534Y002887D01*
X007553Y002919D01*
X007562Y002955D01*
X007562Y003456D01*
X007333Y003456D01*
X007333Y003475D01*
X007315Y003475D01*
X007315Y004097D01*
X007207Y004097D01*
X007171Y004088D01*
X007153Y004077D01*
X006861Y004077D01*
X006851Y004068D01*
X006852Y004068D01*
X006851Y004068D02*
X006842Y004077D01*
X006546Y004077D01*
X006537Y004068D01*
X006536Y004068D01*
X006537Y004068D02*
X006527Y004077D01*
X006231Y004077D01*
X006222Y004068D01*
X006221Y004068D01*
X006222Y004068D02*
X006212Y004077D01*
X005916Y004077D01*
X005846Y004007D01*
X005846Y003233D01*
X005164Y002551D01*
X004239Y002551D01*
X004219Y002571D01*
X003738Y002571D01*
X003471Y002838D01*
X003331Y002838D01*
X003071Y002838D01*
X003071Y002993D01*
X003001Y003064D01*
X002514Y003064D01*
X002514Y003069D01*
X002485Y003139D01*
X002627Y003139D01*
X002697Y003209D01*
X002697Y003859D01*
X002627Y003930D01*
X002609Y003930D01*
X002797Y004117D01*
X003386Y004117D01*
X003446Y004177D01*
X003461Y004151D01*
X003487Y004125D01*
X003519Y004107D01*
X003554Y004097D01*
X003789Y004097D01*
X003789Y004493D01*
X003869Y004493D01*
X003869Y004097D01*
X004103Y004097D01*
X004139Y004107D01*
X004171Y004125D01*
X004197Y004151D01*
X004215Y004183D01*
X004225Y004219D01*
X004225Y004493D01*
X004225Y004461D02*
X008463Y004461D01*
X008457Y004451D02*
X008447Y004415D01*
X008447Y004298D01*
X008706Y004298D01*
X008706Y004537D01*
X008569Y004537D01*
X008533Y004527D01*
X008501Y004509D01*
X008475Y004483D01*
X008457Y004451D01*
X008447Y004382D02*
X004225Y004382D01*
X004225Y004304D02*
X008447Y004304D01*
X008447Y004259D02*
X008447Y004142D01*
X008457Y004106D01*
X008475Y004074D01*
X008501Y004048D01*
X008506Y004046D01*
X008506Y003505D01*
X008999Y003505D01*
X008999Y003976D01*
X008990Y004011D01*
X008971Y004043D01*
X008958Y004057D01*
X008975Y004074D01*
X008993Y004106D01*
X009003Y004142D01*
X009003Y004259D01*
X008744Y004259D01*
X008744Y004298D01*
X008706Y004298D01*
X008706Y004259D01*
X008447Y004259D01*
X008447Y004225D02*
X004225Y004225D01*
X004192Y004147D02*
X008447Y004147D01*
X008426Y004097D02*
X008054Y004097D01*
X008018Y004088D01*
X007986Y004069D01*
X007960Y004043D01*
X007941Y004011D01*
X007932Y003976D01*
X007932Y003505D01*
X008426Y003505D01*
X008426Y004097D01*
X008426Y004068D02*
X008482Y004068D01*
X008506Y003990D02*
X008426Y003990D01*
X008426Y003911D02*
X008506Y003911D01*
X008506Y003833D02*
X008426Y003833D01*
X008426Y003754D02*
X008506Y003754D01*
X008506Y003676D02*
X008426Y003676D01*
X008426Y003597D02*
X008506Y003597D01*
X008506Y003518D02*
X008426Y003518D01*
X008426Y003505D02*
X008506Y003505D01*
X008506Y003425D01*
X008999Y003425D01*
X008999Y002955D01*
X008990Y002919D01*
X008971Y002887D01*
X008945Y002861D01*
X008913Y002843D01*
X008878Y002833D01*
X008506Y002833D01*
X008506Y003425D01*
X008426Y003425D01*
X008426Y002833D01*
X008054Y002833D01*
X008018Y002843D01*
X007986Y002861D01*
X007960Y002887D01*
X007941Y002919D01*
X007932Y002955D01*
X007932Y003425D01*
X008426Y003425D01*
X008426Y003505D01*
X008426Y003440D02*
X007562Y003440D01*
X007562Y003475D02*
X007562Y003976D01*
X007553Y004011D01*
X007534Y004043D01*
X007508Y004069D01*
X007476Y004088D01*
X007441Y004097D01*
X007333Y004097D01*
X007333Y003475D01*
X007562Y003475D01*
X007562Y003518D02*
X007932Y003518D01*
X007932Y003597D02*
X007562Y003597D01*
X007562Y003676D02*
X007932Y003676D01*
X007932Y003754D02*
X007562Y003754D01*
X007562Y003833D02*
X007932Y003833D01*
X007932Y003911D02*
X007562Y003911D01*
X007559Y003990D02*
X007936Y003990D01*
X007985Y004068D02*
X007510Y004068D01*
X007333Y004068D02*
X007315Y004068D01*
X007324Y004134D02*
X007330Y004134D01*
X007315Y003990D02*
X007333Y003990D01*
X007333Y003911D02*
X007315Y003911D01*
X007315Y003833D02*
X007333Y003833D01*
X007333Y003754D02*
X007315Y003754D01*
X007315Y003676D02*
X007333Y003676D01*
X007333Y003597D02*
X007315Y003597D01*
X007315Y003518D02*
X007333Y003518D01*
X007333Y003440D02*
X007315Y003440D01*
X007315Y003361D02*
X007333Y003361D01*
X007333Y003283D02*
X007315Y003283D01*
X007315Y003204D02*
X007333Y003204D01*
X007333Y003126D02*
X007315Y003126D01*
X007315Y003047D02*
X007333Y003047D01*
X007333Y002969D02*
X007315Y002969D01*
X007315Y002890D02*
X007333Y002890D01*
X007380Y002750D02*
X007291Y002661D01*
X007243Y002544D01*
X007243Y002418D01*
X007291Y002301D01*
X007380Y002212D01*
X007497Y002164D01*
X007623Y002164D01*
X007740Y002212D01*
X007829Y002301D01*
X007877Y002418D01*
X007877Y002544D01*
X007829Y002661D01*
X007740Y002750D01*
X007623Y002798D01*
X007497Y002798D01*
X007380Y002750D01*
X007364Y002733D02*
X006834Y002733D01*
X006834Y002812D02*
X011492Y002812D01*
X011492Y002890D02*
X008973Y002890D01*
X008999Y002969D02*
X011492Y002969D01*
X011492Y003047D02*
X008999Y003047D01*
X008999Y003126D02*
X011492Y003126D01*
X011492Y003204D02*
X008999Y003204D01*
X008999Y003283D02*
X011492Y003283D01*
X011492Y003361D02*
X008999Y003361D01*
X008999Y003518D02*
X011492Y003518D01*
X011492Y003440D02*
X008506Y003440D01*
X008506Y003361D02*
X008426Y003361D01*
X008426Y003283D02*
X008506Y003283D01*
X008506Y003204D02*
X008426Y003204D01*
X008426Y003126D02*
X008506Y003126D01*
X008506Y003047D02*
X008426Y003047D01*
X008426Y002969D02*
X008506Y002969D01*
X008506Y002890D02*
X008426Y002890D01*
X007958Y002890D02*
X007536Y002890D01*
X007562Y002969D02*
X007932Y002969D01*
X007932Y003047D02*
X007562Y003047D01*
X007562Y003126D02*
X007932Y003126D01*
X007932Y003204D02*
X007562Y003204D01*
X007562Y003283D02*
X007932Y003283D01*
X007932Y003361D02*
X007562Y003361D01*
X007757Y002733D02*
X011492Y002733D01*
X011492Y002654D02*
X007832Y002654D01*
X007864Y002576D02*
X011492Y002576D01*
X011492Y002497D02*
X007877Y002497D01*
X007877Y002419D02*
X011492Y002419D01*
X011492Y002340D02*
X007845Y002340D01*
X007789Y002262D02*
X011492Y002262D01*
X011492Y002183D02*
X007670Y002183D01*
X007450Y002183D02*
X006514Y002183D01*
X006514Y002262D02*
X007331Y002262D01*
X007275Y002340D02*
X006813Y002340D01*
X006883Y002419D02*
X007243Y002419D01*
X007243Y002497D02*
X006914Y002497D01*
X006914Y002576D02*
X007256Y002576D01*
X007289Y002654D02*
X006887Y002654D01*
X006674Y002541D02*
X006674Y003205D01*
X006694Y003465D01*
X006379Y003465D02*
X006354Y003200D01*
X006354Y001981D01*
X006141Y001869D02*
X005433Y001869D01*
X005428Y001878D02*
X005402Y001904D01*
X005370Y001923D01*
X005334Y001932D01*
X004962Y001932D01*
X004962Y001340D01*
X004882Y001340D01*
X004882Y001260D01*
X004389Y001260D01*
X004389Y000789D01*
X004398Y000754D01*
X004417Y000722D01*
X004443Y000696D01*
X004475Y000677D01*
X004510Y000668D01*
X004882Y000668D01*
X004882Y001260D01*
X004962Y001260D01*
X004962Y000668D01*
X005334Y000668D01*
X005370Y000677D01*
X005402Y000696D01*
X005428Y000722D01*
X005446Y000754D01*
X005456Y000789D01*
X005456Y001260D01*
X004962Y001260D01*
X004962Y001340D01*
X005456Y001340D01*
X005456Y001811D01*
X005446Y001846D01*
X005428Y001878D01*
X005456Y001791D02*
X006205Y001791D01*
X006114Y001948D02*
X004289Y001948D01*
X004289Y002026D02*
X006114Y002026D01*
X006145Y002105D02*
X004289Y002105D01*
X004289Y002183D02*
X005718Y002183D01*
X005599Y002262D02*
X005355Y002262D01*
X005434Y002340D02*
X005543Y002340D01*
X005346Y002733D02*
X003576Y002733D01*
X003498Y002812D02*
X005424Y002812D01*
X005402Y002861D02*
X005428Y002887D01*
X005446Y002919D01*
X005456Y002955D01*
X005456Y003425D01*
X004962Y003425D01*
X004962Y002833D01*
X005334Y002833D01*
X005370Y002843D01*
X005402Y002861D01*
X005430Y002890D02*
X005503Y002890D01*
X005456Y002969D02*
X005581Y002969D01*
X005660Y003047D02*
X005456Y003047D01*
X005456Y003126D02*
X005738Y003126D01*
X005817Y003204D02*
X005456Y003204D01*
X005456Y003283D02*
X005846Y003283D01*
X005846Y003361D02*
X005456Y003361D01*
X005456Y003505D02*
X005456Y003976D01*
X005446Y004011D01*
X005428Y004043D01*
X005402Y004069D01*
X005370Y004088D01*
X005334Y004097D01*
X004962Y004097D01*
X004962Y003505D01*
X004882Y003505D01*
X004882Y003425D01*
X004962Y003425D01*
X004962Y003505D01*
X005456Y003505D01*
X005456Y003518D02*
X005846Y003518D01*
X005846Y003440D02*
X004962Y003440D01*
X004962Y003518D02*
X004882Y003518D01*
X004882Y003505D02*
X004882Y004097D01*
X004510Y004097D01*
X004475Y004088D01*
X004443Y004069D01*
X004417Y004043D01*
X004398Y004011D01*
X004389Y003976D01*
X004389Y003505D01*
X004882Y003505D01*
X004882Y003440D02*
X003465Y003440D01*
X003465Y003494D02*
X003168Y003494D01*
X003168Y003119D01*
X003343Y003119D01*
X003379Y003128D01*
X003411Y003147D01*
X003437Y003173D01*
X003455Y003205D01*
X003465Y003240D01*
X003465Y003494D01*
X003465Y003574D02*
X003465Y003828D01*
X003455Y003864D01*
X003437Y003896D01*
X003411Y003922D01*
X003379Y003940D01*
X003343Y003950D01*
X003168Y003950D01*
X003168Y003574D01*
X003465Y003574D01*
X003465Y003597D02*
X004389Y003597D01*
X004389Y003676D02*
X003465Y003676D01*
X003465Y003754D02*
X004389Y003754D01*
X004389Y003833D02*
X003464Y003833D01*
X003421Y003911D02*
X004389Y003911D01*
X004392Y003990D02*
X002669Y003990D01*
X002645Y003911D02*
X002835Y003911D01*
X002845Y003922D02*
X002819Y003896D01*
X002801Y003864D01*
X002791Y003828D01*
X002791Y003574D01*
X003088Y003574D01*
X003088Y003494D01*
X003168Y003494D01*
X003168Y003574D01*
X003088Y003574D01*
X003088Y003950D01*
X002913Y003950D01*
X002877Y003940D01*
X002845Y003922D01*
X002792Y003833D02*
X002697Y003833D01*
X002697Y003754D02*
X002791Y003754D01*
X002791Y003676D02*
X002697Y003676D01*
X002697Y003597D02*
X002791Y003597D01*
X002791Y003494D02*
X002791Y003240D01*
X002801Y003205D01*
X002819Y003173D01*
X002845Y003147D01*
X002877Y003128D01*
X002913Y003119D01*
X003088Y003119D01*
X003088Y003494D01*
X002791Y003494D01*
X002791Y003440D02*
X002697Y003440D01*
X002697Y003518D02*
X003088Y003518D01*
X003088Y003440D02*
X003168Y003440D01*
X003168Y003518D02*
X004389Y003518D01*
X004389Y003425D02*
X004389Y002955D01*
X004398Y002919D01*
X004417Y002887D01*
X004443Y002861D01*
X004475Y002843D01*
X004510Y002833D01*
X004882Y002833D01*
X004882Y003425D01*
X004389Y003425D01*
X004389Y003361D02*
X003465Y003361D01*
X003465Y003283D02*
X004389Y003283D01*
X004389Y003204D02*
X003455Y003204D01*
X003370Y003126D02*
X004389Y003126D01*
X004389Y003047D02*
X003017Y003047D01*
X003071Y002969D02*
X004389Y002969D01*
X004415Y002890D02*
X003071Y002890D01*
X003088Y003126D02*
X003168Y003126D01*
X003168Y003204D02*
X003088Y003204D01*
X003088Y003283D02*
X003168Y003283D01*
X003168Y003361D02*
X003088Y003361D01*
X003088Y003597D02*
X003168Y003597D01*
X003168Y003676D02*
X003088Y003676D01*
X003088Y003754D02*
X003168Y003754D01*
X003168Y003833D02*
X003088Y003833D01*
X003088Y003911D02*
X003168Y003911D01*
X003416Y004147D02*
X003465Y004147D01*
X003789Y004147D02*
X003869Y004147D01*
X003869Y004225D02*
X003789Y004225D01*
X003789Y004304D02*
X003869Y004304D01*
X003869Y004382D02*
X003789Y004382D01*
X003789Y004461D02*
X003869Y004461D01*
X003869Y004540D02*
X007456Y004540D01*
X007634Y004701D02*
X007714Y004861D01*
X007714Y010381D01*
X007314Y010781D01*
X007314Y011181D01*
X007604Y011391D01*
X007894Y011391D01*
X007559Y011161D02*
X008334Y011161D01*
X008344Y011171D01*
X008344Y011111D01*
X008334Y011121D01*
X007504Y011121D01*
X007559Y011161D01*
X007526Y011137D02*
X008344Y011137D01*
X008338Y010666D02*
X008344Y010666D01*
X008344Y010587D02*
X008034Y010587D01*
X008034Y010509D02*
X008344Y010509D01*
X008344Y010430D02*
X008034Y010430D01*
X008034Y010352D02*
X008344Y010352D01*
X008191Y010273D02*
X008034Y010273D01*
X008034Y010195D02*
X008179Y010195D01*
X008179Y010116D02*
X008034Y010116D01*
X008034Y010038D02*
X008179Y010038D01*
X008179Y009959D02*
X008034Y009959D01*
X008034Y009880D02*
X008179Y009880D01*
X008179Y009802D02*
X008034Y009802D01*
X008034Y009723D02*
X008179Y009723D01*
X008183Y009645D02*
X008034Y009645D01*
X008034Y009566D02*
X008204Y009566D01*
X008160Y009488D02*
X008034Y009488D01*
X008034Y009409D02*
X008159Y009409D01*
X008159Y009331D02*
X008034Y009331D01*
X008034Y009252D02*
X008159Y009252D01*
X008159Y009167D02*
X008159Y008933D01*
X008168Y008897D01*
X008187Y008865D01*
X008213Y008839D01*
X008245Y008821D01*
X008280Y008811D01*
X008554Y008811D01*
X008554Y009167D01*
X008159Y009167D01*
X008159Y009095D02*
X008034Y009095D01*
X008034Y009016D02*
X008159Y009016D01*
X008159Y008938D02*
X008034Y008938D01*
X008034Y008859D02*
X008192Y008859D01*
X008034Y008781D02*
X008904Y008781D01*
X008904Y008702D02*
X008034Y008702D01*
X008034Y008624D02*
X008904Y008624D01*
X008904Y008545D02*
X008034Y008545D01*
X008034Y008467D02*
X008904Y008467D01*
X008904Y008388D02*
X008034Y008388D01*
X008034Y008310D02*
X008904Y008310D01*
X008904Y008231D02*
X008034Y008231D01*
X008034Y008153D02*
X008904Y008153D01*
X008904Y008074D02*
X008034Y008074D01*
X008034Y007995D02*
X008904Y007995D01*
X008904Y007917D02*
X008034Y007917D01*
X008034Y007838D02*
X008904Y007838D01*
X008904Y007760D02*
X008034Y007760D01*
X008034Y007681D02*
X008904Y007681D01*
X008904Y007603D02*
X008034Y007603D01*
X008034Y007524D02*
X008904Y007524D01*
X008904Y007446D02*
X008034Y007446D01*
X008034Y007367D02*
X008904Y007367D01*
X008754Y007101D02*
X008754Y005055D01*
X008725Y005027D01*
X008931Y005246D02*
X009808Y005246D01*
X009887Y005168D02*
X008983Y005168D01*
X008983Y005089D02*
X009965Y005089D01*
X010034Y005011D02*
X008983Y005011D01*
X008983Y004932D02*
X010051Y004932D01*
X010102Y004854D02*
X009737Y004854D01*
X009513Y004653D02*
X010946Y004653D01*
X010994Y004701D01*
X011172Y004540D02*
X011492Y004540D01*
X011492Y004618D02*
X011219Y004618D01*
X011234Y004697D02*
X011492Y004697D01*
X011492Y004775D02*
X011223Y004775D01*
X011181Y004854D02*
X011492Y004854D01*
X011492Y004932D02*
X011063Y004932D01*
X010925Y004932D02*
X010497Y004932D01*
X010514Y005011D02*
X011492Y005011D01*
X011492Y005089D02*
X010506Y005089D01*
X010467Y005168D02*
X011492Y005168D01*
X011492Y005246D02*
X010357Y005246D01*
X010211Y005325D02*
X011492Y005325D01*
X011492Y005404D02*
X010132Y005404D01*
X010053Y005482D02*
X010785Y005482D01*
X010718Y005561D02*
X009975Y005561D01*
X009896Y005639D02*
X010689Y005639D01*
X010689Y005718D02*
X009818Y005718D01*
X009739Y005796D02*
X010719Y005796D01*
X010787Y005875D02*
X009661Y005875D01*
X009690Y005953D02*
X009582Y005953D01*
X009676Y005967D02*
X009676Y006054D01*
X009673Y006053D01*
X009577Y006053D01*
X009489Y006089D01*
X009422Y006157D01*
X009385Y006245D01*
X009385Y006340D01*
X009422Y006429D01*
X009489Y006496D01*
X009577Y006533D01*
X009673Y006533D01*
X009676Y006531D01*
X009676Y006618D01*
X009746Y006688D01*
X010279Y006688D01*
X010349Y006618D01*
X010349Y005967D01*
X010279Y005897D01*
X009746Y005897D01*
X009676Y005967D01*
X009676Y006032D02*
X009504Y006032D01*
X009468Y006110D02*
X009425Y006110D01*
X009408Y006189D02*
X009347Y006189D01*
X009385Y006267D02*
X009268Y006267D01*
X009244Y006346D02*
X009387Y006346D01*
X009420Y006425D02*
X009244Y006425D01*
X009244Y006503D02*
X009506Y006503D01*
X009625Y006293D02*
X010013Y006293D01*
X010349Y006267D02*
X010463Y006267D01*
X010463Y006189D02*
X010349Y006189D01*
X010349Y006110D02*
X010463Y006110D01*
X010463Y006032D02*
X010349Y006032D01*
X010335Y005953D02*
X010477Y005953D01*
X010463Y006346D02*
X010349Y006346D01*
X010349Y006425D02*
X010463Y006425D01*
X010463Y006503D02*
X010349Y006503D01*
X010349Y006582D02*
X010463Y006582D01*
X010506Y006660D02*
X010307Y006660D01*
X010450Y006739D02*
X009244Y006739D01*
X009244Y006817D02*
X010372Y006817D01*
X010293Y006896D02*
X009244Y006896D01*
X009244Y006974D02*
X010234Y006974D01*
X010234Y007053D02*
X009244Y007053D01*
X009244Y007131D02*
X009742Y007131D01*
X009676Y007210D02*
X009244Y007210D01*
X009244Y007289D02*
X009564Y007289D01*
X009441Y007367D02*
X009244Y007367D01*
X009244Y007446D02*
X009397Y007446D01*
X009385Y007524D02*
X009244Y007524D01*
X009244Y007603D02*
X009398Y007603D01*
X009444Y007681D02*
X009244Y007681D01*
X009244Y007760D02*
X009570Y007760D01*
X009676Y007838D02*
X009244Y007838D01*
X009244Y007917D02*
X009745Y007917D01*
X009593Y007995D02*
X009244Y007995D01*
X009244Y008074D02*
X009515Y008074D01*
X009436Y008153D02*
X009244Y008153D01*
X009244Y008231D02*
X009358Y008231D01*
X009279Y008310D02*
X009244Y008310D01*
X009354Y008461D02*
X009354Y009661D01*
X009194Y009821D01*
X009354Y009901D02*
X009354Y010661D01*
X009194Y010821D01*
X009194Y011821D01*
X009034Y011981D01*
X009034Y012941D01*
X008874Y013101D01*
X008874Y014141D01*
X008624Y014391D01*
X007894Y014391D01*
X007894Y014891D02*
X008724Y014891D01*
X008874Y014741D01*
X008874Y014381D01*
X009034Y014221D01*
X009034Y013181D01*
X009194Y013021D01*
X009194Y012061D01*
X009354Y011901D01*
X009354Y010901D01*
X009714Y010541D01*
X010234Y010541D01*
X010394Y010381D01*
X010394Y009541D01*
X010800Y009135D01*
X010800Y008753D01*
X010832Y008358D02*
X010554Y008358D01*
X010554Y008327D01*
X010691Y008190D01*
X010726Y008274D01*
X010793Y008342D01*
X010832Y008358D01*
X010761Y008310D02*
X010572Y008310D01*
X010650Y008231D02*
X010708Y008231D01*
X010929Y008138D02*
X011187Y008138D01*
X011187Y009368D01*
X010929Y009368D01*
X011026Y009149D02*
X011027Y009149D01*
X011027Y009149D01*
X011026Y009149D01*
X011187Y009368D02*
X011187Y010599D01*
X010929Y010599D01*
X010832Y010818D02*
X010554Y010818D01*
X010554Y010767D01*
X010689Y010632D01*
X010689Y010646D01*
X010726Y010735D01*
X010793Y010802D01*
X010832Y010818D01*
X010736Y010744D02*
X010577Y010744D01*
X010655Y010666D02*
X010697Y010666D01*
X010394Y010701D02*
X010800Y010295D01*
X010800Y009984D01*
X010832Y009588D02*
X010573Y009588D01*
X010706Y009456D01*
X010726Y009504D01*
X010793Y009572D01*
X010832Y009588D01*
X010788Y009566D02*
X010595Y009566D01*
X010674Y009488D02*
X010719Y009488D01*
X010554Y009155D02*
X010560Y009149D01*
X010554Y009149D01*
X010554Y009155D01*
X010394Y009141D02*
X009954Y009581D01*
X009674Y009581D01*
X009354Y009901D01*
X009625Y009984D02*
X010013Y009984D01*
X010173Y009588D02*
X010234Y009588D01*
X010234Y009527D01*
X010173Y009588D01*
X010195Y009566D02*
X010234Y009566D01*
X010057Y009252D02*
X009514Y009252D01*
X009514Y009174D02*
X010135Y009174D01*
X010160Y009149D02*
X009746Y009149D01*
X009676Y009079D01*
X009676Y008992D01*
X009673Y008993D01*
X009577Y008993D01*
X009514Y008967D01*
X009514Y009515D01*
X009514Y009515D01*
X009514Y009515D01*
X009608Y009421D01*
X009888Y009421D01*
X010160Y009149D01*
X010394Y009141D02*
X010394Y008261D01*
X010800Y007855D01*
X010800Y007523D01*
X010832Y007127D02*
X010554Y007127D01*
X010554Y007087D01*
X010689Y006952D01*
X010689Y006956D01*
X010726Y007044D01*
X010793Y007111D01*
X010832Y007127D01*
X010735Y007053D02*
X010588Y007053D01*
X010667Y006974D02*
X010697Y006974D01*
X010394Y007021D02*
X010800Y006615D01*
X010800Y006293D01*
X011026Y006688D02*
X011027Y006689D01*
X011027Y006688D01*
X011026Y006688D01*
X010929Y006908D02*
X011187Y006908D01*
X011187Y005678D01*
X010929Y005678D01*
X011026Y005897D02*
X011027Y005897D01*
X011027Y005897D01*
X011026Y005897D01*
X011073Y005482D02*
X011492Y005482D01*
X011492Y005561D02*
X011297Y005561D01*
X011347Y005639D02*
X011492Y005639D01*
X011492Y005718D02*
X011347Y005718D01*
X011347Y005796D02*
X011492Y005796D01*
X011492Y005875D02*
X011347Y005875D01*
X011347Y005953D02*
X011492Y005953D01*
X011492Y006032D02*
X011347Y006032D01*
X011347Y006110D02*
X011492Y006110D01*
X011492Y006189D02*
X011347Y006189D01*
X011347Y006267D02*
X011492Y006267D01*
X011492Y006346D02*
X011347Y006346D01*
X011347Y006425D02*
X011492Y006425D01*
X011492Y006503D02*
X011347Y006503D01*
X011347Y006582D02*
X011492Y006582D01*
X011492Y006660D02*
X011347Y006660D01*
X011347Y006739D02*
X011492Y006739D01*
X011492Y006817D02*
X011347Y006817D01*
X011347Y006896D02*
X011492Y006896D01*
X011492Y006974D02*
X011347Y006974D01*
X011347Y007053D02*
X011492Y007053D01*
X011492Y007131D02*
X011347Y007131D01*
X011347Y007210D02*
X011492Y007210D01*
X011492Y007289D02*
X011347Y007289D01*
X011347Y007367D02*
X011492Y007367D01*
X011492Y007446D02*
X011347Y007446D01*
X011347Y007524D02*
X011492Y007524D01*
X011492Y007603D02*
X011347Y007603D01*
X011347Y007681D02*
X011492Y007681D01*
X011492Y007760D02*
X011347Y007760D01*
X011347Y007838D02*
X011492Y007838D01*
X011492Y007917D02*
X011347Y007917D01*
X011347Y007995D02*
X011492Y007995D01*
X011492Y008074D02*
X011347Y008074D01*
X011347Y008153D02*
X011492Y008153D01*
X011492Y008231D02*
X011347Y008231D01*
X011347Y008310D02*
X011492Y008310D01*
X011492Y008388D02*
X011347Y008388D01*
X011347Y008467D02*
X011492Y008467D01*
X011492Y008545D02*
X011347Y008545D01*
X011347Y008624D02*
X011492Y008624D01*
X011492Y008702D02*
X011347Y008702D01*
X011347Y008781D02*
X011492Y008781D01*
X011492Y008859D02*
X011347Y008859D01*
X011347Y008938D02*
X011492Y008938D01*
X011492Y009016D02*
X011347Y009016D01*
X011347Y009095D02*
X011492Y009095D01*
X011492Y009174D02*
X011347Y009174D01*
X011347Y009252D02*
X011492Y009252D01*
X011492Y009331D02*
X011347Y009331D01*
X011347Y009409D02*
X011492Y009409D01*
X011492Y009488D02*
X011347Y009488D01*
X011347Y009566D02*
X011492Y009566D01*
X011492Y009645D02*
X011347Y009645D01*
X011347Y009723D02*
X011492Y009723D01*
X011492Y009802D02*
X011347Y009802D01*
X011347Y009880D02*
X011492Y009880D01*
X011492Y009959D02*
X011347Y009959D01*
X011347Y010038D02*
X011492Y010038D01*
X011492Y010116D02*
X011347Y010116D01*
X011347Y010195D02*
X011492Y010195D01*
X011492Y010273D02*
X011347Y010273D01*
X011347Y010352D02*
X011492Y010352D01*
X011492Y010430D02*
X011347Y010430D01*
X011347Y010509D02*
X011492Y010509D01*
X011492Y010587D02*
X011347Y010587D01*
X011347Y010666D02*
X011492Y010666D01*
X011492Y010744D02*
X011347Y010744D01*
X011347Y010823D02*
X011492Y010823D01*
X011492Y010902D02*
X011347Y010902D01*
X011347Y010980D02*
X011492Y010980D01*
X011492Y011059D02*
X011347Y011059D01*
X011347Y011137D02*
X011492Y011137D01*
X011492Y011216D02*
X011347Y011216D01*
X011347Y011294D02*
X011492Y011294D01*
X011492Y011373D02*
X011347Y011373D01*
X011347Y011451D02*
X011492Y011451D01*
X011492Y011530D02*
X011347Y011530D01*
X011347Y011608D02*
X011492Y011608D01*
X011492Y011687D02*
X011347Y011687D01*
X011347Y011766D02*
X011492Y011766D01*
X011492Y011844D02*
X011347Y011844D01*
X011347Y011923D02*
X011492Y011923D01*
X011492Y012001D02*
X011347Y012001D01*
X011347Y012080D02*
X011492Y012080D01*
X011492Y012158D02*
X011347Y012158D01*
X011347Y012237D02*
X011492Y012237D01*
X011492Y012315D02*
X011347Y012315D01*
X011347Y012394D02*
X011492Y012394D01*
X011492Y012472D02*
X011347Y012472D01*
X011347Y012551D02*
X011492Y012551D01*
X011492Y012629D02*
X011347Y012629D01*
X011347Y012708D02*
X011492Y012708D01*
X011492Y012787D02*
X011347Y012787D01*
X011347Y012865D02*
X011492Y012865D01*
X011492Y012944D02*
X011347Y012944D01*
X011347Y013022D02*
X011492Y013022D01*
X011492Y013101D02*
X011347Y013101D01*
X011347Y013179D02*
X011492Y013179D01*
X011492Y013258D02*
X011347Y013258D01*
X011347Y013336D02*
X011492Y013336D01*
X011492Y013415D02*
X011347Y013415D01*
X011347Y013493D02*
X011492Y013493D01*
X011492Y013572D02*
X011347Y013572D01*
X011347Y013651D02*
X011492Y013651D01*
X011492Y013729D02*
X011347Y013729D01*
X011347Y013808D02*
X011492Y013808D01*
X011492Y013886D02*
X011347Y013886D01*
X011347Y013965D02*
X011492Y013965D01*
X011492Y014043D02*
X011347Y014043D01*
X011347Y014122D02*
X011492Y014122D01*
X011492Y014200D02*
X011347Y014200D01*
X011347Y014279D02*
X011492Y014279D01*
X011492Y014357D02*
X011347Y014357D01*
X011347Y014436D02*
X011492Y014436D01*
X011492Y014515D02*
X011347Y014515D01*
X011347Y014593D02*
X011492Y014593D01*
X011492Y014672D02*
X011347Y014672D01*
X011347Y014750D02*
X011492Y014750D01*
X011492Y014829D02*
X011347Y014829D01*
X011347Y014907D02*
X011492Y014907D01*
X011492Y014986D02*
X011347Y014986D01*
X011347Y015064D02*
X011492Y015064D01*
X011492Y015143D02*
X011347Y015143D01*
X011347Y015221D02*
X011492Y015221D01*
X011492Y015300D02*
X011347Y015300D01*
X011347Y015379D02*
X011492Y015379D01*
X011492Y015457D02*
X011347Y015457D01*
X011347Y015536D02*
X011492Y015536D01*
X011492Y015614D02*
X011347Y015614D01*
X011347Y015693D02*
X011492Y015693D01*
X011492Y015771D02*
X011347Y015771D01*
X011347Y015850D02*
X011492Y015850D01*
X011492Y015928D02*
X011347Y015928D01*
X011347Y016007D02*
X011492Y016007D01*
X011492Y016085D02*
X011347Y016085D01*
X011347Y016164D02*
X011492Y016164D01*
X011492Y016242D02*
X011347Y016242D01*
X011347Y016321D02*
X011492Y016321D01*
X011492Y016400D02*
X011347Y016400D01*
X011347Y016478D02*
X011492Y016478D01*
X011492Y016557D02*
X011347Y016557D01*
X011347Y016635D02*
X011492Y016635D01*
X011492Y016714D02*
X011347Y016714D01*
X011347Y016792D02*
X011492Y016792D01*
X011492Y016871D02*
X011293Y016871D01*
X011187Y016750D02*
X011187Y015520D01*
X010929Y015520D01*
X010708Y015613D02*
X010726Y015656D01*
X010793Y015723D01*
X010832Y015740D01*
X010582Y015740D01*
X010708Y015613D01*
X010707Y015614D02*
X010709Y015614D01*
X010762Y015693D02*
X010629Y015693D01*
X010394Y015701D02*
X010800Y015295D01*
X010800Y014905D01*
X010832Y014509D02*
X010572Y014509D01*
X010705Y014376D01*
X010726Y014426D01*
X010793Y014493D01*
X010832Y014509D01*
X010736Y014436D02*
X010645Y014436D01*
X010394Y014461D02*
X010800Y014055D01*
X010800Y013675D01*
X010832Y013279D02*
X010554Y013279D01*
X010554Y013247D01*
X010691Y013111D01*
X010726Y013195D01*
X010793Y013263D01*
X010832Y013279D01*
X010788Y013258D02*
X010554Y013258D01*
X010622Y013179D02*
X010719Y013179D01*
X010929Y013059D02*
X011187Y013059D01*
X011187Y014290D01*
X010929Y014290D01*
X011026Y014509D02*
X011027Y014509D01*
X011026Y014509D01*
X011027Y014509D02*
X011027Y014509D01*
X011187Y014290D02*
X011187Y015520D01*
X011027Y015301D02*
X011027Y015300D01*
X011026Y015300D01*
X011027Y015301D01*
X011027Y015739D02*
X011026Y015740D01*
X011027Y015740D01*
X011027Y015739D01*
X010800Y016135D02*
X010800Y016495D01*
X010394Y016901D01*
X010394Y018021D01*
X010274Y018141D01*
X009874Y018141D01*
X009714Y017981D01*
X006354Y017981D01*
X005314Y016941D01*
X004064Y016941D01*
X004334Y016891D01*
X004334Y016391D02*
X005164Y016391D01*
X006594Y017821D01*
X009994Y017821D01*
X010074Y017901D01*
X009791Y018285D02*
X003586Y018285D01*
X003559Y018311D02*
X002909Y018311D01*
X002838Y018241D01*
X002838Y017709D01*
X002909Y017638D01*
X003559Y017638D01*
X003630Y017709D01*
X003630Y017815D01*
X004134Y017815D01*
X004194Y017755D01*
X004194Y017621D01*
X003894Y017621D01*
X003824Y017551D01*
X003824Y017231D01*
X003894Y017161D01*
X004774Y017161D01*
X004844Y017231D01*
X004844Y017551D01*
X004774Y017621D01*
X004514Y017621D01*
X004514Y017887D01*
X004420Y017981D01*
X004267Y018135D01*
X004134Y018135D01*
X003630Y018135D01*
X003630Y018241D01*
X003559Y018311D01*
X003630Y018206D02*
X009713Y018206D01*
X009676Y017661D02*
X009676Y017604D01*
X009673Y017605D01*
X009577Y017605D01*
X009489Y017569D01*
X009422Y017501D01*
X009398Y017444D01*
X009394Y017447D01*
X009300Y017541D01*
X008404Y017541D01*
X008404Y017551D01*
X008334Y017621D01*
X007454Y017621D01*
X007384Y017551D01*
X007384Y017231D01*
X007454Y017161D01*
X008334Y017161D01*
X008394Y017221D01*
X009168Y017221D01*
X009858Y016531D01*
X009746Y016531D01*
X009676Y016460D01*
X009676Y016374D01*
X009673Y016375D01*
X009577Y016375D01*
X009514Y016349D01*
X009514Y016675D01*
X009514Y016807D01*
X009364Y016957D01*
X009270Y017051D01*
X008404Y017051D01*
X008334Y017121D01*
X007454Y017121D01*
X007384Y017051D01*
X007384Y016731D01*
X007454Y016661D01*
X008334Y016661D01*
X008404Y016731D01*
X009138Y016731D01*
X009194Y016675D01*
X009194Y016447D01*
X009184Y016457D01*
X009090Y016551D01*
X008404Y016551D01*
X008334Y016621D01*
X007454Y016621D01*
X007384Y016551D01*
X007384Y016231D01*
X007454Y016161D01*
X008334Y016161D01*
X008404Y016231D01*
X008958Y016231D01*
X009034Y016155D01*
X009034Y016007D01*
X008990Y016051D01*
X008404Y016051D01*
X008334Y016121D01*
X007454Y016121D01*
X007384Y016051D01*
X007384Y015731D01*
X007454Y015661D01*
X008334Y015661D01*
X008404Y015731D01*
X008858Y015731D01*
X009034Y015555D01*
X009034Y015487D01*
X008970Y015551D01*
X008404Y015551D01*
X008334Y015621D01*
X007454Y015621D01*
X007384Y015551D01*
X007384Y015231D01*
X007454Y015161D01*
X008334Y015161D01*
X008404Y015231D01*
X008838Y015231D01*
X008874Y015195D01*
X008874Y014967D01*
X008790Y015051D01*
X008404Y015051D01*
X008334Y015121D01*
X007454Y015121D01*
X007384Y015051D01*
X007384Y014731D01*
X007454Y014661D01*
X008334Y014661D01*
X008404Y014731D01*
X008658Y014731D01*
X008714Y014675D01*
X008714Y014527D01*
X008690Y014551D01*
X008404Y014551D01*
X008334Y014621D01*
X007454Y014621D01*
X007384Y014551D01*
X007384Y014377D01*
X005554Y016207D01*
X005460Y016301D01*
X005300Y016301D01*
X006660Y017661D01*
X009676Y017661D01*
X009676Y017656D02*
X006655Y017656D01*
X006577Y017578D02*
X007411Y017578D01*
X007384Y017499D02*
X006498Y017499D01*
X006420Y017421D02*
X007384Y017421D01*
X007384Y017342D02*
X006341Y017342D01*
X006263Y017264D02*
X007384Y017264D01*
X007430Y017185D02*
X006184Y017185D01*
X006106Y017106D02*
X007440Y017106D01*
X007384Y017028D02*
X006027Y017028D01*
X005949Y016949D02*
X007384Y016949D01*
X007384Y016871D02*
X005870Y016871D01*
X005791Y016792D02*
X007384Y016792D01*
X007402Y016714D02*
X005713Y016714D01*
X005634Y016635D02*
X009194Y016635D01*
X009194Y016557D02*
X008398Y016557D01*
X008386Y016714D02*
X009155Y016714D01*
X009204Y016891D02*
X007894Y016891D01*
X007894Y016391D02*
X009024Y016391D01*
X009194Y016221D01*
X009194Y015861D01*
X009354Y015701D01*
X009354Y014621D01*
X009714Y014261D01*
X010114Y014261D01*
X010394Y013981D01*
X010394Y013181D01*
X010800Y012775D01*
X010800Y012444D01*
X010752Y012049D02*
X010554Y012049D01*
X010554Y011967D01*
X010620Y011902D01*
X010646Y011965D01*
X010713Y012033D01*
X010752Y012049D01*
X010682Y012001D02*
X010554Y012001D01*
X010599Y011923D02*
X010628Y011923D01*
X010394Y011901D02*
X010800Y011495D01*
X010800Y011214D01*
X010946Y011609D02*
X010985Y011626D01*
X011027Y011668D01*
X011027Y011609D01*
X010946Y011609D01*
X010849Y011829D02*
X011187Y011829D01*
X011187Y013059D01*
X011027Y012840D02*
X011027Y012840D01*
X011026Y012840D01*
X011027Y012840D01*
X011027Y013278D02*
X011026Y013279D01*
X011027Y013279D01*
X011027Y013278D01*
X011027Y014070D02*
X011027Y014071D01*
X011026Y014070D01*
X011027Y014070D01*
X010559Y014070D02*
X010534Y014070D01*
X010532Y014069D01*
X010274Y014327D01*
X010180Y014421D01*
X009780Y014421D01*
X009514Y014687D01*
X009514Y014691D01*
X009577Y014665D01*
X009673Y014665D01*
X009676Y014666D01*
X009676Y014580D01*
X009746Y014509D01*
X010234Y014509D01*
X010234Y014395D01*
X010328Y014301D01*
X010559Y014070D01*
X010507Y014122D02*
X010480Y014122D01*
X010429Y014200D02*
X010401Y014200D01*
X010350Y014279D02*
X010322Y014279D01*
X010328Y014301D02*
X010328Y014301D01*
X010271Y014357D02*
X010244Y014357D01*
X010234Y014436D02*
X009765Y014436D01*
X009741Y014515D02*
X009687Y014515D01*
X009676Y014593D02*
X009608Y014593D01*
X009561Y014672D02*
X009530Y014672D01*
X009625Y014905D02*
X010013Y014905D01*
X010208Y015300D02*
X009746Y015300D01*
X009514Y015300D01*
X009514Y015379D02*
X010130Y015379D01*
X010128Y015381D02*
X010208Y015300D01*
X010128Y015381D02*
X009820Y015381D01*
X009688Y015381D01*
X009514Y015555D01*
X009514Y015119D01*
X009577Y015145D01*
X009673Y015145D01*
X009676Y015143D01*
X009676Y015230D01*
X009746Y015300D01*
X009676Y015221D02*
X009514Y015221D01*
X009514Y015143D02*
X009573Y015143D01*
X009612Y015457D02*
X009514Y015457D01*
X009514Y015536D02*
X009533Y015536D01*
X009754Y015541D02*
X009354Y015941D01*
X009354Y016741D01*
X009204Y016891D01*
X009293Y017028D02*
X009361Y017028D01*
X009372Y016949D02*
X009439Y016949D01*
X009451Y016871D02*
X009518Y016871D01*
X009514Y016792D02*
X009597Y016792D01*
X009675Y016714D02*
X009514Y016714D01*
X009514Y016635D02*
X009754Y016635D01*
X009832Y016557D02*
X009514Y016557D01*
X009514Y016478D02*
X009694Y016478D01*
X009676Y016400D02*
X009514Y016400D01*
X009625Y016135D02*
X010013Y016135D01*
X010234Y015740D02*
X009782Y015740D01*
X009820Y015701D01*
X010234Y015701D01*
X010234Y015740D01*
X010194Y015541D02*
X009754Y015541D01*
X009676Y015845D02*
X009626Y015895D01*
X009673Y015895D01*
X009676Y015897D01*
X009676Y015845D01*
X009676Y015850D02*
X009672Y015850D01*
X009194Y015621D02*
X008924Y015891D01*
X007894Y015891D01*
X007894Y015391D02*
X008904Y015391D01*
X009034Y015261D01*
X009034Y014461D01*
X009194Y014301D01*
X009194Y013261D01*
X009354Y013101D01*
X009354Y012141D01*
X009714Y011781D01*
X010194Y011781D01*
X010394Y011581D01*
X010394Y010701D01*
X010234Y010701D02*
X009780Y010701D01*
X009514Y010967D01*
X009514Y011000D01*
X009577Y010974D01*
X009673Y010974D01*
X009676Y010975D01*
X009676Y010889D01*
X009746Y010818D01*
X010234Y010818D01*
X010234Y010701D01*
X010234Y010744D02*
X009737Y010744D01*
X009742Y010823D02*
X009658Y010823D01*
X009676Y010902D02*
X009580Y010902D01*
X009562Y010980D02*
X009514Y010980D01*
X009625Y011214D02*
X010013Y011214D01*
X010139Y011609D02*
X010128Y011621D01*
X009648Y011621D01*
X009554Y011715D01*
X009514Y011755D01*
X009514Y011428D01*
X009577Y011454D01*
X009673Y011454D01*
X009676Y011453D01*
X009676Y011539D01*
X009746Y011609D01*
X010139Y011609D01*
X010234Y011941D02*
X009780Y011941D01*
X009514Y012207D01*
X009514Y012230D01*
X009577Y012204D01*
X009673Y012204D01*
X009676Y012206D01*
X009676Y012119D01*
X009746Y012049D01*
X010234Y012049D01*
X010234Y011941D01*
X010234Y012001D02*
X009720Y012001D01*
X009715Y012080D02*
X009642Y012080D01*
X009676Y012158D02*
X009563Y012158D01*
X009625Y012444D02*
X010013Y012444D01*
X010109Y012840D02*
X009746Y012840D01*
X009676Y012770D01*
X009676Y012683D01*
X009673Y012684D01*
X009577Y012684D01*
X009514Y012658D01*
X009514Y012955D01*
X009608Y012861D01*
X009740Y012861D01*
X010088Y012861D01*
X010109Y012840D01*
X010154Y013021D02*
X009674Y013021D01*
X009354Y013341D01*
X009354Y014381D01*
X009194Y014541D01*
X009194Y015621D01*
X009034Y015536D02*
X008986Y015536D01*
X008975Y015614D02*
X008341Y015614D01*
X008365Y015693D02*
X008896Y015693D01*
X009034Y016085D02*
X008369Y016085D01*
X008336Y016164D02*
X009025Y016164D01*
X009163Y016478D02*
X009194Y016478D01*
X009282Y017106D02*
X008348Y017106D01*
X008358Y017185D02*
X009204Y017185D01*
X009234Y017381D02*
X007904Y017381D01*
X007894Y017391D01*
X007604Y017421D01*
X007624Y017341D02*
X007894Y017391D01*
X008377Y017578D02*
X009510Y017578D01*
X009421Y017499D02*
X009342Y017499D01*
X009234Y017381D02*
X009954Y016661D01*
X010234Y016661D01*
X010394Y016501D01*
X010394Y015701D01*
X010194Y015541D02*
X010394Y015341D01*
X010394Y014461D01*
X010048Y014101D02*
X010079Y014070D01*
X009746Y014070D01*
X009676Y014000D01*
X009676Y013913D01*
X009673Y013915D01*
X009577Y013915D01*
X009514Y013888D01*
X009514Y014235D01*
X009648Y014101D01*
X009780Y014101D01*
X010048Y014101D01*
X010013Y013675D02*
X009625Y013675D01*
X009514Y013461D02*
X009577Y013435D01*
X009673Y013435D01*
X009676Y013436D01*
X009676Y013349D01*
X009746Y013279D01*
X010234Y013279D01*
X010234Y013167D01*
X010220Y013181D01*
X009740Y013181D01*
X009514Y013407D01*
X009514Y013461D01*
X009514Y013415D02*
X009676Y013415D01*
X009689Y013336D02*
X009585Y013336D01*
X009664Y013258D02*
X010234Y013258D01*
X010222Y013179D02*
X010234Y013179D01*
X010154Y013021D02*
X010394Y012781D01*
X010394Y011901D01*
X010946Y012049D02*
X011027Y012049D01*
X011027Y011990D01*
X010985Y012033D01*
X010946Y012049D01*
X011017Y012001D02*
X011027Y012001D01*
X011187Y011829D02*
X011187Y010599D01*
X011027Y010818D02*
X011026Y010818D01*
X011027Y010818D01*
X011027Y010818D01*
X011027Y010380D02*
X011027Y010379D01*
X011026Y010379D01*
X011027Y010380D01*
X011026Y009588D02*
X011027Y009588D01*
X011027Y009588D01*
X011026Y009588D01*
X010170Y010379D02*
X009746Y010379D01*
X009676Y010309D01*
X009676Y010222D01*
X009673Y010224D01*
X009577Y010224D01*
X009514Y010197D01*
X009514Y010515D01*
X009648Y010381D01*
X009780Y010381D01*
X010168Y010381D01*
X010170Y010379D01*
X009719Y010352D02*
X009514Y010352D01*
X009514Y010430D02*
X009599Y010430D01*
X009520Y010509D02*
X009514Y010509D01*
X009514Y010273D02*
X009676Y010273D01*
X009541Y009488D02*
X009514Y009488D01*
X009514Y009409D02*
X009900Y009409D01*
X009978Y009331D02*
X009514Y009331D01*
X009514Y009095D02*
X009692Y009095D01*
X009676Y009016D02*
X009514Y009016D01*
X009625Y008753D02*
X010013Y008753D01*
X010234Y008358D02*
X010234Y008261D01*
X009780Y008261D01*
X009514Y008527D01*
X009514Y008540D01*
X009577Y008513D01*
X009673Y008513D01*
X009676Y008515D01*
X009676Y008428D01*
X009746Y008358D01*
X010234Y008358D01*
X010234Y008310D02*
X009732Y008310D01*
X009716Y008388D02*
X009653Y008388D01*
X009676Y008467D02*
X009575Y008467D01*
X009354Y008461D02*
X009714Y008101D01*
X010194Y008101D01*
X010394Y007901D01*
X010394Y007021D01*
X010013Y007523D02*
X009625Y007523D01*
X009718Y006660D02*
X009244Y006660D01*
X009244Y006582D02*
X009676Y006582D01*
X009258Y005796D02*
X008914Y005796D01*
X008914Y005718D02*
X009337Y005718D01*
X009416Y005639D02*
X008914Y005639D01*
X008914Y005561D02*
X009494Y005561D01*
X009573Y005482D02*
X008914Y005482D01*
X008914Y005404D02*
X009651Y005404D01*
X009730Y005325D02*
X008914Y005325D01*
X008978Y004854D02*
X009288Y004854D01*
X009255Y004775D02*
X008263Y004775D01*
X008274Y004697D02*
X009255Y004697D01*
X009255Y004618D02*
X008259Y004618D01*
X008212Y004540D02*
X009255Y004540D01*
X009279Y004461D02*
X008988Y004461D01*
X008993Y004451D02*
X008975Y004483D01*
X008949Y004509D01*
X008917Y004527D01*
X008881Y004537D01*
X008744Y004537D01*
X008744Y004298D01*
X009003Y004298D01*
X009003Y004415D01*
X008993Y004451D01*
X009003Y004382D02*
X011492Y004382D01*
X011492Y004304D02*
X009003Y004304D01*
X009003Y004225D02*
X011492Y004225D01*
X011492Y004147D02*
X009003Y004147D01*
X008969Y004068D02*
X011492Y004068D01*
X011492Y003990D02*
X008996Y003990D01*
X008999Y003911D02*
X011492Y003911D01*
X011492Y003833D02*
X008999Y003833D01*
X008999Y003754D02*
X011492Y003754D01*
X011492Y003676D02*
X008999Y003676D01*
X008999Y003597D02*
X011492Y003597D01*
X011492Y004461D02*
X009747Y004461D01*
X010446Y004854D02*
X010807Y004854D01*
X011187Y006908D02*
X011187Y008138D01*
X011027Y007919D02*
X011027Y007919D01*
X011026Y007919D01*
X011027Y007919D01*
X011027Y008357D02*
X011026Y008358D01*
X011027Y008358D01*
X011027Y008357D01*
X011026Y007127D02*
X011027Y007127D01*
X011026Y007127D01*
X011027Y007127D02*
X011027Y007127D01*
X009180Y005875D02*
X008914Y005875D01*
X008914Y005953D02*
X009101Y005953D01*
X009023Y006032D02*
X008914Y006032D01*
X008914Y006110D02*
X008944Y006110D01*
X008594Y006110D02*
X008034Y006110D01*
X008034Y006032D02*
X008594Y006032D01*
X008594Y005953D02*
X008034Y005953D01*
X008034Y005875D02*
X008594Y005875D01*
X008594Y005796D02*
X008034Y005796D01*
X008034Y005718D02*
X008594Y005718D01*
X008594Y005639D02*
X008034Y005639D01*
X008034Y005561D02*
X008594Y005561D01*
X008594Y005482D02*
X008034Y005482D01*
X008034Y005404D02*
X008594Y005404D01*
X008594Y005325D02*
X008034Y005325D01*
X008034Y005246D02*
X008519Y005246D01*
X008467Y005168D02*
X008034Y005168D01*
X008034Y005089D02*
X008467Y005089D01*
X008467Y005011D02*
X008034Y005011D01*
X008109Y004932D02*
X008467Y004932D01*
X008472Y004854D02*
X008221Y004854D01*
X008034Y004781D02*
X007874Y004941D01*
X007874Y010871D01*
X007894Y010891D01*
X007924Y010891D01*
X007874Y010861D01*
X007714Y010661D02*
X007660Y010661D01*
X007714Y010607D01*
X007714Y010661D01*
X007306Y011373D02*
X007154Y011373D01*
X007154Y011451D02*
X007384Y011451D01*
X007384Y011530D02*
X007154Y011530D01*
X007154Y011608D02*
X007442Y011608D01*
X007454Y011661D02*
X007384Y011731D01*
X007384Y012051D01*
X007454Y012121D01*
X008334Y012121D01*
X008344Y012111D01*
X008344Y012171D01*
X008334Y012161D01*
X007454Y012161D01*
X007384Y012231D01*
X007384Y012551D01*
X007384Y012472D02*
X006954Y012472D01*
X006954Y012394D02*
X007384Y012394D01*
X007384Y012315D02*
X006954Y012315D01*
X006954Y012237D02*
X007384Y012237D01*
X007413Y012080D02*
X007213Y012080D01*
X007313Y012001D02*
X007384Y012001D01*
X007384Y011923D02*
X007348Y011923D01*
X007354Y011844D02*
X007384Y011844D01*
X007384Y011766D02*
X007334Y011766D01*
X007198Y011294D02*
X007154Y011294D01*
X007154Y011216D02*
X007154Y011216D01*
X007154Y011129D02*
X007154Y011129D01*
X007154Y010927D01*
X007154Y010927D01*
X007154Y011129D01*
X007154Y011059D02*
X007154Y011059D01*
X007154Y010980D02*
X007154Y010980D01*
X007015Y012080D02*
X006954Y012080D01*
X006954Y012158D02*
X008344Y012158D01*
X008684Y012708D02*
X008714Y012708D01*
X008714Y012787D02*
X008684Y012787D01*
X008554Y013541D02*
X008534Y013561D01*
X008394Y013561D01*
X008334Y013621D01*
X007474Y013621D01*
X007474Y013661D01*
X008334Y013661D01*
X008404Y013731D01*
X008498Y013731D01*
X008554Y013675D01*
X008554Y013541D01*
X008554Y013572D02*
X008383Y013572D01*
X008402Y013729D02*
X008500Y013729D01*
X008554Y013651D02*
X007474Y013651D01*
X007252Y013336D02*
X006954Y013336D01*
X006954Y013258D02*
X007384Y013258D01*
X007436Y013179D02*
X006954Y013179D01*
X006954Y013101D02*
X007406Y013101D01*
X007418Y013113D02*
X007392Y013087D01*
X007374Y013055D01*
X007364Y013020D01*
X007364Y012906D01*
X007879Y012906D01*
X007879Y013141D01*
X007486Y013141D01*
X007450Y013132D01*
X007418Y013113D01*
X007365Y013022D02*
X006954Y013022D01*
X006954Y012944D02*
X007364Y012944D01*
X007364Y012876D02*
X007364Y012763D01*
X007374Y012727D01*
X007392Y012695D01*
X007418Y012669D01*
X007450Y012651D01*
X007486Y012641D01*
X007879Y012641D01*
X007879Y012876D01*
X007364Y012876D01*
X007364Y012865D02*
X006954Y012865D01*
X006954Y012787D02*
X007364Y012787D01*
X007384Y012708D02*
X006954Y012708D01*
X006954Y013415D02*
X007174Y013415D01*
X007154Y013493D02*
X006954Y013493D01*
X006954Y013572D02*
X007154Y013572D01*
X007154Y013651D02*
X006954Y013651D01*
X006954Y013729D02*
X007154Y013729D01*
X007154Y013808D02*
X006954Y013808D01*
X006954Y013886D02*
X007154Y013886D01*
X007154Y013965D02*
X006954Y013965D01*
X006954Y014043D02*
X007154Y014043D01*
X007154Y014122D02*
X006954Y014122D01*
X006954Y014200D02*
X007108Y014200D01*
X007030Y014279D02*
X006922Y014279D01*
X006951Y014357D02*
X006844Y014357D01*
X006873Y014436D02*
X006765Y014436D01*
X006794Y014515D02*
X006687Y014515D01*
X006716Y014593D02*
X004802Y014593D01*
X004784Y014672D02*
X006637Y014672D01*
X006559Y014750D02*
X004844Y014750D01*
X004844Y014829D02*
X006480Y014829D01*
X006402Y014907D02*
X004844Y014907D01*
X004844Y014986D02*
X006323Y014986D01*
X006244Y015064D02*
X004830Y015064D01*
X004834Y015221D02*
X006087Y015221D01*
X006166Y015143D02*
X003914Y015143D01*
X003884Y014672D02*
X003749Y014672D01*
X003749Y014593D02*
X003866Y014593D01*
X003354Y014672D02*
X003274Y014672D01*
X003274Y014750D02*
X003354Y014750D01*
X003354Y014829D02*
X003274Y014829D01*
X003274Y014907D02*
X003354Y014907D01*
X003729Y013808D02*
X003804Y013808D01*
X003813Y013729D02*
X003729Y013729D01*
X003729Y013651D02*
X003890Y013651D01*
X003845Y013572D02*
X003730Y013572D01*
X003684Y013391D02*
X003664Y013391D01*
X003474Y013581D01*
X002994Y013581D01*
X002834Y013421D01*
X002834Y007741D01*
X003474Y007101D01*
X003474Y006441D01*
X003434Y006401D01*
X004124Y006425D02*
X004598Y006425D01*
X004608Y006503D02*
X004124Y006503D01*
X004124Y006346D02*
X004598Y006346D01*
X004598Y006267D02*
X004124Y006267D01*
X004124Y006189D02*
X004598Y006189D01*
X004598Y006110D02*
X004124Y006110D01*
X004124Y006032D02*
X004598Y006032D01*
X004606Y005953D02*
X004124Y005953D01*
X004124Y005875D02*
X004834Y005875D01*
X004834Y005796D02*
X004124Y005796D01*
X004124Y005718D02*
X004635Y005718D01*
X004624Y005639D02*
X004124Y005639D01*
X004135Y005561D02*
X004624Y005561D01*
X004624Y005482D02*
X004288Y005482D01*
X004391Y005404D02*
X004624Y005404D01*
X004624Y005325D02*
X004427Y005325D01*
X004434Y005246D02*
X004624Y005246D01*
X004624Y005168D02*
X004415Y005168D01*
X004362Y005089D02*
X004670Y005089D01*
X004981Y005421D02*
X004994Y005514D01*
X004994Y006227D01*
X004608Y006739D02*
X004124Y006739D01*
X004124Y006817D02*
X004598Y006817D01*
X004202Y007760D02*
X005302Y007760D01*
X005302Y007838D02*
X004123Y007838D01*
X004044Y007917D02*
X004564Y007917D01*
X004338Y007995D02*
X003966Y007995D01*
X003879Y008153D02*
X003434Y008153D01*
X003434Y008231D02*
X003765Y008231D01*
X003724Y008310D02*
X003434Y008310D01*
X003434Y008388D02*
X003714Y008388D01*
X003730Y008467D02*
X003434Y008467D01*
X003434Y008545D02*
X003779Y008545D01*
X003434Y008074D02*
X004184Y008074D01*
X004471Y008310D02*
X004522Y008310D01*
X005030Y007995D02*
X005370Y007995D01*
X005302Y007917D02*
X004981Y007917D01*
X005541Y008310D02*
X005579Y008310D01*
X005579Y008388D02*
X005541Y008388D01*
X005541Y008467D02*
X005579Y008467D01*
X005579Y008545D02*
X005541Y008545D01*
X005541Y008624D02*
X005579Y008624D01*
X005579Y008702D02*
X005541Y008702D01*
X006473Y009409D02*
X006527Y009409D01*
X005538Y010352D02*
X005031Y010352D01*
X005109Y010430D02*
X005555Y010430D01*
X005587Y010509D02*
X005188Y010509D01*
X004034Y009821D02*
X003954Y009821D01*
X003434Y010201D02*
X003434Y011887D01*
X003314Y012007D01*
X003420Y012007D01*
X003794Y012381D01*
X003794Y012621D01*
X003812Y012865D02*
X003749Y012865D01*
X003749Y012944D02*
X003824Y012944D01*
X003824Y013022D02*
X003749Y013022D01*
X003718Y013101D02*
X003874Y013101D01*
X003876Y013179D02*
X002994Y013179D01*
X002994Y013258D02*
X003571Y013258D01*
X003492Y013336D02*
X002994Y013336D01*
X003274Y013101D02*
X003354Y013101D01*
X003354Y013022D02*
X003274Y013022D01*
X003274Y012944D02*
X003354Y012944D01*
X003354Y012865D02*
X003274Y012865D01*
X003684Y013391D02*
X003314Y013767D01*
X003684Y013391D02*
X004334Y013391D01*
X004319Y013651D02*
X004349Y013651D01*
X004349Y013729D02*
X004319Y013729D01*
X004319Y013808D02*
X004349Y013808D01*
X004349Y013965D02*
X004319Y013965D01*
X004319Y014043D02*
X004349Y014043D01*
X004349Y014122D02*
X004319Y014122D01*
X004795Y014122D02*
X006627Y014122D01*
X006634Y014043D02*
X004858Y014043D01*
X004864Y013965D02*
X006634Y013965D01*
X006548Y014200D02*
X004813Y014200D01*
X004844Y015300D02*
X006009Y015300D01*
X005930Y015379D02*
X004844Y015379D01*
X004844Y015457D02*
X005852Y015457D01*
X005773Y015536D02*
X004844Y015536D01*
X004781Y015614D02*
X005695Y015614D01*
X005616Y015693D02*
X004805Y015693D01*
X004844Y015771D02*
X005538Y015771D01*
X005459Y015850D02*
X004844Y015850D01*
X004844Y015928D02*
X005381Y015928D01*
X005597Y016164D02*
X007451Y016164D01*
X007419Y016085D02*
X005676Y016085D01*
X005754Y016007D02*
X007384Y016007D01*
X007384Y015928D02*
X005833Y015928D01*
X005912Y015850D02*
X007384Y015850D01*
X007384Y015771D02*
X005990Y015771D01*
X006069Y015693D02*
X007423Y015693D01*
X007447Y015614D02*
X006147Y015614D01*
X006226Y015536D02*
X007384Y015536D01*
X007384Y015457D02*
X006304Y015457D01*
X006383Y015379D02*
X007384Y015379D01*
X007384Y015300D02*
X006461Y015300D01*
X006540Y015221D02*
X007394Y015221D01*
X007398Y015064D02*
X006697Y015064D01*
X006776Y014986D02*
X007384Y014986D01*
X007384Y014907D02*
X006854Y014907D01*
X006933Y014829D02*
X007384Y014829D01*
X007384Y014750D02*
X007011Y014750D01*
X007090Y014672D02*
X007444Y014672D01*
X007426Y014593D02*
X007168Y014593D01*
X007247Y014515D02*
X007384Y014515D01*
X007384Y014436D02*
X007325Y014436D01*
X007474Y014161D02*
X008334Y014161D01*
X008404Y014231D01*
X008558Y014231D01*
X008714Y014075D01*
X008714Y013967D01*
X008630Y014051D01*
X008404Y014051D01*
X008334Y014121D01*
X007474Y014121D01*
X007474Y014155D01*
X007474Y014161D01*
X007474Y014122D02*
X008667Y014122D01*
X008638Y014043D02*
X008714Y014043D01*
X008588Y014200D02*
X008373Y014200D01*
X008362Y014593D02*
X008714Y014593D01*
X008714Y014672D02*
X008344Y014672D01*
X008390Y015064D02*
X008874Y015064D01*
X008874Y014986D02*
X008856Y014986D01*
X008874Y015143D02*
X006618Y015143D01*
X007384Y016242D02*
X005519Y016242D01*
X005399Y016400D02*
X007384Y016400D01*
X007384Y016478D02*
X005477Y016478D01*
X005556Y016557D02*
X007390Y016557D01*
X007384Y016321D02*
X005320Y016321D01*
X005098Y016551D02*
X004844Y016551D01*
X004774Y016621D01*
X003914Y016621D01*
X003914Y016661D01*
X004774Y016661D01*
X004844Y016731D01*
X004844Y016781D01*
X005248Y016781D01*
X005328Y016781D01*
X005098Y016551D01*
X005103Y016557D02*
X004838Y016557D01*
X004826Y016714D02*
X005260Y016714D01*
X005182Y016635D02*
X003914Y016635D01*
X003824Y016871D02*
X003771Y016871D01*
X003824Y016949D02*
X003692Y016949D01*
X003630Y017028D02*
X003824Y017028D01*
X003880Y017106D02*
X003630Y017106D01*
X003630Y017185D02*
X003870Y017185D01*
X003824Y017264D02*
X003630Y017264D01*
X003630Y017342D02*
X003824Y017342D01*
X003824Y017421D02*
X003630Y017421D01*
X003584Y017499D02*
X003824Y017499D01*
X003851Y017578D02*
X001939Y017578D01*
X001939Y017656D02*
X002891Y017656D01*
X002838Y017735D02*
X001939Y017735D01*
X001939Y017813D02*
X002838Y017813D01*
X002838Y017892D02*
X001939Y017892D01*
X001939Y017970D02*
X002838Y017970D01*
X002838Y018049D02*
X001939Y018049D01*
X001939Y018128D02*
X002838Y018128D01*
X002838Y018206D02*
X001939Y018206D01*
X001939Y018285D02*
X002882Y018285D01*
X003234Y017975D02*
X004200Y017975D01*
X004354Y017821D01*
X004354Y017411D01*
X004334Y017391D01*
X004194Y017656D02*
X003577Y017656D01*
X003630Y017735D02*
X004194Y017735D01*
X004135Y017813D02*
X003630Y017813D01*
X004274Y018128D02*
X006274Y018128D01*
X006196Y018049D02*
X004352Y018049D01*
X004431Y017970D02*
X006117Y017970D01*
X006039Y017892D02*
X004509Y017892D01*
X004514Y017813D02*
X005960Y017813D01*
X005881Y017735D02*
X004514Y017735D01*
X004514Y017656D02*
X005803Y017656D01*
X005724Y017578D02*
X004817Y017578D01*
X004844Y017499D02*
X005646Y017499D01*
X005567Y017421D02*
X004844Y017421D01*
X004844Y017342D02*
X005489Y017342D01*
X005410Y017264D02*
X004844Y017264D01*
X004798Y017185D02*
X005332Y017185D01*
X005253Y017106D02*
X004788Y017106D01*
X004334Y016391D02*
X004004Y016381D01*
X002952Y016714D02*
X002649Y016714D01*
X002621Y016635D02*
X002899Y016635D01*
X002899Y016557D02*
X002555Y016557D01*
X002838Y017028D02*
X001939Y017028D01*
X001939Y017106D02*
X002838Y017106D01*
X002838Y017185D02*
X001939Y017185D01*
X001939Y017264D02*
X002838Y017264D01*
X002838Y017342D02*
X001939Y017342D01*
X001939Y017421D02*
X002838Y017421D01*
X002884Y017499D02*
X001939Y017499D01*
X001939Y018363D02*
X006525Y018363D01*
X006556Y018350D02*
X006831Y018350D01*
X007086Y018455D01*
X007280Y018650D01*
X007385Y018904D01*
X007385Y019179D01*
X007280Y019433D01*
X007086Y019627D01*
X006991Y019666D01*
X007836Y019620D01*
X008943Y019438D01*
X010024Y019136D01*
X011066Y018718D01*
X011492Y018506D01*
X011492Y001461D01*
X011066Y001249D01*
X010024Y000831D01*
X008943Y000530D01*
X007836Y000347D01*
X006715Y000286D01*
X005595Y000347D01*
X004487Y000530D01*
X003406Y000831D01*
X002365Y001249D01*
X001939Y001461D01*
X001939Y018506D01*
X002365Y018718D01*
X003406Y019136D01*
X004487Y019438D01*
X005595Y019620D01*
X006391Y019663D01*
X006302Y019627D01*
X006108Y019433D01*
X006003Y019179D01*
X006003Y018904D01*
X006108Y018650D01*
X006302Y018455D01*
X006556Y018350D01*
X006335Y018442D02*
X001939Y018442D01*
X001967Y018520D02*
X006237Y018520D01*
X006159Y018599D02*
X002125Y018599D01*
X002282Y018677D02*
X006097Y018677D01*
X006064Y018756D02*
X002458Y018756D01*
X002654Y018834D02*
X006031Y018834D01*
X006003Y018913D02*
X002850Y018913D01*
X003046Y018991D02*
X006003Y018991D01*
X006003Y019070D02*
X003242Y019070D01*
X003452Y019149D02*
X006003Y019149D01*
X006023Y019227D02*
X003733Y019227D01*
X004015Y019306D02*
X006056Y019306D01*
X006088Y019384D02*
X004296Y019384D01*
X004640Y019463D02*
X006138Y019463D01*
X006217Y019541D02*
X005117Y019541D01*
X005593Y019620D02*
X006295Y019620D01*
X007053Y018442D02*
X011492Y018442D01*
X011492Y018363D02*
X006863Y018363D01*
X007151Y018520D02*
X011463Y018520D01*
X011492Y018285D02*
X010357Y018285D01*
X010435Y018206D02*
X011492Y018206D01*
X011492Y018128D02*
X010754Y018128D01*
X010866Y018049D02*
X011492Y018049D01*
X011492Y017970D02*
X010905Y017970D01*
X010914Y017892D02*
X011492Y017892D01*
X011492Y017813D02*
X010897Y017813D01*
X011092Y017735D02*
X011492Y017735D01*
X011492Y017656D02*
X011136Y017656D01*
X011136Y017578D02*
X011492Y017578D01*
X011492Y017499D02*
X011136Y017499D01*
X011136Y017421D02*
X011492Y017421D01*
X011492Y017342D02*
X011136Y017342D01*
X011136Y017264D02*
X011492Y017264D01*
X011492Y017185D02*
X011136Y017185D01*
X011136Y017106D02*
X011492Y017106D01*
X011492Y017028D02*
X011124Y017028D01*
X011070Y016949D02*
X011492Y016949D01*
X011187Y016750D02*
X010929Y016750D01*
X011027Y016531D02*
X011026Y016531D01*
X011027Y016531D01*
X011027Y016531D01*
X010699Y016822D02*
X010726Y016886D01*
X010793Y016954D01*
X010832Y016970D01*
X010554Y016970D01*
X010554Y016967D01*
X010699Y016822D01*
X010719Y016871D02*
X010651Y016871D01*
X010572Y016949D02*
X010789Y016949D01*
X010800Y017366D02*
X010674Y017480D01*
X010674Y017901D01*
X010594Y018128D02*
X010514Y018128D01*
X010777Y018834D02*
X007356Y018834D01*
X007385Y018913D02*
X010581Y018913D01*
X010385Y018991D02*
X007385Y018991D01*
X007385Y019070D02*
X010189Y019070D01*
X009979Y019149D02*
X007385Y019149D01*
X007365Y019227D02*
X009697Y019227D01*
X009416Y019306D02*
X007333Y019306D01*
X007300Y019384D02*
X009134Y019384D01*
X008791Y019463D02*
X007250Y019463D01*
X007171Y019541D02*
X008314Y019541D01*
X007837Y019620D02*
X007093Y019620D01*
X007324Y018756D02*
X010973Y018756D01*
X011148Y018677D02*
X007291Y018677D01*
X007229Y018599D02*
X011306Y018599D01*
X010800Y017366D02*
X010730Y017366D01*
X010234Y016970D02*
X009871Y016970D01*
X010020Y016821D01*
X010248Y016821D01*
X010234Y016835D01*
X010234Y016970D01*
X010234Y016949D02*
X009892Y016949D01*
X009971Y016871D02*
X010234Y016871D01*
X010013Y017366D02*
X009625Y017366D01*
X010554Y015315D02*
X010568Y015300D01*
X010554Y015300D01*
X010554Y015315D01*
X009719Y014043D02*
X009514Y014043D01*
X009514Y013965D02*
X009676Y013965D01*
X009627Y014122D02*
X009514Y014122D01*
X009514Y014200D02*
X009548Y014200D01*
X008847Y015221D02*
X008394Y015221D01*
X007909Y013101D02*
X007879Y013101D01*
X007879Y013022D02*
X007909Y013022D01*
X007909Y012944D02*
X007879Y012944D01*
X007879Y012865D02*
X007909Y012865D01*
X007909Y012787D02*
X007879Y012787D01*
X007879Y012708D02*
X007909Y012708D01*
X009514Y012708D02*
X009676Y012708D01*
X009693Y012787D02*
X009514Y012787D01*
X009514Y012865D02*
X009604Y012865D01*
X009525Y012944D02*
X009514Y012944D01*
X009554Y011715D02*
X009554Y011715D01*
X009582Y011687D02*
X009514Y011687D01*
X009514Y011608D02*
X009745Y011608D01*
X009676Y011530D02*
X009514Y011530D01*
X009514Y011451D02*
X009571Y011451D01*
X008554Y009174D02*
X008034Y009174D01*
X008554Y009095D02*
X008634Y009095D01*
X008634Y009016D02*
X008554Y009016D01*
X008554Y008938D02*
X008634Y008938D01*
X008634Y008859D02*
X008554Y008859D01*
X008602Y007289D02*
X008034Y007289D01*
X008034Y007210D02*
X008539Y007210D01*
X008547Y006974D02*
X008034Y006974D01*
X008034Y006896D02*
X008594Y006896D01*
X008594Y006817D02*
X008034Y006817D01*
X008034Y006739D02*
X008594Y006739D01*
X008594Y006660D02*
X008034Y006660D01*
X008034Y006582D02*
X008594Y006582D01*
X008594Y006503D02*
X008034Y006503D01*
X008034Y006425D02*
X008594Y006425D01*
X008594Y006346D02*
X008034Y006346D01*
X008034Y006267D02*
X008594Y006267D01*
X008594Y006189D02*
X008034Y006189D01*
X008034Y004781D02*
X008034Y004701D01*
X007856Y004540D02*
X007812Y004540D01*
X008706Y004461D02*
X008744Y004461D01*
X008744Y004382D02*
X008706Y004382D01*
X008706Y004304D02*
X008744Y004304D01*
X008878Y001932D02*
X008506Y001932D01*
X008506Y001340D01*
X008999Y001340D01*
X008999Y001811D01*
X008990Y001846D01*
X008971Y001878D01*
X008945Y001904D01*
X008913Y001923D01*
X008878Y001932D01*
X008977Y001869D02*
X011492Y001869D01*
X011492Y001791D02*
X008999Y001791D01*
X008999Y001712D02*
X011492Y001712D01*
X011492Y001633D02*
X008999Y001633D01*
X008999Y001555D02*
X011492Y001555D01*
X011492Y001476D02*
X008999Y001476D01*
X008999Y001398D02*
X011365Y001398D01*
X011207Y001319D02*
X008506Y001319D01*
X008506Y001340D02*
X008506Y001260D01*
X008999Y001260D01*
X008999Y000789D01*
X008990Y000754D01*
X008971Y000722D01*
X008945Y000696D01*
X008913Y000677D01*
X008878Y000668D01*
X008506Y000668D01*
X008506Y001260D01*
X008426Y001260D01*
X008426Y000668D01*
X008054Y000668D01*
X008018Y000677D01*
X007986Y000696D01*
X007960Y000722D01*
X007941Y000754D01*
X007932Y000789D01*
X007932Y001260D01*
X008426Y001260D01*
X008426Y001340D01*
X008426Y001932D01*
X008054Y001932D01*
X008018Y001923D01*
X007986Y001904D01*
X007960Y001878D01*
X007941Y001846D01*
X007932Y001811D01*
X007932Y001340D01*
X008426Y001340D01*
X008506Y001340D01*
X008506Y001398D02*
X008426Y001398D01*
X008426Y001476D02*
X008506Y001476D01*
X008506Y001555D02*
X008426Y001555D01*
X008426Y001633D02*
X008506Y001633D01*
X008506Y001712D02*
X008426Y001712D01*
X008426Y001791D02*
X008506Y001791D01*
X008506Y001869D02*
X008426Y001869D01*
X008426Y001319D02*
X004962Y001319D01*
X004962Y001241D02*
X004882Y001241D01*
X004882Y001319D02*
X004309Y001319D01*
X004309Y001241D02*
X004389Y001241D01*
X004389Y001162D02*
X004306Y001162D01*
X004260Y001084D02*
X004389Y001084D01*
X004389Y001005D02*
X002973Y001005D01*
X003169Y000927D02*
X004389Y000927D01*
X004389Y000848D02*
X003365Y000848D01*
X003493Y001079D02*
X003525Y001061D01*
X003560Y001051D01*
X003834Y001051D01*
X003834Y001407D01*
X003439Y001407D01*
X003439Y001173D01*
X003448Y001137D01*
X003467Y001105D01*
X003493Y001079D01*
X003488Y001084D02*
X002777Y001084D01*
X002581Y001162D02*
X003442Y001162D01*
X003439Y001241D02*
X002385Y001241D01*
X002223Y001319D02*
X003439Y001319D01*
X003439Y001398D02*
X002066Y001398D01*
X001939Y001476D02*
X003834Y001476D01*
X003834Y001398D02*
X003914Y001398D01*
X003914Y001476D02*
X004389Y001476D01*
X004389Y001398D02*
X004309Y001398D01*
X004389Y001340D02*
X004389Y001811D01*
X004398Y001846D01*
X004417Y001878D01*
X004443Y001904D01*
X004475Y001923D01*
X004510Y001932D01*
X004882Y001932D01*
X004882Y001340D01*
X004389Y001340D01*
X004389Y001555D02*
X004309Y001555D01*
X004309Y001633D02*
X004389Y001633D01*
X004389Y001712D02*
X004309Y001712D01*
X004280Y001791D02*
X004389Y001791D01*
X004411Y001869D02*
X004269Y001869D01*
X003874Y002195D02*
X004060Y002381D01*
X003734Y002576D02*
X005189Y002576D01*
X005267Y002654D02*
X003655Y002654D01*
X003459Y002340D02*
X003068Y002340D01*
X003071Y002419D02*
X003410Y002419D01*
X003331Y002497D02*
X003071Y002497D01*
X003459Y002262D02*
X001939Y002262D01*
X001939Y002340D02*
X002440Y002340D01*
X002437Y002419D02*
X001939Y002419D01*
X001939Y002497D02*
X002437Y002497D01*
X002437Y002576D02*
X001939Y002576D01*
X001939Y002654D02*
X002437Y002654D01*
X002437Y002733D02*
X001939Y002733D01*
X001939Y002812D02*
X002153Y002812D01*
X002068Y002890D02*
X001939Y002890D01*
X001939Y002969D02*
X002036Y002969D01*
X002034Y003047D02*
X001939Y003047D01*
X001939Y003126D02*
X002058Y003126D01*
X002068Y003204D02*
X001939Y003204D01*
X001939Y003283D02*
X002063Y003283D01*
X002063Y003361D02*
X001939Y003361D01*
X001939Y003440D02*
X002063Y003440D01*
X002063Y003518D02*
X001939Y003518D01*
X001939Y003597D02*
X002063Y003597D01*
X002063Y003676D02*
X001939Y003676D01*
X001939Y003754D02*
X002063Y003754D01*
X002063Y003833D02*
X001939Y003833D01*
X001939Y003911D02*
X002115Y003911D01*
X002220Y003990D02*
X001939Y003990D01*
X001939Y004068D02*
X002209Y004068D01*
X002089Y004147D02*
X001939Y004147D01*
X001939Y004225D02*
X002046Y004225D01*
X002034Y004304D02*
X001939Y004304D01*
X001939Y004382D02*
X002048Y004382D01*
X002094Y004461D02*
X001939Y004461D01*
X001939Y004540D02*
X002223Y004540D01*
X002325Y004540D02*
X002705Y004540D01*
X002705Y004618D02*
X001939Y004618D01*
X001939Y004697D02*
X002705Y004697D01*
X002705Y004775D02*
X001939Y004775D01*
X001939Y004854D02*
X002705Y004854D01*
X002759Y004932D02*
X001939Y004932D01*
X002274Y004301D02*
X002754Y004301D01*
X002380Y003927D01*
X002380Y003534D01*
X002697Y003361D02*
X002791Y003361D01*
X002791Y003283D02*
X002697Y003283D01*
X002692Y003204D02*
X002801Y003204D01*
X002886Y003126D02*
X002490Y003126D01*
X002437Y002812D02*
X002395Y002812D01*
X001939Y002183D02*
X003459Y002183D01*
X003459Y002105D02*
X001939Y002105D01*
X001939Y002026D02*
X003459Y002026D01*
X003459Y001948D02*
X001939Y001948D01*
X001939Y001869D02*
X003479Y001869D01*
X003468Y001791D02*
X001939Y001791D01*
X001939Y001712D02*
X003439Y001712D01*
X003439Y001633D02*
X001939Y001633D01*
X001939Y001555D02*
X003439Y001555D01*
X003834Y001319D02*
X003914Y001319D01*
X003914Y001241D02*
X003834Y001241D01*
X003834Y001162D02*
X003914Y001162D01*
X003914Y001084D02*
X003834Y001084D01*
X003628Y000769D02*
X004394Y000769D01*
X004451Y000691D02*
X003909Y000691D01*
X004191Y000612D02*
X009240Y000612D01*
X009521Y000691D02*
X008937Y000691D01*
X008994Y000769D02*
X009802Y000769D01*
X010066Y000848D02*
X008999Y000848D01*
X008999Y000927D02*
X010262Y000927D01*
X010458Y001005D02*
X008999Y001005D01*
X008999Y001084D02*
X010654Y001084D01*
X010850Y001162D02*
X008999Y001162D01*
X008999Y001241D02*
X011046Y001241D01*
X011492Y001948D02*
X006594Y001948D01*
X006594Y002026D02*
X011492Y002026D01*
X011492Y002105D02*
X006563Y002105D01*
X006567Y001869D02*
X007955Y001869D01*
X007932Y001791D02*
X006503Y001791D01*
X006194Y002183D02*
X005938Y002183D01*
X006057Y002262D02*
X006194Y002262D01*
X006194Y002340D02*
X006113Y002340D01*
X006145Y002419D02*
X006194Y002419D01*
X006194Y002497D02*
X006145Y002497D01*
X006132Y002576D02*
X006194Y002576D01*
X006194Y002654D02*
X006099Y002654D01*
X006024Y002733D02*
X006194Y002733D01*
X006194Y002812D02*
X005905Y002812D01*
X006064Y003211D02*
X006064Y003465D01*
X005846Y003597D02*
X005456Y003597D01*
X005456Y003676D02*
X005846Y003676D01*
X005846Y003754D02*
X005456Y003754D01*
X005456Y003833D02*
X005846Y003833D01*
X005846Y003911D02*
X005456Y003911D01*
X005452Y003990D02*
X005846Y003990D01*
X005907Y004068D02*
X005403Y004068D01*
X004962Y004068D02*
X004882Y004068D01*
X004882Y003990D02*
X004962Y003990D01*
X004962Y003911D02*
X004882Y003911D01*
X004882Y003833D02*
X004962Y003833D01*
X004962Y003754D02*
X004882Y003754D01*
X004882Y003676D02*
X004962Y003676D01*
X004962Y003597D02*
X004882Y003597D01*
X004882Y003361D02*
X004962Y003361D01*
X004962Y003283D02*
X004882Y003283D01*
X004882Y003204D02*
X004962Y003204D01*
X004962Y003126D02*
X004882Y003126D01*
X004882Y003047D02*
X004962Y003047D01*
X004962Y002969D02*
X004882Y002969D01*
X004882Y002890D02*
X004962Y002890D01*
X004962Y001869D02*
X004882Y001869D01*
X004882Y001791D02*
X004962Y001791D01*
X004962Y001712D02*
X004882Y001712D01*
X004882Y001633D02*
X004962Y001633D01*
X004962Y001555D02*
X004882Y001555D01*
X004882Y001476D02*
X004962Y001476D01*
X004962Y001398D02*
X004882Y001398D01*
X004882Y001162D02*
X004962Y001162D01*
X004962Y001084D02*
X004882Y001084D01*
X004882Y001005D02*
X004962Y001005D01*
X004962Y000927D02*
X004882Y000927D01*
X004882Y000848D02*
X004962Y000848D01*
X004962Y000769D02*
X004882Y000769D01*
X004882Y000691D02*
X004962Y000691D01*
X004938Y000455D02*
X008492Y000455D01*
X008506Y000691D02*
X008426Y000691D01*
X008426Y000769D02*
X008506Y000769D01*
X008506Y000848D02*
X008426Y000848D01*
X008426Y000927D02*
X008506Y000927D01*
X008506Y001005D02*
X008426Y001005D01*
X008426Y001084D02*
X008506Y001084D01*
X008506Y001162D02*
X008426Y001162D01*
X008426Y001241D02*
X008506Y001241D01*
X008958Y000534D02*
X004472Y000534D01*
X005393Y000691D02*
X007994Y000691D01*
X007937Y000769D02*
X005451Y000769D01*
X005456Y000848D02*
X007932Y000848D01*
X007932Y000927D02*
X005456Y000927D01*
X005456Y001005D02*
X007932Y001005D01*
X007932Y001084D02*
X005456Y001084D01*
X005456Y001162D02*
X007932Y001162D01*
X007932Y001241D02*
X005456Y001241D01*
X005456Y001398D02*
X007932Y001398D01*
X007932Y001476D02*
X005456Y001476D01*
X005456Y001555D02*
X007932Y001555D01*
X007932Y001633D02*
X005456Y001633D01*
X005456Y001712D02*
X007932Y001712D01*
X008016Y000377D02*
X005415Y000377D01*
X006493Y000298D02*
X006938Y000298D01*
X006535Y002340D02*
X006514Y002340D01*
X006514Y002720D02*
X006514Y002721D01*
X006514Y002853D01*
X006514Y002853D01*
X006514Y002720D01*
X006514Y002733D02*
X006514Y002733D01*
X006514Y002812D02*
X006514Y002812D01*
X005847Y005089D02*
X005767Y005089D01*
X005767Y005168D02*
X005847Y005168D01*
X005847Y005246D02*
X005767Y005246D01*
X005767Y005325D02*
X005847Y005325D01*
X005431Y005325D02*
X005337Y005325D01*
X005337Y005246D02*
X005431Y005246D01*
X005431Y005168D02*
X005337Y005168D01*
X005291Y005089D02*
X005469Y005089D01*
X004441Y004068D02*
X002747Y004068D01*
X002754Y004301D02*
X002849Y004301D01*
X003081Y004533D01*
X003402Y004932D02*
X003479Y004932D01*
X003789Y004932D02*
X003869Y004932D01*
X003869Y004854D02*
X003789Y004854D01*
X003789Y004775D02*
X003869Y004775D01*
X003869Y004697D02*
X003789Y004697D01*
X003789Y004618D02*
X003869Y004618D01*
X002674Y007917D02*
X002502Y007917D01*
X002606Y007995D02*
X002674Y007995D01*
X002674Y008074D02*
X002642Y008074D01*
X002649Y008153D02*
X002674Y008153D01*
X002674Y008231D02*
X002630Y008231D01*
X002674Y008310D02*
X002577Y008310D01*
X002994Y008861D02*
X002994Y009041D01*
X003004Y009031D01*
X003164Y009031D01*
X003004Y008871D01*
X002994Y008861D01*
X002994Y008938D02*
X003071Y008938D01*
X002994Y009016D02*
X003149Y009016D01*
X002994Y011361D02*
X002994Y011631D01*
X003274Y011631D01*
X003274Y011371D01*
X003004Y011371D01*
X002994Y011361D01*
X002994Y011373D02*
X003274Y011373D01*
X003274Y011451D02*
X002994Y011451D01*
X002994Y011530D02*
X003274Y011530D01*
X003274Y011608D02*
X002994Y011608D01*
D24*
X002409Y011829D03*
X002409Y010599D03*
X002409Y009368D03*
X002409Y008138D03*
X002409Y006908D03*
X002409Y005678D03*
X002690Y005174D03*
X002210Y005014D03*
X002274Y004301D03*
X002274Y003021D03*
X003650Y003334D03*
X003650Y003894D03*
X004194Y005261D03*
X003954Y008381D03*
X004034Y009821D03*
X005554Y011861D03*
X005514Y013301D03*
X006274Y013261D03*
X006434Y013581D03*
X007034Y013301D03*
X007274Y013141D03*
X007114Y011861D03*
X005794Y010381D03*
X005954Y009541D03*
X007074Y007421D03*
X006994Y006941D03*
X007634Y004701D03*
X007330Y004134D03*
X008034Y004701D03*
X008530Y002374D03*
X010274Y005021D03*
X010929Y005678D03*
X010994Y004701D03*
X010929Y006908D03*
X010929Y008138D03*
X010929Y009368D03*
X010929Y010599D03*
X010849Y011829D03*
X010929Y013059D03*
X010929Y014290D03*
X010929Y015520D03*
X010929Y016750D03*
X010674Y017901D03*
X010074Y017901D03*
X009625Y017366D03*
X009625Y016135D03*
X009625Y014905D03*
X009625Y013675D03*
X009625Y012444D03*
X009625Y011214D03*
X009625Y009984D03*
X009625Y008753D03*
X009625Y007523D03*
X009625Y006293D03*
X008754Y007101D03*
X006674Y002541D03*
X006354Y001981D03*
X006610Y001014D03*
X002409Y013059D03*
X002409Y014290D03*
X002409Y015520D03*
X002409Y016750D03*
X003914Y013781D03*
D25*
X004304Y010891D02*
X003954Y010541D01*
X003954Y009821D01*
X003954Y009021D01*
X003874Y008941D01*
X003314Y008941D01*
X003074Y008701D01*
X003074Y007901D01*
X003314Y007661D01*
X003794Y007661D01*
X003954Y007501D01*
X003954Y007021D01*
X003954Y005501D01*
X004194Y005261D01*
X003401Y002668D02*
X002754Y002668D01*
X002274Y003021D02*
X002274Y003428D01*
X002380Y003534D01*
X003401Y002668D02*
X003874Y002195D01*
X004060Y002381D02*
X005234Y002381D01*
X006064Y003211D01*
X007324Y003465D02*
X007324Y004134D01*
X009074Y006221D02*
X009074Y009475D01*
X008594Y009955D01*
X008514Y010035D01*
X008514Y013341D01*
X008464Y013391D01*
X007894Y013391D01*
X004772Y008134D02*
X004441Y008134D01*
X003954Y008381D01*
X009074Y006221D02*
X010274Y005021D01*
M02*
