G75*
G70*
%OFA0B0*%
%FSLAX24Y24*%
%IPPOS*%
%LPD*%
%AMOC8*
5,1,8,0,0,1.08239X$1,22.5*
%
%ADD10C,0.0010*%
%ADD11C,0.0000*%
%ADD12R,0.0472X0.0472*%
%ADD13C,0.0080*%
%ADD14C,0.0240*%
%ADD15C,0.0100*%
%ADD16C,0.0120*%
D10*
X001794Y001371D02*
X001794Y018596D01*
X001794Y001371D02*
X002251Y001141D01*
X002720Y000934D01*
X003198Y000750D01*
X003685Y000590D01*
X004179Y000453D01*
X004679Y000341D01*
X005183Y000254D01*
X005692Y000191D01*
X006203Y000154D01*
X006715Y000141D01*
X007227Y000154D01*
X007738Y000191D01*
X008247Y000254D01*
X008751Y000341D01*
X009251Y000453D01*
X009745Y000590D01*
X010232Y000750D01*
X010710Y000934D01*
X011179Y001141D01*
X011636Y001371D01*
X011637Y001371D02*
X011637Y018596D01*
X011636Y018596D02*
X011179Y018826D01*
X010710Y019033D01*
X010232Y019217D01*
X009745Y019377D01*
X009251Y019514D01*
X008751Y019626D01*
X008247Y019713D01*
X007738Y019776D01*
X007227Y019813D01*
X006715Y019826D01*
X006203Y019813D01*
X005692Y019776D01*
X005183Y019713D01*
X004679Y019626D01*
X004179Y019514D01*
X003685Y019377D01*
X003198Y019217D01*
X002720Y019033D01*
X002251Y018826D01*
X001794Y018596D01*
D11*
X006143Y019041D02*
X006145Y019088D01*
X006151Y019134D01*
X006161Y019180D01*
X006174Y019225D01*
X006192Y019268D01*
X006213Y019310D01*
X006237Y019350D01*
X006265Y019387D01*
X006296Y019422D01*
X006330Y019455D01*
X006366Y019484D01*
X006405Y019510D01*
X006446Y019533D01*
X006489Y019552D01*
X006533Y019568D01*
X006578Y019580D01*
X006624Y019588D01*
X006671Y019592D01*
X006717Y019592D01*
X006764Y019588D01*
X006810Y019580D01*
X006855Y019568D01*
X006899Y019552D01*
X006942Y019533D01*
X006983Y019510D01*
X007022Y019484D01*
X007058Y019455D01*
X007092Y019422D01*
X007123Y019387D01*
X007151Y019350D01*
X007175Y019310D01*
X007196Y019268D01*
X007214Y019225D01*
X007227Y019180D01*
X007237Y019134D01*
X007243Y019088D01*
X007245Y019041D01*
X007243Y018994D01*
X007237Y018948D01*
X007227Y018902D01*
X007214Y018857D01*
X007196Y018814D01*
X007175Y018772D01*
X007151Y018732D01*
X007123Y018695D01*
X007092Y018660D01*
X007058Y018627D01*
X007022Y018598D01*
X006983Y018572D01*
X006942Y018549D01*
X006899Y018530D01*
X006855Y018514D01*
X006810Y018502D01*
X006764Y018494D01*
X006717Y018490D01*
X006671Y018490D01*
X006624Y018494D01*
X006578Y018502D01*
X006533Y018514D01*
X006489Y018530D01*
X006446Y018549D01*
X006405Y018572D01*
X006366Y018598D01*
X006330Y018627D01*
X006296Y018660D01*
X006265Y018695D01*
X006237Y018732D01*
X006213Y018772D01*
X006192Y018814D01*
X006174Y018857D01*
X006161Y018902D01*
X006151Y018948D01*
X006145Y018994D01*
X006143Y019041D01*
X005651Y002481D02*
X005653Y002507D01*
X005659Y002533D01*
X005669Y002558D01*
X005682Y002581D01*
X005698Y002601D01*
X005718Y002619D01*
X005740Y002634D01*
X005763Y002646D01*
X005789Y002654D01*
X005815Y002658D01*
X005841Y002658D01*
X005867Y002654D01*
X005893Y002646D01*
X005917Y002634D01*
X005938Y002619D01*
X005958Y002601D01*
X005974Y002581D01*
X005987Y002558D01*
X005997Y002533D01*
X006003Y002507D01*
X006005Y002481D01*
X006003Y002455D01*
X005997Y002429D01*
X005987Y002404D01*
X005974Y002381D01*
X005958Y002361D01*
X005938Y002343D01*
X005916Y002328D01*
X005893Y002316D01*
X005867Y002308D01*
X005841Y002304D01*
X005815Y002304D01*
X005789Y002308D01*
X005763Y002316D01*
X005739Y002328D01*
X005718Y002343D01*
X005698Y002361D01*
X005682Y002381D01*
X005669Y002404D01*
X005659Y002429D01*
X005653Y002455D01*
X005651Y002481D01*
X007383Y002481D02*
X007385Y002507D01*
X007391Y002533D01*
X007401Y002558D01*
X007414Y002581D01*
X007430Y002601D01*
X007450Y002619D01*
X007472Y002634D01*
X007495Y002646D01*
X007521Y002654D01*
X007547Y002658D01*
X007573Y002658D01*
X007599Y002654D01*
X007625Y002646D01*
X007649Y002634D01*
X007670Y002619D01*
X007690Y002601D01*
X007706Y002581D01*
X007719Y002558D01*
X007729Y002533D01*
X007735Y002507D01*
X007737Y002481D01*
X007735Y002455D01*
X007729Y002429D01*
X007719Y002404D01*
X007706Y002381D01*
X007690Y002361D01*
X007670Y002343D01*
X007648Y002328D01*
X007625Y002316D01*
X007599Y002308D01*
X007573Y002304D01*
X007547Y002304D01*
X007521Y002308D01*
X007495Y002316D01*
X007471Y002328D01*
X007450Y002343D01*
X007430Y002361D01*
X007414Y002381D01*
X007401Y002404D01*
X007391Y002429D01*
X007385Y002455D01*
X007383Y002481D01*
D12*
X007532Y006293D03*
X007532Y007523D03*
X007532Y008753D03*
X007532Y009984D03*
X008359Y009984D03*
X008359Y008753D03*
X008359Y007523D03*
X008359Y006293D03*
X009993Y006293D03*
X009993Y007523D03*
X009993Y008753D03*
X009993Y009984D03*
X010820Y009984D03*
X010820Y008753D03*
X010820Y007523D03*
X010820Y006293D03*
X010820Y011214D03*
X010820Y012444D03*
X010820Y013675D03*
X010820Y014905D03*
X010820Y016135D03*
X010820Y017366D03*
X009993Y017366D03*
X009993Y016135D03*
X009993Y014905D03*
X009993Y013675D03*
X009993Y012444D03*
X009993Y011214D03*
X008359Y011214D03*
X008359Y012444D03*
X008359Y013675D03*
X008359Y014905D03*
X008359Y016135D03*
X008359Y017366D03*
X007532Y017366D03*
X007532Y016135D03*
X007532Y014905D03*
X007532Y013675D03*
X007532Y012444D03*
X007532Y011214D03*
X005898Y011214D03*
X005898Y012444D03*
X005898Y013675D03*
X005898Y014905D03*
X005898Y016135D03*
X005898Y017366D03*
X005072Y017366D03*
X005072Y016135D03*
X005072Y014905D03*
X005072Y013675D03*
X005072Y012444D03*
X005072Y011214D03*
X005072Y009984D03*
X005072Y008753D03*
X005072Y007523D03*
X005072Y006293D03*
X005898Y006293D03*
X005898Y007523D03*
X005898Y008753D03*
X005898Y009984D03*
X003438Y009984D03*
X003438Y008753D03*
X003438Y007523D03*
X003438Y006293D03*
X002611Y006293D03*
X002611Y007523D03*
X002611Y008753D03*
X002611Y009984D03*
X002611Y011214D03*
X002611Y012444D03*
X002611Y013675D03*
X002611Y014905D03*
X002611Y016135D03*
X002611Y017366D03*
X003438Y017366D03*
X003438Y016135D03*
X003438Y014905D03*
X003438Y013675D03*
X003438Y012444D03*
X003438Y011214D03*
D13*
X003118Y010845D01*
X002163Y010845D01*
X002163Y012075D01*
X003118Y012075D01*
X003438Y012444D01*
X003515Y012088D02*
X003416Y011989D01*
X003258Y011989D01*
X003278Y012009D01*
X003278Y012015D01*
X003341Y012088D01*
X003515Y012088D01*
X003506Y012080D02*
X003333Y012080D01*
X003270Y012001D02*
X003428Y012001D01*
X003482Y011829D02*
X003714Y012061D01*
X005394Y012061D01*
X005777Y012444D01*
X005898Y012444D01*
X005690Y012065D02*
X005643Y012084D01*
X005647Y012088D01*
X006184Y012088D01*
X006255Y012158D01*
X006255Y012653D01*
X007176Y012653D01*
X007176Y012158D01*
X006254Y012158D01*
X006255Y012237D02*
X007176Y012237D01*
X007176Y012315D02*
X006255Y012315D01*
X006255Y012394D02*
X007176Y012394D01*
X007176Y012472D02*
X006255Y012472D01*
X006255Y012551D02*
X007176Y012551D01*
X007176Y012629D02*
X006255Y012629D01*
X006038Y012973D02*
X006058Y012993D01*
X006058Y013126D01*
X006058Y013318D01*
X006184Y013318D01*
X006255Y013389D01*
X006255Y013884D01*
X007176Y013884D01*
X007176Y013389D01*
X007246Y013318D01*
X007818Y013318D01*
X007888Y013389D01*
X007888Y013884D01*
X008003Y013884D01*
X008003Y013389D01*
X008073Y013318D01*
X008467Y013318D01*
X008759Y012997D01*
X008759Y012993D01*
X008779Y012973D01*
X007466Y012973D01*
X006038Y012973D01*
X006058Y013022D02*
X008736Y013022D01*
X008665Y013101D02*
X006058Y013101D01*
X006058Y013179D02*
X008593Y013179D01*
X008522Y013258D02*
X006058Y013258D01*
X006202Y013336D02*
X007228Y013336D01*
X007176Y013415D02*
X006255Y013415D01*
X006255Y013493D02*
X007176Y013493D01*
X007176Y013572D02*
X006255Y013572D01*
X006255Y013651D02*
X007176Y013651D01*
X007176Y013729D02*
X006255Y013729D01*
X006255Y013808D02*
X007176Y013808D01*
X007532Y013675D02*
X007532Y014044D01*
X005072Y014044D01*
X005072Y013675D01*
X005072Y014044D02*
X002931Y014044D01*
X002611Y013675D01*
X002708Y014031D02*
X002325Y014031D01*
X002323Y014029D01*
X002323Y014066D01*
X002361Y014050D01*
X002457Y014050D01*
X002545Y014086D01*
X002589Y014130D01*
X002791Y014130D01*
X002771Y014110D01*
X002771Y014103D01*
X002708Y014031D01*
X002719Y014043D02*
X002323Y014043D01*
X002409Y014290D02*
X005898Y014290D01*
X005898Y014905D01*
X005738Y014549D02*
X005738Y014450D01*
X003578Y014450D01*
X003598Y014469D01*
X003598Y014549D01*
X003724Y014549D01*
X003794Y014619D01*
X003794Y015114D01*
X004715Y015114D01*
X004715Y014619D01*
X004786Y014549D01*
X005357Y014549D01*
X005428Y014619D01*
X005428Y015114D01*
X005542Y015114D01*
X005542Y014619D01*
X005612Y014549D01*
X005738Y014549D01*
X005738Y014515D02*
X003598Y014515D01*
X003438Y014536D02*
X002163Y014536D01*
X002163Y015766D01*
X003118Y015766D01*
X003438Y016135D01*
X003341Y015779D02*
X003724Y015779D01*
X003794Y015849D01*
X003794Y016344D01*
X004715Y016344D01*
X004715Y015849D01*
X004786Y015779D01*
X005357Y015779D01*
X005428Y015849D01*
X005428Y016344D01*
X005542Y016344D01*
X005542Y015939D01*
X005340Y015680D01*
X003258Y015680D01*
X003278Y015700D01*
X003278Y015706D01*
X003341Y015779D01*
X003334Y015771D02*
X005411Y015771D01*
X005428Y015850D02*
X005473Y015850D01*
X005428Y015928D02*
X005534Y015928D01*
X005542Y016007D02*
X005428Y016007D01*
X005428Y016085D02*
X005542Y016085D01*
X005542Y016164D02*
X005428Y016164D01*
X005428Y016242D02*
X005542Y016242D01*
X005542Y016321D02*
X005428Y016321D01*
X005478Y016664D02*
X005498Y016684D01*
X005498Y016688D01*
X005790Y017009D01*
X006184Y017009D01*
X006255Y017080D01*
X006255Y017575D01*
X007176Y017575D01*
X007176Y017080D01*
X007246Y017009D01*
X007818Y017009D01*
X007888Y017080D01*
X007888Y017575D01*
X008003Y017575D01*
X008003Y017080D01*
X008073Y017009D01*
X008199Y017009D01*
X008199Y016817D01*
X008199Y016684D01*
X008219Y016664D01*
X007598Y016664D01*
X005478Y016664D01*
X005521Y016714D02*
X008199Y016714D01*
X008199Y016792D02*
X005593Y016792D01*
X005664Y016871D02*
X008199Y016871D01*
X008199Y016949D02*
X005736Y016949D01*
X005518Y017185D02*
X005428Y017185D01*
X005428Y017264D02*
X005542Y017264D01*
X005542Y017212D02*
X005428Y017086D01*
X005428Y017575D01*
X005542Y017575D01*
X005542Y017212D01*
X005542Y017342D02*
X005428Y017342D01*
X005428Y017421D02*
X005542Y017421D01*
X005542Y017499D02*
X005428Y017499D01*
X005428Y017106D02*
X005446Y017106D01*
X005361Y017012D02*
X005268Y016910D01*
X003578Y016910D01*
X003598Y016930D01*
X003598Y017009D01*
X003724Y017009D01*
X003794Y017080D01*
X003794Y017575D01*
X004715Y017575D01*
X004715Y017080D01*
X004786Y017009D01*
X005357Y017009D01*
X005361Y017012D01*
X005303Y016949D02*
X003598Y016949D01*
X003742Y017028D02*
X004767Y017028D01*
X004715Y017106D02*
X003794Y017106D01*
X003794Y017185D02*
X004715Y017185D01*
X004715Y017264D02*
X003794Y017264D01*
X003794Y017342D02*
X004715Y017342D01*
X004715Y017421D02*
X003794Y017421D01*
X003794Y017499D02*
X004715Y017499D01*
X005005Y017895D02*
X002991Y017895D01*
X002986Y017899D01*
X002925Y017895D01*
X002865Y017895D01*
X002860Y017890D01*
X002853Y017889D01*
X002814Y017844D01*
X002771Y017801D01*
X002771Y017794D01*
X002708Y017722D01*
X002325Y017722D01*
X002255Y017651D01*
X002255Y017156D01*
X002229Y017156D01*
X002097Y017156D01*
X002003Y017063D01*
X002003Y015832D01*
X002003Y015700D01*
X002003Y014602D01*
X002003Y014469D01*
X002003Y013372D01*
X002003Y013239D01*
X002003Y012141D01*
X002003Y012009D01*
X002003Y010911D01*
X002003Y010779D01*
X002003Y009681D01*
X002003Y009548D01*
X002003Y008450D01*
X002003Y008318D01*
X002003Y007220D01*
X002003Y007088D01*
X002003Y005990D01*
X002003Y005857D01*
X002097Y005764D01*
X002185Y005764D01*
X002169Y005725D01*
X002169Y005630D01*
X002206Y005542D01*
X002273Y005474D01*
X002361Y005438D01*
X002457Y005438D01*
X002545Y005474D01*
X002613Y005542D01*
X002629Y005581D01*
X005328Y005581D01*
X005460Y005581D01*
X005816Y005936D01*
X006184Y005936D01*
X006255Y006007D01*
X006255Y006502D01*
X007176Y006502D01*
X007176Y006007D01*
X007246Y005936D01*
X007818Y005936D01*
X007888Y006007D01*
X007888Y006502D01*
X008003Y006502D01*
X008003Y006007D01*
X008073Y005936D01*
X008467Y005936D01*
X008759Y005616D01*
X008759Y005611D01*
X008803Y005567D01*
X008845Y005521D01*
X008850Y005521D01*
X008853Y005518D01*
X008915Y005518D01*
X008978Y005515D01*
X008981Y005518D01*
X010750Y005518D01*
X010793Y005474D01*
X010869Y005443D01*
X010834Y005407D01*
X010834Y004881D01*
X010791Y004837D01*
X010754Y004749D01*
X010754Y004653D01*
X010791Y004565D01*
X010858Y004498D01*
X010946Y004461D01*
X011042Y004461D01*
X011130Y004498D01*
X011197Y004565D01*
X011234Y004653D01*
X011234Y004749D01*
X011197Y004837D01*
X011154Y004881D01*
X011154Y005275D01*
X011300Y005421D01*
X011300Y005421D01*
X011394Y005515D01*
X011394Y006359D01*
X011394Y007457D01*
X011394Y008687D01*
X011394Y009917D01*
X011394Y011148D01*
X011394Y012378D01*
X011394Y013608D01*
X011394Y014839D01*
X011394Y016069D01*
X011394Y017432D01*
X011300Y017525D01*
X011176Y017525D01*
X011176Y017651D01*
X011106Y017722D01*
X010834Y017722D01*
X010877Y017765D01*
X010914Y017853D01*
X010914Y017949D01*
X010877Y018037D01*
X010810Y018105D01*
X010722Y018141D01*
X010626Y018141D01*
X010538Y018105D01*
X010495Y018061D01*
X010253Y018061D01*
X010210Y018105D01*
X010122Y018141D01*
X010026Y018141D01*
X009938Y018105D01*
X009871Y018037D01*
X009834Y017949D01*
X009834Y017853D01*
X009871Y017765D01*
X009914Y017722D01*
X009707Y017722D01*
X009637Y017651D01*
X009637Y017605D01*
X009601Y017605D01*
X009336Y017849D01*
X009291Y017895D01*
X009287Y017895D01*
X009285Y017897D01*
X009222Y017895D01*
X007466Y017895D01*
X005005Y017895D01*
X005072Y017735D02*
X007532Y017735D01*
X009225Y017735D01*
X009625Y017366D01*
X009594Y017391D01*
X009944Y017391D01*
X009993Y017366D01*
X009901Y017735D02*
X009461Y017735D01*
X009546Y017656D02*
X009641Y017656D01*
X009851Y017813D02*
X009376Y017813D01*
X009294Y017892D02*
X009834Y017892D01*
X009843Y017970D02*
X001939Y017970D01*
X001939Y017892D02*
X002862Y017892D01*
X002783Y017813D02*
X001939Y017813D01*
X001939Y017735D02*
X002719Y017735D01*
X002931Y017735D02*
X002611Y017366D01*
X002931Y017735D02*
X005072Y017735D01*
X005072Y017366D01*
X005338Y016750D02*
X002409Y016750D01*
X002323Y016526D02*
X002361Y016510D01*
X002457Y016510D01*
X002545Y016547D01*
X002589Y016590D01*
X002791Y016590D01*
X002771Y016571D01*
X002771Y016564D01*
X002708Y016491D01*
X002325Y016491D01*
X002323Y016489D01*
X002323Y016526D01*
X002555Y016557D02*
X002765Y016557D01*
X002931Y016504D02*
X002611Y016135D01*
X002931Y016504D02*
X005072Y016504D01*
X007532Y016504D01*
X007532Y016135D01*
X007532Y016504D02*
X009225Y016504D01*
X009625Y016135D01*
X009594Y016141D01*
X009944Y016141D01*
X009993Y016135D01*
X009694Y016478D02*
X009489Y016478D01*
X009404Y016557D02*
X010784Y016557D01*
X010793Y016547D02*
X010881Y016510D01*
X010977Y016510D01*
X011065Y016547D01*
X011074Y016556D01*
X011074Y016491D01*
X010534Y016491D01*
X010463Y016421D01*
X010463Y015849D01*
X010534Y015779D01*
X011074Y015779D01*
X011074Y015715D01*
X011065Y015723D01*
X010977Y015760D01*
X010881Y015760D01*
X010793Y015723D01*
X010750Y015680D01*
X008990Y015680D01*
X008715Y015982D01*
X008715Y016344D01*
X009162Y016344D01*
X009385Y016139D01*
X009385Y016087D01*
X009422Y015999D01*
X009489Y015932D01*
X009577Y015895D01*
X009637Y015895D01*
X009637Y015849D01*
X009707Y015779D01*
X010279Y015779D01*
X010349Y015849D01*
X010349Y016421D01*
X010279Y016491D01*
X009707Y016491D01*
X009637Y016421D01*
X009637Y016375D01*
X009601Y016375D01*
X009368Y016590D01*
X010750Y016590D01*
X010793Y016547D01*
X010929Y016750D02*
X008359Y016750D01*
X008359Y017366D01*
X008519Y017009D02*
X008519Y016910D01*
X010750Y016910D01*
X010793Y016954D01*
X010881Y016990D01*
X010977Y016990D01*
X011065Y016954D01*
X011074Y016945D01*
X011074Y017009D01*
X010534Y017009D01*
X010463Y017080D01*
X010463Y017651D01*
X010524Y017712D01*
X010495Y017741D01*
X010253Y017741D01*
X010234Y017722D01*
X010279Y017722D01*
X010349Y017651D01*
X010349Y017080D01*
X010279Y017009D01*
X009707Y017009D01*
X009637Y017080D01*
X009637Y017126D01*
X009577Y017126D01*
X009489Y017162D01*
X009422Y017230D01*
X009385Y017318D01*
X009385Y017369D01*
X009162Y017575D01*
X008715Y017575D01*
X008715Y017080D01*
X008645Y017009D01*
X008519Y017009D01*
X008519Y016949D02*
X010789Y016949D01*
X011070Y016949D02*
X011074Y016949D01*
X011394Y016949D02*
X011492Y016949D01*
X011492Y016871D02*
X011394Y016871D01*
X011394Y016792D02*
X011492Y016792D01*
X011492Y016714D02*
X011394Y016714D01*
X011394Y016635D02*
X011492Y016635D01*
X011492Y016557D02*
X011394Y016557D01*
X011394Y016478D02*
X011492Y016478D01*
X011492Y016400D02*
X011394Y016400D01*
X011394Y016321D02*
X011492Y016321D01*
X011492Y016242D02*
X011394Y016242D01*
X011394Y016164D02*
X011492Y016164D01*
X011492Y016085D02*
X011394Y016085D01*
X011394Y016007D02*
X011492Y016007D01*
X011492Y015928D02*
X011394Y015928D01*
X011394Y015850D02*
X011492Y015850D01*
X011492Y015771D02*
X011394Y015771D01*
X011394Y015693D02*
X011492Y015693D01*
X011492Y015614D02*
X011394Y015614D01*
X011394Y015536D02*
X011492Y015536D01*
X011492Y015457D02*
X011394Y015457D01*
X011394Y015379D02*
X011492Y015379D01*
X011492Y015300D02*
X011394Y015300D01*
X011394Y015221D02*
X011492Y015221D01*
X011492Y015143D02*
X011394Y015143D01*
X011394Y015064D02*
X011492Y015064D01*
X011492Y014986D02*
X011394Y014986D01*
X011394Y014907D02*
X011492Y014907D01*
X011492Y014829D02*
X011394Y014829D01*
X011394Y014750D02*
X011492Y014750D01*
X011492Y014672D02*
X011394Y014672D01*
X011394Y014593D02*
X011492Y014593D01*
X011492Y014515D02*
X011394Y014515D01*
X011394Y014436D02*
X011492Y014436D01*
X011492Y014357D02*
X011394Y014357D01*
X011394Y014279D02*
X011492Y014279D01*
X011492Y014200D02*
X011394Y014200D01*
X011394Y014122D02*
X011492Y014122D01*
X011492Y014043D02*
X011394Y014043D01*
X011394Y013965D02*
X011492Y013965D01*
X011492Y013886D02*
X011394Y013886D01*
X011394Y013808D02*
X011492Y013808D01*
X011492Y013729D02*
X011394Y013729D01*
X011394Y013651D02*
X011492Y013651D01*
X011492Y013572D02*
X011394Y013572D01*
X011394Y013493D02*
X011492Y013493D01*
X011492Y013415D02*
X011394Y013415D01*
X011394Y013336D02*
X011492Y013336D01*
X011492Y013258D02*
X011394Y013258D01*
X011394Y013179D02*
X011492Y013179D01*
X011492Y013101D02*
X011394Y013101D01*
X011394Y013022D02*
X011492Y013022D01*
X011492Y012944D02*
X011394Y012944D01*
X011394Y012865D02*
X011492Y012865D01*
X011492Y012787D02*
X011394Y012787D01*
X011394Y012708D02*
X011492Y012708D01*
X011492Y012629D02*
X011394Y012629D01*
X011394Y012551D02*
X011492Y012551D01*
X011492Y012472D02*
X011394Y012472D01*
X011394Y012394D02*
X011492Y012394D01*
X011492Y012315D02*
X011394Y012315D01*
X011394Y012237D02*
X011492Y012237D01*
X011492Y012158D02*
X011394Y012158D01*
X011394Y012080D02*
X011492Y012080D01*
X011492Y012001D02*
X011394Y012001D01*
X011394Y011923D02*
X011492Y011923D01*
X011492Y011844D02*
X011394Y011844D01*
X011394Y011766D02*
X011492Y011766D01*
X011492Y011687D02*
X011394Y011687D01*
X011394Y011608D02*
X011492Y011608D01*
X011492Y011530D02*
X011394Y011530D01*
X011394Y011451D02*
X011492Y011451D01*
X011492Y011373D02*
X011394Y011373D01*
X011394Y011294D02*
X011492Y011294D01*
X011492Y011216D02*
X011394Y011216D01*
X011394Y011137D02*
X011492Y011137D01*
X011492Y011059D02*
X011394Y011059D01*
X011394Y010980D02*
X011492Y010980D01*
X011492Y010902D02*
X011394Y010902D01*
X011394Y010823D02*
X011492Y010823D01*
X011492Y010744D02*
X011394Y010744D01*
X011394Y010666D02*
X011492Y010666D01*
X011492Y010587D02*
X011394Y010587D01*
X011394Y010509D02*
X011492Y010509D01*
X011492Y010430D02*
X011394Y010430D01*
X011394Y010352D02*
X011492Y010352D01*
X011492Y010273D02*
X011394Y010273D01*
X011394Y010195D02*
X011492Y010195D01*
X011492Y010116D02*
X011394Y010116D01*
X011394Y010038D02*
X011492Y010038D01*
X011492Y009959D02*
X011394Y009959D01*
X011394Y009880D02*
X011492Y009880D01*
X011492Y009802D02*
X011394Y009802D01*
X011394Y009723D02*
X011492Y009723D01*
X011492Y009645D02*
X011394Y009645D01*
X011394Y009566D02*
X011492Y009566D01*
X011492Y009488D02*
X011394Y009488D01*
X011394Y009409D02*
X011492Y009409D01*
X011492Y009331D02*
X011394Y009331D01*
X011394Y009252D02*
X011492Y009252D01*
X011492Y009174D02*
X011394Y009174D01*
X011394Y009095D02*
X011492Y009095D01*
X011492Y009016D02*
X011394Y009016D01*
X011394Y008938D02*
X011492Y008938D01*
X011492Y008859D02*
X011394Y008859D01*
X011394Y008781D02*
X011492Y008781D01*
X011492Y008702D02*
X011394Y008702D01*
X011394Y008624D02*
X011492Y008624D01*
X011492Y008545D02*
X011394Y008545D01*
X011394Y008467D02*
X011492Y008467D01*
X011492Y008388D02*
X011394Y008388D01*
X011394Y008310D02*
X011492Y008310D01*
X011492Y008231D02*
X011394Y008231D01*
X011394Y008153D02*
X011492Y008153D01*
X011492Y008074D02*
X011394Y008074D01*
X011394Y007995D02*
X011492Y007995D01*
X011492Y007917D02*
X011394Y007917D01*
X011394Y007838D02*
X011492Y007838D01*
X011492Y007760D02*
X011394Y007760D01*
X011394Y007681D02*
X011492Y007681D01*
X011492Y007603D02*
X011394Y007603D01*
X011394Y007524D02*
X011492Y007524D01*
X011492Y007446D02*
X011394Y007446D01*
X011394Y007367D02*
X011492Y007367D01*
X011492Y007289D02*
X011394Y007289D01*
X011394Y007210D02*
X011492Y007210D01*
X011492Y007131D02*
X011394Y007131D01*
X011394Y007053D02*
X011492Y007053D01*
X011492Y006974D02*
X011394Y006974D01*
X011394Y006896D02*
X011492Y006896D01*
X011492Y006817D02*
X011394Y006817D01*
X011394Y006739D02*
X011492Y006739D01*
X011492Y006660D02*
X011394Y006660D01*
X011394Y006582D02*
X011492Y006582D01*
X011492Y006503D02*
X011394Y006503D01*
X011394Y006425D02*
X011492Y006425D01*
X011492Y006346D02*
X011394Y006346D01*
X011394Y006267D02*
X011492Y006267D01*
X011492Y006189D02*
X011394Y006189D01*
X011394Y006110D02*
X011492Y006110D01*
X011492Y006032D02*
X011394Y006032D01*
X011394Y005953D02*
X011492Y005953D01*
X011492Y005875D02*
X011394Y005875D01*
X011394Y005796D02*
X011492Y005796D01*
X011492Y005718D02*
X011394Y005718D01*
X011394Y005639D02*
X011492Y005639D01*
X011492Y005561D02*
X011394Y005561D01*
X011361Y005482D02*
X011492Y005482D01*
X011492Y005404D02*
X011283Y005404D01*
X011204Y005325D02*
X011492Y005325D01*
X011492Y005246D02*
X011154Y005246D01*
X011154Y005168D02*
X011492Y005168D01*
X011492Y005089D02*
X011154Y005089D01*
X011154Y005011D02*
X011492Y005011D01*
X011492Y004932D02*
X011154Y004932D01*
X011181Y004854D02*
X011492Y004854D01*
X011492Y004775D02*
X011223Y004775D01*
X011234Y004697D02*
X011492Y004697D01*
X011492Y004618D02*
X011219Y004618D01*
X011172Y004540D02*
X011492Y004540D01*
X011492Y004461D02*
X010444Y004461D01*
X010444Y004540D02*
X010816Y004540D01*
X010769Y004618D02*
X010444Y004618D01*
X010444Y004697D02*
X010754Y004697D01*
X010765Y004775D02*
X010444Y004775D01*
X010444Y004852D02*
X010477Y004885D01*
X010514Y004973D01*
X010514Y005069D01*
X010477Y005157D01*
X010410Y005225D01*
X010322Y005261D01*
X010226Y005261D01*
X010138Y005225D01*
X010071Y005157D01*
X010034Y005069D01*
X010034Y004973D01*
X010071Y004885D01*
X010104Y004852D01*
X010104Y002306D01*
X009321Y001523D01*
X006274Y001583D01*
X003227Y001523D01*
X002454Y002296D01*
X002454Y002862D01*
X002477Y002885D01*
X002514Y002973D01*
X002514Y003069D01*
X002477Y003157D01*
X002454Y003181D01*
X002454Y004142D01*
X002477Y004165D01*
X002514Y004253D01*
X002514Y004315D01*
X003300Y005101D01*
X004015Y005101D01*
X004058Y005058D01*
X004146Y005021D01*
X004242Y005021D01*
X004330Y005058D01*
X004397Y005125D01*
X004434Y005213D01*
X004434Y005309D01*
X004397Y005397D01*
X004330Y005465D01*
X004242Y005501D01*
X004146Y005501D01*
X004058Y005465D01*
X004015Y005421D01*
X003300Y005421D01*
X003168Y005421D01*
X002288Y004541D01*
X002226Y004541D01*
X002138Y004505D01*
X002071Y004437D01*
X002034Y004349D01*
X002034Y004253D01*
X002071Y004165D01*
X002094Y004142D01*
X002094Y003181D01*
X002071Y003157D01*
X002034Y003069D01*
X002034Y002973D01*
X002071Y002885D01*
X002094Y002862D01*
X002094Y002296D01*
X002094Y002147D01*
X002975Y001265D01*
X002976Y001263D01*
X003029Y001212D01*
X003079Y001161D01*
X003082Y001161D01*
X003083Y001160D01*
X003156Y001161D01*
X003229Y001161D01*
X003229Y001162D01*
X006274Y001192D01*
X009319Y001162D01*
X009319Y001161D01*
X009393Y001161D01*
X009465Y001160D01*
X009466Y001161D01*
X009469Y001161D01*
X009519Y001212D01*
X009572Y001263D01*
X009573Y001265D01*
X010454Y002147D01*
X010454Y002296D01*
X010444Y002306D01*
X010444Y004852D01*
X010446Y004854D02*
X010807Y004854D01*
X010834Y004932D02*
X010497Y004932D01*
X010514Y005011D02*
X010834Y005011D01*
X010834Y005089D02*
X010506Y005089D01*
X010467Y005168D02*
X010834Y005168D01*
X010834Y005246D02*
X010357Y005246D01*
X010191Y005246D02*
X004434Y005246D01*
X004427Y005325D02*
X010834Y005325D01*
X010834Y005404D02*
X004391Y005404D01*
X004288Y005482D02*
X010785Y005482D01*
X010929Y005678D02*
X008919Y005678D01*
X008359Y006293D01*
X008523Y005875D02*
X005754Y005875D01*
X005675Y005796D02*
X008595Y005796D01*
X008666Y005718D02*
X005597Y005718D01*
X005518Y005639D02*
X008737Y005639D01*
X008809Y005561D02*
X002620Y005561D01*
X002553Y005482D02*
X004100Y005482D01*
X004194Y005261D02*
X003234Y005261D01*
X002274Y004301D01*
X002459Y004147D02*
X007474Y004147D01*
X007474Y004225D02*
X002502Y004225D01*
X002514Y004304D02*
X007474Y004304D01*
X007474Y004382D02*
X002582Y004382D01*
X002660Y004461D02*
X007474Y004461D01*
X007474Y004522D02*
X007474Y003567D01*
X006688Y002781D01*
X006626Y002781D01*
X006538Y002745D01*
X006471Y002677D01*
X006434Y002589D01*
X006434Y002493D01*
X006471Y002405D01*
X006538Y002338D01*
X006613Y002307D01*
X006491Y002184D01*
X006490Y002185D01*
X006402Y002221D01*
X006306Y002221D01*
X006218Y002185D01*
X006151Y002117D01*
X006114Y002029D01*
X006114Y001933D01*
X006151Y001845D01*
X006218Y001778D01*
X006306Y001741D01*
X006402Y001741D01*
X006490Y001778D01*
X006533Y001821D01*
X006580Y001821D01*
X006674Y001915D01*
X007243Y002484D01*
X007243Y002418D01*
X007291Y002301D01*
X007380Y002212D01*
X007497Y002164D01*
X007623Y002164D01*
X007740Y002212D01*
X007829Y002301D01*
X007877Y002418D01*
X007877Y002544D01*
X007829Y002661D01*
X007740Y002750D01*
X007623Y002798D01*
X007557Y002798D01*
X008194Y003435D01*
X008194Y003567D01*
X008194Y004522D01*
X008237Y004565D01*
X008274Y004653D01*
X008274Y004749D01*
X008237Y004837D01*
X008170Y004905D01*
X008082Y004941D01*
X007986Y004941D01*
X007898Y004905D01*
X007834Y004840D01*
X007770Y004905D01*
X007682Y004941D01*
X007586Y004941D01*
X007498Y004905D01*
X007431Y004837D01*
X007394Y004749D01*
X007394Y004653D01*
X007431Y004565D01*
X007474Y004522D01*
X007456Y004540D02*
X002739Y004540D01*
X002817Y004618D02*
X007409Y004618D01*
X007394Y004697D02*
X002896Y004697D01*
X002974Y004775D02*
X007405Y004775D01*
X007447Y004854D02*
X003053Y004854D01*
X003131Y004932D02*
X007565Y004932D01*
X007703Y004932D02*
X007965Y004932D01*
X008103Y004932D02*
X010051Y004932D01*
X010034Y005011D02*
X003210Y005011D01*
X003289Y005089D02*
X004026Y005089D01*
X004362Y005089D02*
X010043Y005089D01*
X010081Y005168D02*
X004415Y005168D01*
X004786Y005936D02*
X005357Y005936D01*
X005428Y006007D01*
X005428Y006502D01*
X005542Y006502D01*
X005542Y006115D01*
X005328Y005901D01*
X003310Y005901D01*
X003341Y005936D01*
X003724Y005936D01*
X003794Y006007D01*
X003794Y006502D01*
X004715Y006502D01*
X004715Y006007D01*
X004786Y005936D01*
X004769Y005953D02*
X003740Y005953D01*
X003794Y006032D02*
X004715Y006032D01*
X004715Y006110D02*
X003794Y006110D01*
X003794Y006189D02*
X004715Y006189D01*
X004715Y006267D02*
X003794Y006267D01*
X003794Y006346D02*
X004715Y006346D01*
X004715Y006425D02*
X003794Y006425D01*
X003667Y006828D02*
X003534Y006828D01*
X002636Y006828D01*
X002613Y006772D01*
X002545Y006704D01*
X002457Y006668D01*
X002361Y006668D01*
X002323Y006684D01*
X002323Y006647D01*
X002325Y006649D01*
X002708Y006649D01*
X002771Y006721D01*
X002771Y006728D01*
X002814Y006771D01*
X002853Y006817D01*
X002860Y006817D01*
X002865Y006822D01*
X002925Y006822D01*
X002986Y006826D01*
X002991Y006822D01*
X005005Y006822D01*
X006784Y006822D01*
X006754Y006893D01*
X006754Y006989D01*
X006791Y007077D01*
X006858Y007145D01*
X006933Y007176D01*
X006914Y007195D01*
X006914Y007242D01*
X006871Y007285D01*
X006834Y007373D01*
X006834Y007469D01*
X006871Y007557D01*
X006938Y007625D01*
X007026Y007661D01*
X007122Y007661D01*
X007176Y007639D01*
X007176Y007732D01*
X006255Y007732D01*
X006255Y007237D01*
X006184Y007167D01*
X005821Y007167D01*
X005756Y007086D01*
X005756Y007075D01*
X005716Y007035D01*
X005681Y006990D01*
X005670Y006989D01*
X005663Y006981D01*
X005606Y006981D01*
X005549Y006974D01*
X005541Y006981D01*
X003820Y006981D01*
X003667Y006828D01*
X003735Y006896D02*
X006754Y006896D01*
X006754Y006974D02*
X003814Y006974D01*
X003754Y007141D02*
X005596Y007141D01*
X005898Y007523D01*
X005793Y007131D02*
X006845Y007131D01*
X006781Y007053D02*
X005734Y007053D01*
X005519Y007301D02*
X005542Y007330D01*
X005542Y007732D01*
X005428Y007732D01*
X005428Y007301D01*
X005519Y007301D01*
X005542Y007367D02*
X005428Y007367D01*
X005428Y007446D02*
X005542Y007446D01*
X005542Y007524D02*
X005428Y007524D01*
X005428Y007603D02*
X005542Y007603D01*
X005542Y007681D02*
X005428Y007681D01*
X005478Y008052D02*
X005498Y008072D01*
X005498Y008076D01*
X005790Y008397D01*
X006184Y008397D01*
X006255Y008467D01*
X006255Y008962D01*
X007176Y008962D01*
X007176Y008467D01*
X007246Y008397D01*
X007818Y008397D01*
X007888Y008467D01*
X008003Y008467D01*
X008073Y008397D01*
X008199Y008397D01*
X008199Y008204D01*
X008199Y008072D01*
X008219Y008052D01*
X007466Y008052D01*
X005478Y008052D01*
X005498Y008074D02*
X008199Y008074D01*
X008199Y008153D02*
X005568Y008153D01*
X005639Y008231D02*
X008199Y008231D01*
X008199Y008310D02*
X005711Y008310D01*
X005782Y008388D02*
X008199Y008388D01*
X008359Y008138D02*
X010929Y008138D01*
X010836Y007917D02*
X009495Y007917D01*
X009465Y007952D02*
X009465Y007958D01*
X009445Y007978D01*
X010750Y007978D01*
X010793Y007935D01*
X010881Y007898D01*
X010977Y007898D01*
X011065Y007935D01*
X011074Y007944D01*
X011074Y007879D01*
X010534Y007879D01*
X010463Y007809D01*
X010463Y007237D01*
X010534Y007167D01*
X011074Y007167D01*
X011074Y007102D01*
X011065Y007111D01*
X010977Y007148D01*
X010881Y007148D01*
X010793Y007111D01*
X010726Y007044D01*
X010716Y007021D01*
X009634Y007021D01*
X009634Y007167D01*
X009540Y007261D01*
X009118Y007683D01*
X008986Y007683D01*
X008715Y007683D01*
X008715Y007732D01*
X009232Y007732D01*
X009385Y007556D01*
X009385Y007475D01*
X009422Y007387D01*
X009489Y007320D01*
X009577Y007283D01*
X009637Y007283D01*
X009637Y007237D01*
X009707Y007167D01*
X010279Y007167D01*
X010349Y007237D01*
X010349Y007809D01*
X010279Y007879D01*
X009707Y007879D01*
X009637Y007809D01*
X009637Y007763D01*
X009629Y007763D01*
X009465Y007952D01*
X009563Y007838D02*
X009666Y007838D01*
X009594Y007541D02*
X009625Y007523D01*
X009305Y007892D01*
X007532Y007892D01*
X007532Y007523D01*
X007532Y007892D02*
X005072Y007892D01*
X005072Y007523D01*
X005072Y007892D02*
X002931Y007892D01*
X002611Y007523D01*
X002708Y007879D02*
X002325Y007879D01*
X002323Y007877D01*
X002323Y007914D01*
X002361Y007898D01*
X002457Y007898D01*
X002545Y007935D01*
X002589Y007978D01*
X002791Y007978D01*
X002771Y007958D01*
X002771Y007952D01*
X002708Y007879D01*
X002741Y007917D02*
X002502Y007917D01*
X002409Y008138D02*
X005338Y008138D01*
X005898Y008753D01*
X005542Y008781D02*
X005428Y008781D01*
X005428Y008859D02*
X005542Y008859D01*
X005542Y008938D02*
X005428Y008938D01*
X005428Y008962D02*
X005428Y008474D01*
X005542Y008600D01*
X005542Y008962D01*
X005428Y008962D01*
X005428Y008702D02*
X005542Y008702D01*
X005542Y008624D02*
X005428Y008624D01*
X005428Y008545D02*
X005493Y008545D01*
X005361Y008400D02*
X005268Y008298D01*
X004179Y008298D01*
X004194Y008333D01*
X004194Y008429D01*
X004157Y008517D01*
X004090Y008585D01*
X004002Y008621D01*
X003906Y008621D01*
X003818Y008585D01*
X003794Y008560D01*
X003794Y008962D01*
X004715Y008962D01*
X004715Y008467D01*
X004786Y008397D01*
X005357Y008397D01*
X005361Y008400D01*
X005350Y008388D02*
X004194Y008388D01*
X004184Y008310D02*
X005278Y008310D01*
X005072Y008753D02*
X005072Y009122D01*
X007532Y009122D01*
X007532Y008753D01*
X007532Y009122D02*
X009225Y009122D01*
X009625Y008753D01*
X009594Y008741D01*
X009944Y008741D01*
X009993Y008753D01*
X009692Y009095D02*
X009491Y009095D01*
X009576Y009016D02*
X009637Y009016D01*
X009637Y008993D02*
X009601Y008993D01*
X009368Y009208D01*
X010750Y009208D01*
X010793Y009165D01*
X010881Y009128D01*
X010977Y009128D01*
X011065Y009165D01*
X011074Y009174D01*
X011074Y009109D01*
X010534Y009109D01*
X010463Y009039D01*
X010463Y008467D01*
X010534Y008397D01*
X011074Y008397D01*
X011074Y008333D01*
X011065Y008342D01*
X010977Y008378D01*
X010881Y008378D01*
X010793Y008342D01*
X010750Y008298D01*
X008519Y008298D01*
X008519Y008397D01*
X008645Y008397D01*
X008715Y008467D01*
X008715Y008962D01*
X009162Y008962D01*
X009385Y008757D01*
X009385Y008706D01*
X009422Y008617D01*
X009489Y008550D01*
X009577Y008513D01*
X009637Y008513D01*
X009637Y008467D01*
X008714Y008467D01*
X008715Y008545D02*
X009500Y008545D01*
X009419Y008624D02*
X008715Y008624D01*
X008715Y008702D02*
X009386Y008702D01*
X009359Y008781D02*
X008715Y008781D01*
X008715Y008859D02*
X009274Y008859D01*
X009189Y008938D02*
X008715Y008938D01*
X008779Y009282D02*
X007598Y009282D01*
X006361Y009282D01*
X006434Y009355D01*
X006434Y009835D01*
X006434Y009967D01*
X006354Y010047D01*
X006260Y010141D01*
X006255Y010141D01*
X006255Y010270D01*
X006184Y010340D01*
X006058Y010340D01*
X006058Y010343D01*
X006034Y010367D01*
X006034Y010429D01*
X005997Y010517D01*
X005973Y010541D01*
X007118Y010541D01*
X007319Y010340D01*
X007246Y010340D01*
X007176Y010270D01*
X007176Y009698D01*
X007246Y009627D01*
X007818Y009627D01*
X007888Y009698D01*
X007888Y010193D01*
X008003Y010193D01*
X008003Y009698D01*
X008073Y009627D01*
X008467Y009627D01*
X008759Y009306D01*
X008759Y009302D01*
X008779Y009282D01*
X008737Y009331D02*
X006410Y009331D01*
X006434Y009409D02*
X008665Y009409D01*
X008594Y009488D02*
X006434Y009488D01*
X006434Y009566D02*
X008522Y009566D01*
X008741Y009802D02*
X009467Y009802D01*
X009489Y009780D02*
X009577Y009744D01*
X009637Y009744D01*
X009637Y009698D01*
X009707Y009627D01*
X010279Y009627D01*
X010349Y009698D01*
X010349Y010270D01*
X010279Y010340D01*
X009707Y010340D01*
X009637Y010270D01*
X009637Y010224D01*
X009601Y010224D01*
X009368Y010439D01*
X010750Y010439D01*
X010793Y010395D01*
X010881Y010359D01*
X010977Y010359D01*
X011065Y010395D01*
X011074Y010404D01*
X011074Y010340D01*
X010534Y010340D01*
X010463Y010270D01*
X010463Y009698D01*
X010534Y009627D01*
X011074Y009627D01*
X011074Y009563D01*
X011065Y009572D01*
X010977Y009608D01*
X010881Y009608D01*
X010793Y009572D01*
X010750Y009528D01*
X008990Y009528D01*
X008715Y009830D01*
X008715Y010193D01*
X009162Y010193D01*
X009385Y009987D01*
X009385Y009936D01*
X009422Y009848D01*
X009489Y009780D01*
X009408Y009880D02*
X008715Y009880D01*
X008715Y009959D02*
X009385Y009959D01*
X009331Y010038D02*
X008715Y010038D01*
X008715Y010116D02*
X009246Y010116D01*
X009225Y010353D02*
X009625Y009984D01*
X009594Y009991D01*
X009944Y009991D01*
X009993Y009984D01*
X009689Y009645D02*
X008884Y009645D01*
X008955Y009566D02*
X010788Y009566D01*
X010929Y009368D02*
X008919Y009368D01*
X008359Y009984D01*
X008056Y009645D02*
X007836Y009645D01*
X007888Y009723D02*
X008003Y009723D01*
X008003Y009802D02*
X007888Y009802D01*
X007888Y009880D02*
X008003Y009880D01*
X008003Y009959D02*
X007888Y009959D01*
X007888Y010038D02*
X008003Y010038D01*
X008003Y010116D02*
X007888Y010116D01*
X007598Y010513D02*
X008779Y010513D01*
X008759Y010532D01*
X008759Y010537D01*
X008467Y010858D01*
X008073Y010858D01*
X008003Y010928D01*
X008003Y011423D01*
X007888Y011423D01*
X007888Y010928D01*
X007818Y010858D01*
X007253Y010858D01*
X007598Y010513D01*
X007524Y010587D02*
X008713Y010587D01*
X008641Y010666D02*
X007445Y010666D01*
X007367Y010744D02*
X008570Y010744D01*
X008498Y010823D02*
X007288Y010823D01*
X007243Y010861D02*
X007118Y010861D01*
X006188Y010861D01*
X006255Y010928D01*
X006255Y011423D01*
X007176Y011423D01*
X007176Y010928D01*
X007243Y010861D01*
X007202Y010902D02*
X006228Y010902D01*
X006255Y010980D02*
X007176Y010980D01*
X007176Y011059D02*
X006255Y011059D01*
X006255Y011137D02*
X007176Y011137D01*
X007176Y011216D02*
X006255Y011216D01*
X006255Y011294D02*
X007176Y011294D01*
X007176Y011373D02*
X006255Y011373D01*
X005898Y011214D02*
X005338Y010599D01*
X002409Y010599D01*
X002580Y010430D02*
X002782Y010430D01*
X002791Y010439D02*
X002771Y010419D01*
X002771Y010412D01*
X002708Y010340D01*
X002325Y010340D01*
X002323Y010338D01*
X002323Y010375D01*
X002361Y010359D01*
X002457Y010359D01*
X002545Y010395D01*
X002589Y010439D01*
X002791Y010439D01*
X002718Y010352D02*
X002323Y010352D01*
X002003Y010352D02*
X001939Y010352D01*
X001939Y010430D02*
X002003Y010430D01*
X002003Y010509D02*
X001939Y010509D01*
X001939Y010587D02*
X002003Y010587D01*
X002003Y010666D02*
X001939Y010666D01*
X001939Y010744D02*
X002003Y010744D01*
X002003Y010823D02*
X001939Y010823D01*
X001939Y010902D02*
X002003Y010902D01*
X002003Y010980D02*
X001939Y010980D01*
X001939Y011059D02*
X002003Y011059D01*
X002003Y011137D02*
X001939Y011137D01*
X001939Y011216D02*
X002003Y011216D01*
X002003Y011294D02*
X001939Y011294D01*
X001939Y011373D02*
X002003Y011373D01*
X002003Y011451D02*
X001939Y011451D01*
X001939Y011530D02*
X002003Y011530D01*
X002003Y011608D02*
X001939Y011608D01*
X001939Y011687D02*
X002003Y011687D01*
X002003Y011766D02*
X001939Y011766D01*
X001939Y011844D02*
X002003Y011844D01*
X002003Y011923D02*
X001939Y011923D01*
X001939Y012001D02*
X002003Y012001D01*
X002003Y012080D02*
X001939Y012080D01*
X001939Y012158D02*
X002003Y012158D01*
X002003Y012237D02*
X001939Y012237D01*
X001939Y012315D02*
X002003Y012315D01*
X002003Y012394D02*
X001939Y012394D01*
X001939Y012472D02*
X002003Y012472D01*
X002003Y012551D02*
X001939Y012551D01*
X001939Y012629D02*
X002003Y012629D01*
X002003Y012708D02*
X001939Y012708D01*
X001939Y012787D02*
X002003Y012787D01*
X002003Y012865D02*
X001939Y012865D01*
X001939Y012944D02*
X002003Y012944D01*
X002003Y013022D02*
X001939Y013022D01*
X001939Y013101D02*
X002003Y013101D01*
X002003Y013179D02*
X001939Y013179D01*
X001939Y013258D02*
X002003Y013258D01*
X002003Y013336D02*
X001939Y013336D01*
X001939Y013415D02*
X002003Y013415D01*
X002003Y013493D02*
X001939Y013493D01*
X001939Y013572D02*
X002003Y013572D01*
X002003Y013651D02*
X001939Y013651D01*
X001939Y013729D02*
X002003Y013729D01*
X002003Y013808D02*
X001939Y013808D01*
X001939Y013886D02*
X002003Y013886D01*
X002003Y013965D02*
X001939Y013965D01*
X001939Y014043D02*
X002003Y014043D01*
X002003Y014122D02*
X001939Y014122D01*
X001939Y014200D02*
X002003Y014200D01*
X002003Y014279D02*
X001939Y014279D01*
X001939Y014357D02*
X002003Y014357D01*
X002003Y014436D02*
X001939Y014436D01*
X001939Y014515D02*
X002003Y014515D01*
X002003Y014593D02*
X001939Y014593D01*
X001939Y014672D02*
X002003Y014672D01*
X002003Y014750D02*
X001939Y014750D01*
X001939Y014829D02*
X002003Y014829D01*
X002003Y014907D02*
X001939Y014907D01*
X001939Y014986D02*
X002003Y014986D01*
X002003Y015064D02*
X001939Y015064D01*
X001939Y015143D02*
X002003Y015143D01*
X002003Y015221D02*
X001939Y015221D01*
X001939Y015300D02*
X002003Y015300D01*
X002003Y015379D02*
X001939Y015379D01*
X001939Y015457D02*
X002003Y015457D01*
X002003Y015536D02*
X001939Y015536D01*
X001939Y015614D02*
X002003Y015614D01*
X002003Y015693D02*
X001939Y015693D01*
X001939Y015771D02*
X002003Y015771D01*
X002003Y015850D02*
X001939Y015850D01*
X001939Y015928D02*
X002003Y015928D01*
X002003Y016007D02*
X001939Y016007D01*
X001939Y016085D02*
X002003Y016085D01*
X002003Y016164D02*
X001939Y016164D01*
X001939Y016242D02*
X002003Y016242D01*
X002003Y016321D02*
X001939Y016321D01*
X001939Y016400D02*
X002003Y016400D01*
X002003Y016478D02*
X001939Y016478D01*
X001939Y016557D02*
X002003Y016557D01*
X002003Y016635D02*
X001939Y016635D01*
X001939Y016714D02*
X002003Y016714D01*
X002003Y016792D02*
X001939Y016792D01*
X001939Y016871D02*
X002003Y016871D01*
X002003Y016949D02*
X001939Y016949D01*
X001939Y017028D02*
X002003Y017028D01*
X002047Y017106D02*
X001939Y017106D01*
X001939Y017185D02*
X002255Y017185D01*
X002255Y017264D02*
X001939Y017264D01*
X001939Y017342D02*
X002255Y017342D01*
X002255Y017421D02*
X001939Y017421D01*
X001939Y017499D02*
X002255Y017499D01*
X002255Y017578D02*
X001939Y017578D01*
X001939Y017656D02*
X002260Y017656D01*
X001939Y018049D02*
X009882Y018049D01*
X009994Y018128D02*
X001939Y018128D01*
X001939Y018206D02*
X011492Y018206D01*
X011492Y018128D02*
X010754Y018128D01*
X010866Y018049D02*
X011492Y018049D01*
X011492Y017970D02*
X010905Y017970D01*
X010914Y017892D02*
X011492Y017892D01*
X011492Y017813D02*
X010897Y017813D01*
X010847Y017735D02*
X011492Y017735D01*
X011492Y017656D02*
X011171Y017656D01*
X011176Y017578D02*
X011492Y017578D01*
X011492Y017499D02*
X011327Y017499D01*
X011394Y017421D02*
X011492Y017421D01*
X011492Y017342D02*
X011394Y017342D01*
X011394Y017264D02*
X011492Y017264D01*
X011492Y017185D02*
X011394Y017185D01*
X011394Y017106D02*
X011492Y017106D01*
X011492Y017028D02*
X011394Y017028D01*
X011234Y017366D02*
X011234Y016135D01*
X010820Y016135D01*
X010762Y015693D02*
X008978Y015693D01*
X008907Y015771D02*
X011074Y015771D01*
X010929Y015520D02*
X008919Y015520D01*
X008359Y016135D01*
X008467Y015779D02*
X008759Y015458D01*
X008759Y015454D01*
X008779Y015434D01*
X007466Y015434D01*
X005558Y015434D01*
X005578Y015454D01*
X005578Y015465D01*
X005823Y015779D01*
X006184Y015779D01*
X006255Y015849D01*
X006255Y016344D01*
X007176Y016344D01*
X007176Y015849D01*
X007246Y015779D01*
X007818Y015779D01*
X007888Y015849D01*
X007888Y016344D01*
X008003Y016344D01*
X008003Y015849D01*
X008073Y015779D01*
X008467Y015779D01*
X008474Y015771D02*
X005817Y015771D01*
X005756Y015693D02*
X008545Y015693D01*
X008617Y015614D02*
X005695Y015614D01*
X005633Y015536D02*
X008688Y015536D01*
X008759Y015457D02*
X005578Y015457D01*
X005418Y015520D02*
X002409Y015520D01*
X002323Y015296D02*
X002361Y015280D01*
X002451Y015280D01*
X002451Y015261D01*
X002325Y015261D01*
X002323Y015259D01*
X002323Y015296D01*
X002163Y015766D02*
X002163Y016996D01*
X003438Y016996D01*
X003438Y017366D01*
X003081Y017342D02*
X002967Y017342D01*
X002967Y017264D02*
X003081Y017264D01*
X003081Y017185D02*
X002967Y017185D01*
X002967Y017156D02*
X002967Y017532D01*
X003004Y017575D01*
X003081Y017575D01*
X003081Y017156D01*
X002967Y017156D01*
X002967Y017421D02*
X003081Y017421D01*
X003081Y017499D02*
X002967Y017499D01*
X003004Y016344D02*
X003081Y016344D01*
X003081Y015969D01*
X003045Y015926D01*
X002967Y015926D01*
X002967Y016302D01*
X003004Y016344D01*
X002984Y016321D02*
X003081Y016321D01*
X003081Y016242D02*
X002967Y016242D01*
X002967Y016164D02*
X003081Y016164D01*
X003081Y016085D02*
X002967Y016085D01*
X002967Y016007D02*
X003081Y016007D01*
X003047Y015928D02*
X002967Y015928D01*
X003271Y015693D02*
X005350Y015693D01*
X005418Y015520D02*
X005898Y016135D01*
X006255Y016164D02*
X007176Y016164D01*
X007176Y016242D02*
X006255Y016242D01*
X006255Y016321D02*
X007176Y016321D01*
X007176Y016085D02*
X006255Y016085D01*
X006255Y016007D02*
X007176Y016007D01*
X007176Y015928D02*
X006255Y015928D01*
X006255Y015850D02*
X007176Y015850D01*
X007532Y015274D02*
X009225Y015274D01*
X009625Y014905D01*
X009594Y014891D01*
X009944Y014891D01*
X009993Y014905D01*
X009667Y015221D02*
X009518Y015221D01*
X009601Y015145D02*
X009368Y015360D01*
X010750Y015360D01*
X010793Y015317D01*
X010881Y015280D01*
X010977Y015280D01*
X011065Y015317D01*
X011074Y015325D01*
X011074Y015261D01*
X010534Y015261D01*
X010463Y015191D01*
X010463Y014619D01*
X010534Y014549D01*
X011074Y014549D01*
X011074Y014484D01*
X011065Y014493D01*
X010977Y014530D01*
X010881Y014530D01*
X010793Y014493D01*
X010750Y014450D01*
X008990Y014450D01*
X008715Y014751D01*
X008715Y015114D01*
X009162Y015114D01*
X009385Y014909D01*
X009385Y014857D01*
X009422Y014769D01*
X009489Y014701D01*
X009577Y014665D01*
X009637Y014665D01*
X009637Y014619D01*
X009707Y014549D01*
X010279Y014549D01*
X010349Y014619D01*
X010349Y015191D01*
X010279Y015261D01*
X009707Y015261D01*
X009637Y015191D01*
X009637Y015145D01*
X009601Y015145D01*
X009433Y015300D02*
X010833Y015300D01*
X011025Y015300D02*
X011074Y015300D01*
X011234Y014905D02*
X011234Y016135D01*
X010520Y016478D02*
X010292Y016478D01*
X010349Y016400D02*
X010463Y016400D01*
X010463Y016321D02*
X010349Y016321D01*
X010349Y016242D02*
X010463Y016242D01*
X010463Y016164D02*
X010349Y016164D01*
X010349Y016085D02*
X010463Y016085D01*
X010463Y016007D02*
X010349Y016007D01*
X010349Y015928D02*
X010463Y015928D01*
X010463Y015850D02*
X010349Y015850D01*
X010318Y015221D02*
X010494Y015221D01*
X010463Y015143D02*
X010349Y015143D01*
X010349Y015064D02*
X010463Y015064D01*
X010463Y014986D02*
X010349Y014986D01*
X010349Y014907D02*
X010463Y014907D01*
X010463Y014829D02*
X010349Y014829D01*
X010349Y014750D02*
X010463Y014750D01*
X010463Y014672D02*
X010349Y014672D01*
X010323Y014593D02*
X010489Y014593D01*
X010820Y014905D02*
X011234Y014905D01*
X011234Y013675D01*
X010820Y013675D01*
X010881Y014050D02*
X010793Y014086D01*
X010750Y014130D01*
X009368Y014130D01*
X009601Y013915D01*
X009637Y013915D01*
X009637Y013960D01*
X009707Y014031D01*
X010279Y014031D01*
X010349Y013960D01*
X010349Y013389D01*
X010279Y013318D01*
X009707Y013318D01*
X009637Y013389D01*
X009637Y013435D01*
X009577Y013435D01*
X009489Y013471D01*
X009422Y013539D01*
X009385Y013627D01*
X009385Y013678D01*
X009162Y013884D01*
X008715Y013884D01*
X008715Y013521D01*
X008990Y013219D01*
X010750Y013219D01*
X010793Y013263D01*
X010881Y013299D01*
X010977Y013299D01*
X011065Y013263D01*
X011074Y013254D01*
X011074Y013318D01*
X010534Y013318D01*
X010463Y013389D01*
X010463Y013960D01*
X010534Y014031D01*
X011074Y014031D01*
X011074Y014095D01*
X011065Y014086D01*
X010977Y014050D01*
X010881Y014050D01*
X010758Y014122D02*
X009376Y014122D01*
X009461Y014043D02*
X011074Y014043D01*
X010929Y014290D02*
X008919Y014290D01*
X008359Y014905D01*
X008467Y014549D02*
X008073Y014549D01*
X008003Y014619D01*
X008003Y015114D01*
X007888Y015114D01*
X007888Y014619D01*
X007818Y014549D01*
X007246Y014549D01*
X007176Y014619D01*
X007176Y015114D01*
X006255Y015114D01*
X006255Y014619D01*
X006184Y014549D01*
X006058Y014549D01*
X006058Y014356D01*
X006058Y014223D01*
X006038Y014204D01*
X007466Y014204D01*
X008779Y014204D01*
X008759Y014223D01*
X008759Y014228D01*
X008467Y014549D01*
X008498Y014515D02*
X006058Y014515D01*
X006058Y014436D02*
X008569Y014436D01*
X008641Y014357D02*
X006058Y014357D01*
X006058Y014279D02*
X008712Y014279D01*
X008931Y014515D02*
X010845Y014515D01*
X011014Y014515D02*
X011074Y014515D01*
X011234Y013675D02*
X011234Y012444D01*
X010820Y012444D01*
X010801Y012069D02*
X010713Y012033D01*
X010670Y011989D01*
X009063Y011989D01*
X008715Y012324D01*
X008715Y012653D01*
X009162Y012653D01*
X009385Y012448D01*
X009385Y012396D01*
X009422Y012308D01*
X009489Y012241D01*
X009577Y012204D01*
X009637Y012204D01*
X009637Y012158D01*
X008887Y012158D01*
X008806Y012237D02*
X009499Y012237D01*
X009419Y012315D02*
X008724Y012315D01*
X008715Y012394D02*
X009386Y012394D01*
X009359Y012472D02*
X008715Y012472D01*
X008715Y012551D02*
X009273Y012551D01*
X009188Y012629D02*
X008715Y012629D01*
X008919Y013059D02*
X010929Y013059D01*
X010750Y012899D02*
X010793Y012856D01*
X010881Y012819D01*
X010977Y012819D01*
X011065Y012856D01*
X011074Y012865D01*
X011074Y012800D01*
X010534Y012800D01*
X010463Y012730D01*
X010463Y012158D01*
X010534Y012088D01*
X011074Y012088D01*
X011074Y011913D01*
X011053Y011965D01*
X010985Y012033D01*
X010897Y012069D01*
X010801Y012069D01*
X010682Y012001D02*
X009051Y012001D01*
X008969Y012080D02*
X011074Y012080D01*
X011074Y012001D02*
X011017Y012001D01*
X011070Y011923D02*
X011074Y011923D01*
X011074Y011745D02*
X011053Y011693D01*
X010985Y011626D01*
X010897Y011589D01*
X010801Y011589D01*
X010713Y011626D01*
X010670Y011669D01*
X009368Y011669D01*
X009601Y011454D01*
X009637Y011454D01*
X009637Y011500D01*
X009707Y011570D01*
X010279Y011570D01*
X010349Y011500D01*
X010349Y010928D01*
X010279Y010858D01*
X009707Y010858D01*
X009637Y010928D01*
X009637Y010974D01*
X009577Y010974D01*
X009489Y011010D01*
X009422Y011078D01*
X009385Y011166D01*
X009385Y011218D01*
X009162Y011423D01*
X008715Y011423D01*
X008715Y011060D01*
X008990Y010759D01*
X010750Y010759D01*
X010793Y010802D01*
X010881Y010839D01*
X010977Y010839D01*
X011065Y010802D01*
X011074Y010793D01*
X011074Y010858D01*
X010534Y010858D01*
X010463Y010928D01*
X010463Y011500D01*
X010534Y011570D01*
X011074Y011570D01*
X011074Y011745D01*
X011074Y011687D02*
X011047Y011687D01*
X011074Y011608D02*
X010944Y011608D01*
X010755Y011608D02*
X009433Y011608D01*
X009518Y011530D02*
X009667Y011530D01*
X009594Y011241D02*
X009625Y011214D01*
X009225Y011583D01*
X007532Y011583D01*
X005072Y011583D01*
X005072Y011214D01*
X005072Y011583D02*
X002611Y011583D01*
X002611Y011214D01*
X002451Y011570D02*
X002451Y011589D01*
X002361Y011589D01*
X002323Y011605D01*
X002323Y011568D01*
X002325Y011570D01*
X002451Y011570D01*
X002409Y011829D02*
X003482Y011829D01*
X003622Y011743D02*
X003780Y011901D01*
X005314Y011901D01*
X005314Y011813D01*
X005343Y011743D01*
X005005Y011743D01*
X003622Y011743D01*
X003645Y011766D02*
X005334Y011766D01*
X005314Y011844D02*
X003723Y011844D01*
X003794Y012221D02*
X003794Y012653D01*
X004715Y012653D01*
X004715Y012221D01*
X003794Y012221D01*
X003794Y012237D02*
X004715Y012237D01*
X004715Y012315D02*
X003794Y012315D01*
X003794Y012394D02*
X004715Y012394D01*
X004715Y012472D02*
X003794Y012472D01*
X003794Y012551D02*
X004715Y012551D01*
X004715Y012629D02*
X003794Y012629D01*
X003724Y013318D02*
X003794Y013389D01*
X003794Y013884D01*
X004715Y013884D01*
X004715Y013389D01*
X004786Y013318D01*
X005357Y013318D01*
X005428Y013389D01*
X005428Y013884D01*
X005542Y013884D01*
X005542Y013389D01*
X005612Y013318D01*
X005738Y013318D01*
X005738Y013219D01*
X003258Y013219D01*
X003278Y013239D01*
X003278Y013246D01*
X003341Y013318D01*
X003724Y013318D01*
X003742Y013336D02*
X004768Y013336D01*
X004715Y013415D02*
X003794Y013415D01*
X003794Y013493D02*
X004715Y013493D01*
X004715Y013572D02*
X003794Y013572D01*
X003794Y013651D02*
X004715Y013651D01*
X004715Y013729D02*
X003794Y013729D01*
X003794Y013808D02*
X004715Y013808D01*
X004741Y014593D02*
X003768Y014593D01*
X003794Y014672D02*
X004715Y014672D01*
X004715Y014750D02*
X003794Y014750D01*
X003794Y014829D02*
X004715Y014829D01*
X004715Y014907D02*
X003794Y014907D01*
X003794Y014986D02*
X004715Y014986D01*
X004715Y015064D02*
X003794Y015064D01*
X003438Y014905D02*
X003438Y014536D01*
X003081Y014696D02*
X003081Y015114D01*
X002967Y015114D01*
X002967Y014696D01*
X003081Y014696D01*
X003081Y014750D02*
X002967Y014750D01*
X002967Y014829D02*
X003081Y014829D01*
X003081Y014907D02*
X002967Y014907D01*
X002967Y014986D02*
X003081Y014986D01*
X003081Y015064D02*
X002967Y015064D01*
X002611Y014905D02*
X002611Y015274D01*
X005072Y015274D01*
X007532Y015274D01*
X007532Y014905D01*
X007202Y014593D02*
X006229Y014593D01*
X006255Y014672D02*
X007176Y014672D01*
X007176Y014750D02*
X006255Y014750D01*
X006255Y014829D02*
X007176Y014829D01*
X007176Y014907D02*
X006255Y014907D01*
X006255Y014986D02*
X007176Y014986D01*
X007176Y015064D02*
X006255Y015064D01*
X005542Y015064D02*
X005428Y015064D01*
X005428Y014986D02*
X005542Y014986D01*
X005542Y014907D02*
X005428Y014907D01*
X005428Y014829D02*
X005542Y014829D01*
X005542Y014750D02*
X005428Y014750D01*
X005428Y014672D02*
X005542Y014672D01*
X005568Y014593D02*
X005402Y014593D01*
X005072Y014905D02*
X005072Y015274D01*
X004715Y015850D02*
X003794Y015850D01*
X003794Y015928D02*
X004715Y015928D01*
X004715Y016007D02*
X003794Y016007D01*
X003794Y016085D02*
X004715Y016085D01*
X004715Y016164D02*
X003794Y016164D01*
X003794Y016242D02*
X004715Y016242D01*
X004715Y016321D02*
X003794Y016321D01*
X005072Y016504D02*
X005072Y016135D01*
X005338Y016750D02*
X005898Y017366D01*
X006203Y017028D02*
X007228Y017028D01*
X007176Y017106D02*
X006255Y017106D01*
X006255Y017185D02*
X007176Y017185D01*
X007176Y017264D02*
X006255Y017264D01*
X006255Y017342D02*
X007176Y017342D01*
X007176Y017421D02*
X006255Y017421D01*
X006255Y017499D02*
X007176Y017499D01*
X007532Y017366D02*
X007532Y017735D01*
X007888Y017499D02*
X008003Y017499D01*
X008003Y017421D02*
X007888Y017421D01*
X007888Y017342D02*
X008003Y017342D01*
X008003Y017264D02*
X007888Y017264D01*
X007888Y017185D02*
X008003Y017185D01*
X008003Y017106D02*
X007888Y017106D01*
X007837Y017028D02*
X008054Y017028D01*
X008003Y016321D02*
X007888Y016321D01*
X007888Y016242D02*
X008003Y016242D01*
X008003Y016164D02*
X007888Y016164D01*
X007888Y016085D02*
X008003Y016085D01*
X008003Y016007D02*
X007888Y016007D01*
X007888Y015928D02*
X008003Y015928D01*
X008003Y015850D02*
X007888Y015850D01*
X007888Y015064D02*
X008003Y015064D01*
X008003Y014986D02*
X007888Y014986D01*
X007888Y014907D02*
X008003Y014907D01*
X008003Y014829D02*
X007888Y014829D01*
X007888Y014750D02*
X008003Y014750D01*
X008003Y014672D02*
X007888Y014672D01*
X007863Y014593D02*
X008029Y014593D01*
X008003Y013808D02*
X007888Y013808D01*
X007888Y013729D02*
X008003Y013729D01*
X008003Y013651D02*
X007888Y013651D01*
X007888Y013572D02*
X008003Y013572D01*
X008003Y013493D02*
X007888Y013493D01*
X007888Y013415D02*
X008003Y013415D01*
X008055Y013336D02*
X007836Y013336D01*
X007532Y012813D02*
X009225Y012813D01*
X009625Y012444D01*
X009594Y012441D01*
X009944Y012441D01*
X009993Y012444D01*
X009693Y012787D02*
X009490Y012787D01*
X009405Y012865D02*
X010784Y012865D01*
X010750Y012899D02*
X009368Y012899D01*
X009601Y012684D01*
X009637Y012684D01*
X009637Y012730D01*
X009707Y012800D01*
X010279Y012800D01*
X010349Y012730D01*
X010349Y012158D01*
X010463Y012158D01*
X010463Y012237D02*
X010349Y012237D01*
X010349Y012315D02*
X010463Y012315D01*
X010463Y012394D02*
X010349Y012394D01*
X010349Y012472D02*
X010463Y012472D01*
X010463Y012551D02*
X010349Y012551D01*
X010349Y012629D02*
X010463Y012629D01*
X010463Y012708D02*
X010349Y012708D01*
X010293Y012787D02*
X010520Y012787D01*
X010788Y013258D02*
X008955Y013258D01*
X008883Y013336D02*
X009689Y013336D01*
X009637Y013415D02*
X008812Y013415D01*
X008740Y013493D02*
X009467Y013493D01*
X009408Y013572D02*
X008715Y013572D01*
X008715Y013651D02*
X009385Y013651D01*
X009330Y013729D02*
X008715Y013729D01*
X008715Y013808D02*
X009245Y013808D01*
X009225Y014044D02*
X009625Y013675D01*
X009594Y013691D01*
X009944Y013691D01*
X009993Y013675D01*
X010349Y013651D02*
X010463Y013651D01*
X010463Y013729D02*
X010349Y013729D01*
X010349Y013808D02*
X010463Y013808D01*
X010463Y013886D02*
X010349Y013886D01*
X010345Y013965D02*
X010468Y013965D01*
X010463Y013572D02*
X010349Y013572D01*
X010349Y013493D02*
X010463Y013493D01*
X010463Y013415D02*
X010349Y013415D01*
X010297Y013336D02*
X010516Y013336D01*
X011070Y013258D02*
X011074Y013258D01*
X011234Y012444D02*
X011234Y011214D01*
X010820Y011214D01*
X010844Y010823D02*
X008931Y010823D01*
X008860Y010902D02*
X009663Y010902D01*
X009562Y010980D02*
X008788Y010980D01*
X008717Y011059D02*
X009441Y011059D01*
X009397Y011137D02*
X008715Y011137D01*
X008715Y011216D02*
X009385Y011216D01*
X009302Y011294D02*
X008715Y011294D01*
X008715Y011373D02*
X009217Y011373D01*
X009594Y011241D02*
X009944Y011241D01*
X009993Y011214D01*
X010349Y011216D02*
X010463Y011216D01*
X010463Y011294D02*
X010349Y011294D01*
X010349Y011373D02*
X010463Y011373D01*
X010463Y011451D02*
X010349Y011451D01*
X010319Y011530D02*
X010493Y011530D01*
X010463Y011137D02*
X010349Y011137D01*
X010349Y011059D02*
X010463Y011059D01*
X010463Y010980D02*
X010349Y010980D01*
X010323Y010902D02*
X010490Y010902D01*
X010758Y010430D02*
X009377Y010430D01*
X009462Y010352D02*
X011074Y010352D01*
X010929Y010599D02*
X008919Y010599D01*
X008359Y011214D01*
X008029Y010902D02*
X007862Y010902D01*
X007888Y010980D02*
X008003Y010980D01*
X008003Y011059D02*
X007888Y011059D01*
X007888Y011137D02*
X008003Y011137D01*
X008003Y011216D02*
X007888Y011216D01*
X007888Y011294D02*
X008003Y011294D01*
X008003Y011373D02*
X007888Y011373D01*
X007598Y011743D02*
X008858Y011743D01*
X008499Y012088D01*
X008073Y012088D01*
X008003Y012158D01*
X007888Y012158D01*
X007888Y012653D01*
X008003Y012653D01*
X008003Y012158D01*
X008003Y012237D02*
X007888Y012237D01*
X007888Y012315D02*
X008003Y012315D01*
X008003Y012394D02*
X007888Y012394D01*
X007888Y012472D02*
X008003Y012472D01*
X008003Y012551D02*
X007888Y012551D01*
X007888Y012629D02*
X008003Y012629D01*
X008359Y012444D02*
X008999Y011829D01*
X010849Y011829D01*
X011234Y011214D02*
X011234Y009984D01*
X010820Y009984D01*
X010516Y009645D02*
X010296Y009645D01*
X010349Y009723D02*
X010463Y009723D01*
X010463Y009802D02*
X010349Y009802D01*
X010349Y009880D02*
X010463Y009880D01*
X010463Y009959D02*
X010349Y009959D01*
X010349Y010038D02*
X010463Y010038D01*
X010463Y010116D02*
X010349Y010116D01*
X010349Y010195D02*
X010463Y010195D01*
X010467Y010273D02*
X010345Y010273D01*
X009640Y010273D02*
X009547Y010273D01*
X009225Y010353D02*
X007532Y010353D01*
X007184Y010701D01*
X005714Y010701D01*
X005366Y010353D01*
X005072Y010353D01*
X005072Y009984D01*
X005072Y010353D02*
X002931Y010353D01*
X002611Y009984D01*
X002967Y009959D02*
X003081Y009959D01*
X003081Y009880D02*
X002967Y009880D01*
X002967Y009802D02*
X003068Y009802D01*
X003081Y009817D02*
X003045Y009774D01*
X002967Y009774D01*
X002967Y010150D01*
X003004Y010193D01*
X003081Y010193D01*
X003081Y009817D01*
X003118Y009615D02*
X002163Y009615D01*
X002163Y010845D01*
X002003Y010273D02*
X001939Y010273D01*
X001939Y010195D02*
X002003Y010195D01*
X002003Y010116D02*
X001939Y010116D01*
X001939Y010038D02*
X002003Y010038D01*
X002003Y009959D02*
X001939Y009959D01*
X001939Y009880D02*
X002003Y009880D01*
X002003Y009802D02*
X001939Y009802D01*
X001939Y009723D02*
X002003Y009723D01*
X002003Y009645D02*
X001939Y009645D01*
X001939Y009566D02*
X002003Y009566D01*
X002003Y009488D02*
X001939Y009488D01*
X001939Y009409D02*
X002003Y009409D01*
X002003Y009331D02*
X001939Y009331D01*
X001939Y009252D02*
X002003Y009252D01*
X002003Y009174D02*
X001939Y009174D01*
X001939Y009095D02*
X002003Y009095D01*
X002003Y009016D02*
X001939Y009016D01*
X001939Y008938D02*
X002003Y008938D01*
X002003Y008859D02*
X001939Y008859D01*
X001939Y008781D02*
X002003Y008781D01*
X002003Y008702D02*
X001939Y008702D01*
X001939Y008624D02*
X002003Y008624D01*
X002003Y008545D02*
X001939Y008545D01*
X001939Y008467D02*
X002003Y008467D01*
X002003Y008388D02*
X001939Y008388D01*
X001939Y008310D02*
X002003Y008310D01*
X002003Y008231D02*
X001939Y008231D01*
X001939Y008153D02*
X002003Y008153D01*
X002003Y008074D02*
X001939Y008074D01*
X001939Y007995D02*
X002003Y007995D01*
X002003Y007917D02*
X001939Y007917D01*
X001939Y007838D02*
X002003Y007838D01*
X002003Y007760D02*
X001939Y007760D01*
X001939Y007681D02*
X002003Y007681D01*
X002003Y007603D02*
X001939Y007603D01*
X001939Y007524D02*
X002003Y007524D01*
X002003Y007446D02*
X001939Y007446D01*
X001939Y007367D02*
X002003Y007367D01*
X002003Y007289D02*
X001939Y007289D01*
X001939Y007210D02*
X002003Y007210D01*
X002003Y007131D02*
X001939Y007131D01*
X001939Y007053D02*
X002003Y007053D01*
X002003Y006974D02*
X001939Y006974D01*
X001939Y006896D02*
X002003Y006896D01*
X002003Y006817D02*
X001939Y006817D01*
X001939Y006739D02*
X002003Y006739D01*
X002003Y006660D02*
X001939Y006660D01*
X001939Y006582D02*
X002003Y006582D01*
X002003Y006503D02*
X001939Y006503D01*
X001939Y006425D02*
X002003Y006425D01*
X002003Y006346D02*
X001939Y006346D01*
X001939Y006267D02*
X002003Y006267D01*
X002003Y006189D02*
X001939Y006189D01*
X001939Y006110D02*
X002003Y006110D01*
X002003Y006032D02*
X001939Y006032D01*
X001939Y005953D02*
X002003Y005953D01*
X002003Y005875D02*
X001939Y005875D01*
X001939Y005796D02*
X002064Y005796D01*
X002169Y005718D02*
X001939Y005718D01*
X001939Y005639D02*
X002169Y005639D01*
X002198Y005561D02*
X001939Y005561D01*
X001939Y005482D02*
X002265Y005482D01*
X002409Y005678D02*
X002450Y005678D01*
X002514Y005741D01*
X005394Y005741D01*
X005898Y006245D01*
X005898Y006293D01*
X006201Y005953D02*
X007229Y005953D01*
X007176Y006032D02*
X006255Y006032D01*
X006255Y006110D02*
X007176Y006110D01*
X007176Y006189D02*
X006255Y006189D01*
X006255Y006267D02*
X007176Y006267D01*
X007176Y006346D02*
X006255Y006346D01*
X006255Y006425D02*
X007176Y006425D01*
X007074Y006861D02*
X006994Y006941D01*
X007074Y006861D02*
X009474Y006861D01*
X009474Y007101D01*
X009052Y007523D01*
X008359Y007523D01*
X008003Y007524D02*
X007888Y007524D01*
X007888Y007446D02*
X008003Y007446D01*
X008003Y007367D02*
X007888Y007367D01*
X007888Y007289D02*
X008003Y007289D01*
X008003Y007261D02*
X007888Y007261D01*
X007888Y007732D01*
X008003Y007732D01*
X008003Y007261D01*
X008003Y007603D02*
X007888Y007603D01*
X007888Y007681D02*
X008003Y007681D01*
X008359Y008138D02*
X008359Y008753D01*
X008519Y008388D02*
X011074Y008388D01*
X011234Y008753D02*
X011234Y009984D01*
X011074Y009566D02*
X011071Y009566D01*
X011074Y009174D02*
X011074Y009174D01*
X011234Y008753D02*
X010820Y008753D01*
X010785Y009174D02*
X009405Y009174D01*
X009637Y009039D02*
X009637Y008993D01*
X009637Y009039D02*
X009707Y009109D01*
X010279Y009109D01*
X010349Y009039D01*
X010349Y008467D01*
X010279Y008397D01*
X009707Y008397D01*
X009637Y008467D01*
X009276Y007681D02*
X009120Y007681D01*
X009199Y007603D02*
X009344Y007603D01*
X009385Y007524D02*
X009277Y007524D01*
X009356Y007446D02*
X009397Y007446D01*
X009434Y007367D02*
X009441Y007367D01*
X009513Y007289D02*
X009564Y007289D01*
X009591Y007210D02*
X009664Y007210D01*
X009634Y007131D02*
X010842Y007131D01*
X010735Y007053D02*
X009634Y007053D01*
X009474Y006861D02*
X010883Y006861D01*
X010929Y006908D01*
X011016Y007131D02*
X011074Y007131D01*
X011074Y006713D02*
X011065Y006704D01*
X010977Y006668D01*
X010881Y006668D01*
X010801Y006701D01*
X009540Y006701D01*
X009483Y006701D01*
X009629Y006533D01*
X009637Y006533D01*
X009637Y006579D01*
X009707Y006649D01*
X010279Y006649D01*
X010349Y006579D01*
X010349Y006007D01*
X010279Y005936D01*
X009707Y005936D01*
X009637Y006007D01*
X009637Y006053D01*
X009577Y006053D01*
X009489Y006089D01*
X009422Y006157D01*
X009385Y006245D01*
X009385Y006325D01*
X009232Y006502D01*
X008715Y006502D01*
X008715Y006139D01*
X008990Y005837D01*
X010750Y005837D01*
X010793Y005881D01*
X010881Y005917D01*
X010977Y005917D01*
X011065Y005881D01*
X011074Y005872D01*
X011074Y005936D01*
X010534Y005936D01*
X010463Y006007D01*
X010463Y006579D01*
X010534Y006649D01*
X011074Y006649D01*
X011074Y006713D01*
X011074Y006660D02*
X009518Y006660D01*
X009586Y006582D02*
X009640Y006582D01*
X009625Y006293D02*
X009594Y006291D01*
X009944Y006291D01*
X009993Y006293D01*
X009690Y005953D02*
X008884Y005953D01*
X008956Y005875D02*
X010787Y005875D01*
X010517Y005953D02*
X010296Y005953D01*
X010349Y006032D02*
X010463Y006032D01*
X010463Y006110D02*
X010349Y006110D01*
X010349Y006189D02*
X010463Y006189D01*
X010463Y006267D02*
X010349Y006267D01*
X010349Y006346D02*
X010463Y006346D01*
X010463Y006425D02*
X010349Y006425D01*
X010349Y006503D02*
X010463Y006503D01*
X010466Y006582D02*
X010346Y006582D01*
X010820Y006293D02*
X011234Y006293D01*
X011234Y005581D01*
X010994Y005341D01*
X010994Y004701D01*
X011492Y004382D02*
X010444Y004382D01*
X010444Y004304D02*
X011492Y004304D01*
X011492Y004225D02*
X010444Y004225D01*
X010444Y004147D02*
X011492Y004147D01*
X011492Y004068D02*
X010444Y004068D01*
X010444Y003990D02*
X011492Y003990D01*
X011492Y003911D02*
X010444Y003911D01*
X010444Y003833D02*
X011492Y003833D01*
X011492Y003754D02*
X010444Y003754D01*
X010444Y003676D02*
X011492Y003676D01*
X011492Y003597D02*
X010444Y003597D01*
X010444Y003518D02*
X011492Y003518D01*
X011492Y003440D02*
X010444Y003440D01*
X010444Y003361D02*
X011492Y003361D01*
X011492Y003283D02*
X010444Y003283D01*
X010444Y003204D02*
X011492Y003204D01*
X011492Y003126D02*
X010444Y003126D01*
X010444Y003047D02*
X011492Y003047D01*
X011492Y002969D02*
X010444Y002969D01*
X010444Y002890D02*
X011492Y002890D01*
X011492Y002812D02*
X010444Y002812D01*
X010444Y002733D02*
X011492Y002733D01*
X011492Y002654D02*
X010444Y002654D01*
X010444Y002576D02*
X011492Y002576D01*
X011492Y002497D02*
X010444Y002497D01*
X010444Y002419D02*
X011492Y002419D01*
X011492Y002340D02*
X010444Y002340D01*
X010454Y002262D02*
X011492Y002262D01*
X011492Y002183D02*
X010454Y002183D01*
X010412Y002105D02*
X011492Y002105D01*
X011492Y002026D02*
X010334Y002026D01*
X010255Y001948D02*
X011492Y001948D01*
X011492Y001869D02*
X010176Y001869D01*
X010098Y001791D02*
X011492Y001791D01*
X011492Y001712D02*
X010019Y001712D01*
X009941Y001633D02*
X011492Y001633D01*
X011492Y001555D02*
X009862Y001555D01*
X009784Y001476D02*
X011492Y001476D01*
X011492Y001461D02*
X011066Y001249D01*
X010024Y000831D01*
X008943Y000530D01*
X007836Y000347D01*
X006715Y000286D01*
X005595Y000347D01*
X004487Y000530D01*
X003406Y000831D01*
X002365Y001249D01*
X001939Y001461D01*
X001939Y018506D01*
X002365Y018718D01*
X003406Y019136D01*
X004487Y019438D01*
X005595Y019620D01*
X006391Y019663D01*
X006302Y019627D01*
X006108Y019433D01*
X006003Y019179D01*
X006003Y018904D01*
X006108Y018650D01*
X006302Y018455D01*
X006556Y018350D01*
X006831Y018350D01*
X007086Y018455D01*
X007280Y018650D01*
X007385Y018904D01*
X007385Y019179D01*
X007280Y019433D01*
X007086Y019627D01*
X006991Y019666D01*
X007836Y019620D01*
X008943Y019438D01*
X010024Y019136D01*
X011066Y018718D01*
X011492Y018506D01*
X011492Y001461D01*
X011365Y001398D02*
X009705Y001398D01*
X009627Y001319D02*
X011207Y001319D01*
X011046Y001241D02*
X009549Y001241D01*
X009470Y001162D02*
X010850Y001162D01*
X010654Y001084D02*
X002777Y001084D01*
X002921Y001319D02*
X002223Y001319D01*
X002066Y001398D02*
X002843Y001398D01*
X002764Y001476D02*
X001939Y001476D01*
X001939Y001555D02*
X002686Y001555D01*
X002607Y001633D02*
X001939Y001633D01*
X001939Y001712D02*
X002529Y001712D01*
X002450Y001791D02*
X001939Y001791D01*
X001939Y001869D02*
X002371Y001869D01*
X002293Y001948D02*
X001939Y001948D01*
X001939Y002026D02*
X002214Y002026D01*
X002136Y002105D02*
X001939Y002105D01*
X001939Y002183D02*
X002094Y002183D01*
X002094Y002262D02*
X001939Y002262D01*
X001939Y002340D02*
X002094Y002340D01*
X002094Y002419D02*
X001939Y002419D01*
X001939Y002497D02*
X002094Y002497D01*
X002094Y002576D02*
X001939Y002576D01*
X001939Y002654D02*
X002094Y002654D01*
X002094Y002733D02*
X001939Y002733D01*
X001939Y002812D02*
X002094Y002812D01*
X002068Y002890D02*
X001939Y002890D01*
X001939Y002969D02*
X002036Y002969D01*
X002034Y003047D02*
X001939Y003047D01*
X001939Y003126D02*
X002058Y003126D01*
X002094Y003204D02*
X001939Y003204D01*
X001939Y003283D02*
X002094Y003283D01*
X002094Y003361D02*
X001939Y003361D01*
X001939Y003440D02*
X002094Y003440D01*
X002094Y003518D02*
X001939Y003518D01*
X001939Y003597D02*
X002094Y003597D01*
X002094Y003676D02*
X001939Y003676D01*
X001939Y003754D02*
X002094Y003754D01*
X002094Y003833D02*
X001939Y003833D01*
X001939Y003911D02*
X002094Y003911D01*
X002094Y003990D02*
X001939Y003990D01*
X001939Y004068D02*
X002094Y004068D01*
X002089Y004147D02*
X001939Y004147D01*
X001939Y004225D02*
X002046Y004225D01*
X002034Y004304D02*
X001939Y004304D01*
X001939Y004382D02*
X002048Y004382D01*
X002094Y004461D02*
X001939Y004461D01*
X001939Y004540D02*
X002223Y004540D01*
X002365Y004618D02*
X001939Y004618D01*
X001939Y004697D02*
X002443Y004697D01*
X002522Y004775D02*
X001939Y004775D01*
X001939Y004854D02*
X002600Y004854D01*
X002679Y004932D02*
X001939Y004932D01*
X001939Y005011D02*
X002757Y005011D01*
X002836Y005089D02*
X001939Y005089D01*
X001939Y005168D02*
X002915Y005168D01*
X002993Y005246D02*
X001939Y005246D01*
X001939Y005325D02*
X003072Y005325D01*
X003150Y005404D02*
X001939Y005404D01*
X002163Y005924D02*
X003118Y005924D01*
X003438Y006293D01*
X003081Y006267D02*
X002967Y006267D01*
X002967Y006189D02*
X003081Y006189D01*
X003081Y006126D02*
X003045Y006084D01*
X002967Y006084D01*
X002967Y006459D01*
X003004Y006502D01*
X003081Y006502D01*
X003081Y006126D01*
X003068Y006110D02*
X002967Y006110D01*
X002967Y006346D02*
X003081Y006346D01*
X003081Y006425D02*
X002967Y006425D01*
X002931Y006662D02*
X002611Y006293D01*
X002718Y006660D02*
X002323Y006660D01*
X002409Y006908D02*
X002538Y006988D01*
X003601Y006988D01*
X003754Y007141D01*
X003794Y007301D02*
X003794Y007732D01*
X004715Y007732D01*
X004715Y007301D01*
X003794Y007301D01*
X003794Y007367D02*
X004715Y007367D01*
X004715Y007446D02*
X003794Y007446D01*
X003794Y007524D02*
X004715Y007524D01*
X004715Y007603D02*
X003794Y007603D01*
X003794Y007681D02*
X004715Y007681D01*
X004716Y008467D02*
X004178Y008467D01*
X004129Y008545D02*
X004715Y008545D01*
X004715Y008624D02*
X003794Y008624D01*
X003794Y008702D02*
X004715Y008702D01*
X004715Y008781D02*
X003794Y008781D01*
X003794Y008859D02*
X004715Y008859D01*
X004715Y008938D02*
X003794Y008938D01*
X003438Y008753D02*
X003438Y008384D01*
X003441Y008381D01*
X003954Y008381D01*
X003438Y008384D02*
X002163Y008384D01*
X002163Y009615D01*
X002407Y009368D02*
X002514Y009301D01*
X006154Y009301D01*
X006274Y009421D01*
X006274Y009901D01*
X006194Y009981D01*
X005901Y009981D01*
X005898Y009984D01*
X005898Y010277D01*
X005794Y010381D01*
X006001Y010509D02*
X007150Y010509D01*
X007228Y010430D02*
X006033Y010430D01*
X006050Y010352D02*
X007307Y010352D01*
X007532Y010353D02*
X007532Y009984D01*
X007229Y009645D02*
X006434Y009645D01*
X006434Y009723D02*
X007176Y009723D01*
X007176Y009802D02*
X006434Y009802D01*
X006434Y009880D02*
X007176Y009880D01*
X007176Y009959D02*
X006434Y009959D01*
X006364Y010038D02*
X007176Y010038D01*
X007176Y010116D02*
X006285Y010116D01*
X006255Y010195D02*
X007176Y010195D01*
X007180Y010273D02*
X006251Y010273D01*
X006031Y009984D02*
X005898Y009984D01*
X005954Y009541D02*
X004314Y009541D01*
X004034Y009821D01*
X003930Y010038D02*
X003794Y010038D01*
X003794Y010116D02*
X004715Y010116D01*
X004715Y010193D02*
X004715Y009701D01*
X004380Y009701D01*
X004274Y009807D01*
X004274Y009869D01*
X004237Y009957D01*
X004170Y010025D01*
X004082Y010061D01*
X003986Y010061D01*
X003898Y010025D01*
X003831Y009957D01*
X003794Y009869D01*
X003794Y009773D01*
X003831Y009685D01*
X003898Y009618D01*
X003986Y009581D01*
X004048Y009581D01*
X004168Y009461D01*
X003196Y009461D01*
X003235Y009505D01*
X003278Y009548D01*
X003278Y009555D01*
X003341Y009627D01*
X003724Y009627D01*
X003794Y009698D01*
X003794Y010193D01*
X004715Y010193D01*
X004715Y010038D02*
X004139Y010038D01*
X004235Y009959D02*
X004715Y009959D01*
X004715Y009880D02*
X004269Y009880D01*
X004279Y009802D02*
X004715Y009802D01*
X004715Y009723D02*
X004358Y009723D01*
X004141Y009488D02*
X003219Y009488D01*
X003288Y009566D02*
X004063Y009566D01*
X003871Y009645D02*
X003741Y009645D01*
X003794Y009723D02*
X003815Y009723D01*
X003794Y009802D02*
X003794Y009802D01*
X003794Y009880D02*
X003799Y009880D01*
X003794Y009959D02*
X003833Y009959D01*
X003438Y009984D02*
X003118Y009615D01*
X003081Y010038D02*
X002967Y010038D01*
X002967Y010116D02*
X003081Y010116D01*
X003258Y010759D02*
X003278Y010779D01*
X003278Y010785D01*
X003341Y010858D01*
X003724Y010858D01*
X003794Y010928D01*
X003794Y011423D01*
X004715Y011423D01*
X004715Y010928D01*
X004786Y010858D01*
X005357Y010858D01*
X005361Y010861D01*
X005268Y010759D01*
X003258Y010759D01*
X003310Y010823D02*
X005326Y010823D01*
X005428Y010935D02*
X005428Y011423D01*
X005542Y011423D01*
X005542Y011060D01*
X005428Y010935D01*
X005428Y010980D02*
X005469Y010980D01*
X005428Y011059D02*
X005541Y011059D01*
X005542Y011137D02*
X005428Y011137D01*
X005428Y011216D02*
X005542Y011216D01*
X005542Y011294D02*
X005428Y011294D01*
X005428Y011373D02*
X005542Y011373D01*
X005554Y011861D02*
X007114Y011861D01*
X007015Y012080D02*
X005653Y012080D01*
X005690Y012065D02*
X005733Y012021D01*
X006935Y012021D01*
X006978Y012065D01*
X007066Y012101D01*
X007162Y012101D01*
X007250Y012065D01*
X007317Y011997D01*
X007354Y011909D01*
X007354Y011813D01*
X007325Y011743D01*
X007598Y011743D01*
X007532Y011583D02*
X007532Y011214D01*
X007334Y011766D02*
X008834Y011766D01*
X008753Y011844D02*
X007354Y011844D01*
X007348Y011923D02*
X008671Y011923D01*
X008589Y012001D02*
X007313Y012001D01*
X007246Y012088D02*
X007818Y012088D01*
X007888Y012158D01*
X007532Y012444D02*
X007532Y012813D01*
X005072Y012813D01*
X005072Y012444D01*
X005072Y012813D02*
X002931Y012813D01*
X002611Y012444D01*
X002708Y012800D02*
X002325Y012800D01*
X002323Y012798D01*
X002323Y012835D01*
X002361Y012819D01*
X002457Y012819D01*
X002545Y012856D01*
X002589Y012899D01*
X002791Y012899D01*
X002771Y012880D01*
X002771Y012873D01*
X002708Y012800D01*
X002764Y012865D02*
X002554Y012865D01*
X002409Y013059D02*
X005898Y013059D01*
X005898Y013675D01*
X005738Y013258D02*
X003288Y013258D01*
X003118Y013305D02*
X002163Y013305D01*
X002163Y014536D01*
X002581Y014122D02*
X002783Y014122D01*
X003004Y013884D02*
X003081Y013884D01*
X003081Y013508D01*
X003045Y013465D01*
X002967Y013465D01*
X002967Y013841D01*
X003004Y013884D01*
X002967Y013808D02*
X003081Y013808D01*
X003081Y013729D02*
X002967Y013729D01*
X002967Y013651D02*
X003081Y013651D01*
X003081Y013572D02*
X002967Y013572D01*
X002967Y013493D02*
X003069Y013493D01*
X003118Y013305D02*
X003438Y013675D01*
X003081Y012653D02*
X003004Y012653D01*
X002967Y012611D01*
X002967Y012235D01*
X003045Y012235D01*
X003081Y012278D01*
X003081Y012653D01*
X003081Y012629D02*
X002983Y012629D01*
X002967Y012551D02*
X003081Y012551D01*
X003081Y012472D02*
X002967Y012472D01*
X002967Y012394D02*
X003081Y012394D01*
X003081Y012315D02*
X002967Y012315D01*
X002967Y012237D02*
X003046Y012237D01*
X003081Y011423D02*
X002967Y011423D01*
X002967Y011005D01*
X003045Y011005D01*
X003081Y011047D01*
X003081Y011423D01*
X003081Y011373D02*
X002967Y011373D01*
X002967Y011294D02*
X003081Y011294D01*
X003081Y011216D02*
X002967Y011216D01*
X002967Y011137D02*
X003081Y011137D01*
X003081Y011059D02*
X002967Y011059D01*
X003767Y010902D02*
X004742Y010902D01*
X004715Y010980D02*
X003794Y010980D01*
X003794Y011059D02*
X004715Y011059D01*
X004715Y011137D02*
X003794Y011137D01*
X003794Y011216D02*
X004715Y011216D01*
X004715Y011294D02*
X003794Y011294D01*
X003794Y011373D02*
X004715Y011373D01*
X005428Y012321D02*
X005428Y012653D01*
X005542Y012653D01*
X005542Y012435D01*
X005428Y012321D01*
X005428Y012394D02*
X005501Y012394D01*
X005542Y012472D02*
X005428Y012472D01*
X005428Y012551D02*
X005542Y012551D01*
X005542Y012629D02*
X005428Y012629D01*
X005376Y013336D02*
X005594Y013336D01*
X005542Y013415D02*
X005428Y013415D01*
X005428Y013493D02*
X005542Y013493D01*
X005542Y013572D02*
X005428Y013572D01*
X005428Y013651D02*
X005542Y013651D01*
X005542Y013729D02*
X005428Y013729D01*
X005428Y013808D02*
X005542Y013808D01*
X007176Y012158D02*
X007246Y012088D01*
X007213Y012080D02*
X008507Y012080D01*
X008919Y013059D02*
X008359Y013675D01*
X008859Y014593D02*
X009662Y014593D01*
X009561Y014672D02*
X008788Y014672D01*
X008716Y014750D02*
X009440Y014750D01*
X009397Y014829D02*
X008715Y014829D01*
X008715Y014907D02*
X009385Y014907D01*
X009301Y014986D02*
X008715Y014986D01*
X008715Y015064D02*
X009216Y015064D01*
X008835Y015850D02*
X009637Y015850D01*
X009497Y015928D02*
X008764Y015928D01*
X008715Y016007D02*
X009418Y016007D01*
X009386Y016085D02*
X008715Y016085D01*
X008715Y016164D02*
X009358Y016164D01*
X009273Y016242D02*
X008715Y016242D01*
X008715Y016321D02*
X009188Y016321D01*
X009574Y016400D02*
X009637Y016400D01*
X009688Y017028D02*
X008664Y017028D01*
X008715Y017106D02*
X009637Y017106D01*
X009466Y017185D02*
X008715Y017185D01*
X008715Y017264D02*
X009407Y017264D01*
X009385Y017342D02*
X008715Y017342D01*
X008715Y017421D02*
X009329Y017421D01*
X009244Y017499D02*
X008715Y017499D01*
X009416Y019306D02*
X007333Y019306D01*
X007300Y019384D02*
X009134Y019384D01*
X008791Y019463D02*
X007250Y019463D01*
X007171Y019541D02*
X008314Y019541D01*
X007837Y019620D02*
X007093Y019620D01*
X007365Y019227D02*
X009697Y019227D01*
X009979Y019149D02*
X007385Y019149D01*
X007385Y019070D02*
X010189Y019070D01*
X010385Y018991D02*
X007385Y018991D01*
X007385Y018913D02*
X010581Y018913D01*
X010777Y018834D02*
X007356Y018834D01*
X007324Y018756D02*
X010973Y018756D01*
X011148Y018677D02*
X007291Y018677D01*
X007229Y018599D02*
X011306Y018599D01*
X011463Y018520D02*
X007151Y018520D01*
X007053Y018442D02*
X011492Y018442D01*
X011492Y018363D02*
X006863Y018363D01*
X006525Y018363D02*
X001939Y018363D01*
X001939Y018285D02*
X011492Y018285D01*
X011234Y017366D02*
X010820Y017366D01*
X010515Y017028D02*
X010297Y017028D01*
X010349Y017106D02*
X010463Y017106D01*
X010463Y017185D02*
X010349Y017185D01*
X010349Y017264D02*
X010463Y017264D01*
X010463Y017342D02*
X010349Y017342D01*
X010349Y017421D02*
X010463Y017421D01*
X010463Y017499D02*
X010349Y017499D01*
X010349Y017578D02*
X010463Y017578D01*
X010468Y017656D02*
X010344Y017656D01*
X010247Y017735D02*
X010501Y017735D01*
X010674Y017901D02*
X010074Y017901D01*
X010154Y018128D02*
X010594Y018128D01*
X009225Y014044D02*
X007532Y014044D01*
X009546Y013965D02*
X009641Y013965D01*
X009637Y012708D02*
X009575Y012708D01*
X009637Y012158D02*
X009707Y012088D01*
X010279Y012088D01*
X010349Y012158D01*
X011015Y010823D02*
X011074Y010823D01*
X010519Y009095D02*
X010293Y009095D01*
X010349Y009016D02*
X010463Y009016D01*
X010463Y008938D02*
X010349Y008938D01*
X010349Y008859D02*
X010463Y008859D01*
X010463Y008781D02*
X010349Y008781D01*
X010349Y008702D02*
X010463Y008702D01*
X010463Y008624D02*
X010349Y008624D01*
X010349Y008545D02*
X010463Y008545D01*
X010464Y008467D02*
X010348Y008467D01*
X010320Y007838D02*
X010493Y007838D01*
X010463Y007760D02*
X010349Y007760D01*
X010349Y007681D02*
X010463Y007681D01*
X010463Y007603D02*
X010349Y007603D01*
X010349Y007524D02*
X010463Y007524D01*
X010463Y007446D02*
X010349Y007446D01*
X010349Y007367D02*
X010463Y007367D01*
X010463Y007289D02*
X010349Y007289D01*
X010322Y007210D02*
X010490Y007210D01*
X010820Y007523D02*
X011234Y007523D01*
X011234Y008753D01*
X010761Y008310D02*
X008519Y008310D01*
X008003Y008467D02*
X008003Y008962D01*
X007888Y008962D01*
X007888Y008467D01*
X007888Y008545D02*
X008003Y008545D01*
X008003Y008624D02*
X007888Y008624D01*
X007888Y008702D02*
X008003Y008702D01*
X008003Y008781D02*
X007888Y008781D01*
X007888Y008859D02*
X008003Y008859D01*
X008003Y008938D02*
X007888Y008938D01*
X007176Y008938D02*
X006255Y008938D01*
X006255Y008859D02*
X007176Y008859D01*
X007176Y008781D02*
X006255Y008781D01*
X006255Y008702D02*
X007176Y008702D01*
X007176Y008624D02*
X006255Y008624D01*
X006255Y008545D02*
X007176Y008545D01*
X007177Y008467D02*
X006254Y008467D01*
X006255Y007681D02*
X007176Y007681D01*
X007074Y007421D02*
X007074Y007261D01*
X007234Y007101D01*
X008754Y007101D01*
X008906Y007289D02*
X009060Y007289D01*
X008986Y007363D02*
X009314Y007035D01*
X009314Y007021D01*
X008981Y007021D01*
X008994Y007053D01*
X009296Y007053D01*
X009217Y007131D02*
X008994Y007131D01*
X008994Y007149D02*
X008957Y007237D01*
X008890Y007305D01*
X008802Y007341D01*
X008715Y007341D01*
X008715Y007363D01*
X008986Y007363D01*
X008969Y007210D02*
X009139Y007210D01*
X008994Y007149D02*
X008994Y007053D01*
X009305Y006662D02*
X009625Y006293D01*
X009468Y006110D02*
X008741Y006110D01*
X008715Y006189D02*
X009408Y006189D01*
X009385Y006267D02*
X008715Y006267D01*
X008715Y006346D02*
X009367Y006346D01*
X009299Y006425D02*
X008715Y006425D01*
X008813Y006032D02*
X009637Y006032D01*
X009305Y006662D02*
X007532Y006662D01*
X005072Y006662D01*
X005072Y006293D01*
X005072Y006662D02*
X002931Y006662D01*
X002782Y006739D02*
X002579Y006739D01*
X002631Y006817D02*
X002860Y006817D01*
X003118Y007154D02*
X002163Y007154D01*
X002163Y008384D01*
X002611Y008753D02*
X002611Y009122D01*
X005072Y009122D01*
X005428Y009701D02*
X005428Y010193D01*
X005432Y010193D01*
X005559Y010320D01*
X005569Y010297D01*
X005542Y010270D01*
X005542Y009701D01*
X005428Y009701D01*
X005428Y009723D02*
X005542Y009723D01*
X005542Y009802D02*
X005428Y009802D01*
X005428Y009880D02*
X005542Y009880D01*
X005542Y009959D02*
X005428Y009959D01*
X005428Y010038D02*
X005542Y010038D01*
X005542Y010116D02*
X005428Y010116D01*
X005434Y010195D02*
X005542Y010195D01*
X005546Y010273D02*
X005512Y010273D01*
X006255Y007603D02*
X006916Y007603D01*
X006857Y007524D02*
X006255Y007524D01*
X006255Y007446D02*
X006834Y007446D01*
X006837Y007367D02*
X006255Y007367D01*
X006255Y007289D02*
X006869Y007289D01*
X006914Y007210D02*
X006227Y007210D01*
X005542Y006425D02*
X005428Y006425D01*
X005428Y006346D02*
X005542Y006346D01*
X005542Y006267D02*
X005428Y006267D01*
X005428Y006189D02*
X005542Y006189D01*
X005537Y006110D02*
X005428Y006110D01*
X005428Y006032D02*
X005459Y006032D01*
X005380Y005953D02*
X005374Y005953D01*
X007032Y003126D02*
X002490Y003126D01*
X002514Y003047D02*
X006954Y003047D01*
X006875Y002969D02*
X002512Y002969D01*
X002479Y002890D02*
X006797Y002890D01*
X006718Y002812D02*
X002454Y002812D01*
X002454Y002733D02*
X005631Y002733D01*
X005648Y002750D02*
X005559Y002661D01*
X005511Y002544D01*
X005511Y002418D01*
X005559Y002301D01*
X005648Y002212D01*
X005765Y002164D01*
X005891Y002164D01*
X006008Y002212D01*
X006097Y002301D01*
X006145Y002418D01*
X006145Y002544D01*
X006097Y002661D01*
X006008Y002750D01*
X005891Y002798D01*
X005765Y002798D01*
X005648Y002750D01*
X005556Y002654D02*
X002454Y002654D01*
X002454Y002576D02*
X005524Y002576D01*
X005511Y002497D02*
X002454Y002497D01*
X002454Y002419D02*
X005511Y002419D01*
X005543Y002340D02*
X002454Y002340D01*
X002488Y002262D02*
X005599Y002262D01*
X005718Y002183D02*
X002566Y002183D01*
X002645Y002105D02*
X006145Y002105D01*
X006114Y002026D02*
X002723Y002026D01*
X002802Y001948D02*
X006114Y001948D01*
X006141Y001869D02*
X002881Y001869D01*
X002959Y001791D02*
X006205Y001791D01*
X006354Y001981D02*
X006514Y001981D01*
X008034Y003501D01*
X008034Y004701D01*
X008212Y004540D02*
X010104Y004540D01*
X010104Y004618D02*
X008259Y004618D01*
X008274Y004697D02*
X010104Y004697D01*
X010104Y004775D02*
X008263Y004775D01*
X008221Y004854D02*
X010102Y004854D01*
X010104Y004461D02*
X008194Y004461D01*
X008194Y004382D02*
X010104Y004382D01*
X010104Y004304D02*
X008194Y004304D01*
X008194Y004225D02*
X010104Y004225D01*
X010104Y004147D02*
X008194Y004147D01*
X008194Y004068D02*
X010104Y004068D01*
X010104Y003990D02*
X008194Y003990D01*
X008194Y003911D02*
X010104Y003911D01*
X010104Y003833D02*
X008194Y003833D01*
X008194Y003754D02*
X010104Y003754D01*
X010104Y003676D02*
X008194Y003676D01*
X008194Y003597D02*
X010104Y003597D01*
X010104Y003518D02*
X008194Y003518D01*
X008194Y003440D02*
X010104Y003440D01*
X010104Y003361D02*
X008121Y003361D01*
X008042Y003283D02*
X010104Y003283D01*
X010104Y003204D02*
X007963Y003204D01*
X007885Y003126D02*
X010104Y003126D01*
X010104Y003047D02*
X007806Y003047D01*
X007728Y002969D02*
X010104Y002969D01*
X010104Y002890D02*
X007649Y002890D01*
X007571Y002812D02*
X010104Y002812D01*
X010104Y002733D02*
X007757Y002733D01*
X007832Y002654D02*
X010104Y002654D01*
X010104Y002576D02*
X007864Y002576D01*
X007877Y002497D02*
X010104Y002497D01*
X010104Y002419D02*
X007877Y002419D01*
X007845Y002340D02*
X010104Y002340D01*
X010060Y002262D02*
X007789Y002262D01*
X007670Y002183D02*
X009982Y002183D01*
X009903Y002105D02*
X006864Y002105D01*
X006942Y002183D02*
X007450Y002183D01*
X007331Y002262D02*
X007021Y002262D01*
X007099Y002340D02*
X007275Y002340D01*
X007243Y002419D02*
X007178Y002419D01*
X006785Y002026D02*
X009825Y002026D01*
X009746Y001948D02*
X006707Y001948D01*
X006628Y001869D02*
X009667Y001869D01*
X009589Y001791D02*
X006503Y001791D01*
X006568Y002262D02*
X006057Y002262D01*
X006113Y002340D02*
X006535Y002340D01*
X006465Y002419D02*
X006145Y002419D01*
X006145Y002497D02*
X006434Y002497D01*
X006434Y002576D02*
X006132Y002576D01*
X006099Y002654D02*
X006461Y002654D01*
X006527Y002733D02*
X006024Y002733D01*
X005938Y002183D02*
X006217Y002183D01*
X006674Y002541D02*
X007634Y003501D01*
X007634Y004701D01*
X007812Y004540D02*
X007856Y004540D01*
X007874Y004522D02*
X007874Y003567D01*
X007794Y003487D01*
X007794Y003567D01*
X007794Y004522D01*
X007834Y004562D01*
X007874Y004522D01*
X007874Y004461D02*
X007794Y004461D01*
X007794Y004382D02*
X007874Y004382D01*
X007874Y004304D02*
X007794Y004304D01*
X007794Y004225D02*
X007874Y004225D01*
X007874Y004147D02*
X007794Y004147D01*
X007794Y004068D02*
X007874Y004068D01*
X007874Y003990D02*
X007794Y003990D01*
X007794Y003911D02*
X007874Y003911D01*
X007874Y003833D02*
X007794Y003833D01*
X007794Y003754D02*
X007874Y003754D01*
X007874Y003676D02*
X007794Y003676D01*
X007794Y003597D02*
X007874Y003597D01*
X007825Y003518D02*
X007794Y003518D01*
X007474Y003597D02*
X002454Y003597D01*
X002454Y003676D02*
X007474Y003676D01*
X007474Y003754D02*
X002454Y003754D01*
X002454Y003833D02*
X007474Y003833D01*
X007474Y003911D02*
X002454Y003911D01*
X002454Y003990D02*
X007474Y003990D01*
X007474Y004068D02*
X002454Y004068D01*
X002454Y003518D02*
X007425Y003518D01*
X007347Y003440D02*
X002454Y003440D01*
X002454Y003361D02*
X007268Y003361D01*
X007190Y003283D02*
X002454Y003283D01*
X002454Y003204D02*
X007111Y003204D01*
X007821Y004854D02*
X007847Y004854D01*
X007835Y005953D02*
X008056Y005953D01*
X008003Y006032D02*
X007888Y006032D01*
X007888Y006110D02*
X008003Y006110D01*
X008003Y006189D02*
X007888Y006189D01*
X007888Y006267D02*
X008003Y006267D01*
X008003Y006346D02*
X007888Y006346D01*
X007888Y006425D02*
X008003Y006425D01*
X007532Y006293D02*
X007532Y006662D01*
X008812Y009723D02*
X009637Y009723D01*
X009594Y007541D02*
X009944Y007541D01*
X009993Y007523D01*
X011022Y007917D02*
X011074Y007917D01*
X011234Y007523D02*
X011234Y006293D01*
X011074Y005875D02*
X011071Y005875D01*
X009510Y001712D02*
X003038Y001712D01*
X003116Y001633D02*
X009432Y001633D01*
X009353Y001555D02*
X007689Y001555D01*
X008016Y000377D02*
X005415Y000377D01*
X004938Y000455D02*
X008492Y000455D01*
X008958Y000534D02*
X004472Y000534D01*
X004191Y000612D02*
X009240Y000612D01*
X009521Y000691D02*
X003909Y000691D01*
X003628Y000769D02*
X009802Y000769D01*
X010066Y000848D02*
X003365Y000848D01*
X003261Y001162D02*
X009287Y001162D01*
X010262Y000927D02*
X003169Y000927D01*
X002973Y001005D02*
X010458Y001005D01*
X006938Y000298D02*
X006493Y000298D01*
X004859Y001555D02*
X003195Y001555D01*
X002999Y001241D02*
X002385Y001241D01*
X002581Y001162D02*
X003078Y001162D01*
X002163Y005924D02*
X002163Y007154D01*
X002967Y007314D02*
X002967Y007690D01*
X003004Y007732D01*
X003081Y007732D01*
X003081Y007356D01*
X003045Y007314D01*
X002967Y007314D01*
X002967Y007367D02*
X003081Y007367D01*
X003081Y007446D02*
X002967Y007446D01*
X002967Y007524D02*
X003081Y007524D01*
X003081Y007603D02*
X002967Y007603D01*
X002967Y007681D02*
X003081Y007681D01*
X003438Y007523D02*
X003118Y007154D01*
X003324Y007148D02*
X003534Y007148D01*
X003553Y007167D01*
X003341Y007167D01*
X003324Y007148D01*
X003081Y008544D02*
X002967Y008544D01*
X002967Y008962D01*
X003081Y008962D01*
X003081Y008544D01*
X003081Y008545D02*
X002967Y008545D01*
X002967Y008624D02*
X003081Y008624D01*
X003081Y008702D02*
X002967Y008702D01*
X002967Y008781D02*
X003081Y008781D01*
X003081Y008859D02*
X002967Y008859D01*
X002967Y008938D02*
X003081Y008938D01*
X002451Y009109D02*
X002451Y009128D01*
X002361Y009128D01*
X002323Y009144D01*
X002323Y009108D01*
X002325Y009109D01*
X002451Y009109D01*
X002409Y009368D02*
X002407Y009368D01*
X002163Y012075D02*
X002163Y013305D01*
X001939Y018442D02*
X006335Y018442D01*
X006237Y018520D02*
X001967Y018520D01*
X002125Y018599D02*
X006159Y018599D01*
X006097Y018677D02*
X002282Y018677D01*
X002458Y018756D02*
X006064Y018756D01*
X006031Y018834D02*
X002654Y018834D01*
X002850Y018913D02*
X006003Y018913D01*
X006003Y018991D02*
X003046Y018991D01*
X003242Y019070D02*
X006003Y019070D01*
X006003Y019149D02*
X003452Y019149D01*
X003733Y019227D02*
X006023Y019227D01*
X006056Y019306D02*
X004015Y019306D01*
X004296Y019384D02*
X006088Y019384D01*
X006138Y019463D02*
X004640Y019463D01*
X005117Y019541D02*
X006217Y019541D01*
X006295Y019620D02*
X005593Y019620D01*
D14*
X002409Y016750D03*
X002409Y015520D03*
X002409Y014290D03*
X002409Y013059D03*
X002409Y011829D03*
X002409Y010599D03*
X002409Y009368D03*
X002409Y008138D03*
X002409Y006908D03*
X002409Y005678D03*
X002690Y005174D03*
X002210Y005014D03*
X002274Y004301D03*
X002274Y003021D03*
X003650Y003334D03*
X003650Y003894D03*
X004194Y005261D03*
X003954Y008381D03*
X004034Y009821D03*
X005554Y011861D03*
X005514Y013301D03*
X006274Y013261D03*
X006434Y013581D03*
X007034Y013301D03*
X007274Y013141D03*
X007114Y011861D03*
X005794Y010381D03*
X005954Y009541D03*
X007074Y007421D03*
X006994Y006941D03*
X007634Y004701D03*
X007330Y004134D03*
X008034Y004701D03*
X008530Y002374D03*
X010274Y005021D03*
X010929Y005678D03*
X010994Y004701D03*
X010929Y006908D03*
X010929Y008138D03*
X010929Y009368D03*
X010929Y010599D03*
X010849Y011829D03*
X010929Y013059D03*
X010929Y014290D03*
X010929Y015520D03*
X010929Y016750D03*
X010674Y017901D03*
X010074Y017901D03*
X009625Y017366D03*
X009625Y016135D03*
X009625Y014905D03*
X009625Y013675D03*
X009625Y012444D03*
X009625Y011214D03*
X009625Y009984D03*
X009625Y008753D03*
X009625Y007523D03*
X009625Y006293D03*
X008754Y007101D03*
X006674Y002541D03*
X006354Y001981D03*
X006610Y001014D03*
X003914Y013781D03*
D15*
X003438Y008753D02*
X003570Y008621D01*
X010274Y005021D02*
X010274Y002221D01*
D16*
X009394Y001341D01*
X003154Y001341D01*
X002274Y002221D01*
X002274Y004301D01*
M02*
